<?xml version="1.0" encoding="UTF-8" standalone="no"?>
<!DOCTYPE svg PUBLIC "-//W3C//DTD SVG 1.1//EN"
 "http://www.w3.org/Graphics/SVG/1.1/DTD/svg11.dtd">
<!-- Generated by graphviz version 2.40.1 (20161225.0304)
 -->
<!-- Title: Graphical Class Hierarchy Pages: 1 -->
<svg width="323pt" height="667pt"
 viewBox="0.00 0.00 323.00 666.50" xmlns="http://www.w3.org/2000/svg" xmlns:xlink="http://www.w3.org/1999/xlink">
<g id="graph0" class="graph" transform="scale(1 1) rotate(0) translate(4 662.5)">
<title>Graphical Class Hierarchy</title>
<polygon fill="#ffffff" stroke="transparent" points="-4,4 -4,-662.5 319,-662.5 319,4 -4,4"/>
<!-- Node108 -->
<g id="node1" class="node">
<title>Node108</title>
<polygon fill="#ffffff" stroke="#bfbfbf" points="0,-317 0,-336 53,-336 53,-317 0,-317"/>
<text text-anchor="middle" x="26.5" y="-324" font-family="Helvetica,sans-Serif" font-size="10.00" fill="#000000">IntEnum</text>
</g>
<!-- Node0 -->
<g id="node2" class="node">
<title>Node0</title>
<g id="a_node2"><a xlink:href="d5/d58/classpyclustering_1_1cluster_1_1agglomerative_1_1type__link.html" target="_top" xlink:title="Enumerator of types of link between clusters. ">
<polygon fill="#ffffff" stroke="#000000" points="98.5,-639 98.5,-658 305.5,-658 305.5,-639 98.5,-639"/>
<text text-anchor="middle" x="202" y="-646" font-family="Helvetica,sans-Serif" font-size="10.00" fill="#000000">pyclustering.cluster.agglomerative.type_link</text>
</a>
</g>
</g>
<!-- Node108&#45;&gt;Node0 -->
<g id="edge1" class="edge">
<title>Node108&#45;&gt;Node0</title>
<path fill="none" stroke="#191970" d="M27.7523,-346.5005C31.9991,-407.5804 47.9456,-589.9306 89,-629.5 92.7957,-633.1584 97.0164,-636.263 101.5335,-638.8893"/>
<polygon fill="#191970" stroke="#191970" points="31.2281,-346.0189 27.0734,-336.2727 24.2435,-346.4826 31.2281,-346.0189"/>
</g>
<!-- Node110 -->
<g id="node3" class="node">
<title>Node110</title>
<g id="a_node3"><a xlink:href="d4/d22/classpyclustering_1_1cluster_1_1ema_1_1ema__init__type.html" target="_top" xlink:title="Enumeration of initialization types for Expectation&#45;Maximization algorithm. ">
<polygon fill="#ffffff" stroke="#000000" points="129.5,-589.5 129.5,-619.5 274.5,-619.5 274.5,-589.5 129.5,-589.5"/>
<text text-anchor="start" x="137.5" y="-607.5" font-family="Helvetica,sans-Serif" font-size="10.00" fill="#000000">pyclustering.cluster.ema.ema</text>
<text text-anchor="middle" x="202" y="-596.5" font-family="Helvetica,sans-Serif" font-size="10.00" fill="#000000">_init_type</text>
</a>
</g>
</g>
<!-- Node108&#45;&gt;Node110 -->
<g id="edge2" class="edge">
<title>Node108&#45;&gt;Node110</title>
<path fill="none" stroke="#191970" d="M28.6695,-346.3026C34.9753,-400.1849 55.038,-547.6074 89,-580.5 100.021,-591.1739 114.5459,-597.6117 129.4965,-601.3919"/>
<polygon fill="#191970" stroke="#191970" points="32.1096,-345.5759 27.5036,-336.0347 25.1543,-346.3658 32.1096,-345.5759"/>
</g>
<!-- Node111 -->
<g id="node4" class="node">
<title>Node111</title>
<g id="a_node4"><a xlink:href="d5/d41/classpyclustering_1_1cluster_1_1encoder_1_1type__encoding.html" target="_top" xlink:title="Enumeration of encoding types (index labeling, index list separation, object list separation)...">
<polygon fill="#ffffff" stroke="#000000" points="121.5,-540.5 121.5,-570.5 282.5,-570.5 282.5,-540.5 121.5,-540.5"/>
<text text-anchor="start" x="129.5" y="-558.5" font-family="Helvetica,sans-Serif" font-size="10.00" fill="#000000">pyclustering.cluster.encoder.type</text>
<text text-anchor="middle" x="202" y="-547.5" font-family="Helvetica,sans-Serif" font-size="10.00" fill="#000000">_encoding</text>
</a>
</g>
</g>
<!-- Node108&#45;&gt;Node111 -->
<g id="edge3" class="edge">
<title>Node108&#45;&gt;Node111</title>
<path fill="none" stroke="#191970" d="M29.8752,-346.0899C38.224,-392.2747 61.1942,-506.0048 89,-531.5 98.1651,-539.9035 109.5188,-545.6442 121.4635,-549.5191"/>
<polygon fill="#191970" stroke="#191970" points="33.302,-345.3682 28.1137,-336.1307 26.4089,-346.5874 33.302,-345.3682"/>
</g>
<!-- Node112 -->
<g id="node5" class="node">
<title>Node112</title>
<g id="a_node5"><a xlink:href="db/d80/classpyclustering_1_1cluster_1_1silhouette_1_1silhouette__ksearch__type.html" target="_top" xlink:title="Defines algorithms that can be used to find optimal number of cluster using Silhouette method...">
<polygon fill="#ffffff" stroke="#000000" points="106.5,-491.5 106.5,-521.5 297.5,-521.5 297.5,-491.5 106.5,-491.5"/>
<text text-anchor="start" x="114.5" y="-509.5" font-family="Helvetica,sans-Serif" font-size="10.00" fill="#000000">pyclustering.cluster.silhouette.silhouette</text>
<text text-anchor="middle" x="202" y="-498.5" font-family="Helvetica,sans-Serif" font-size="10.00" fill="#000000">_ksearch_type</text>
</a>
</g>
</g>
<!-- Node108&#45;&gt;Node112 -->
<g id="edge4" class="edge">
<title>Node108&#45;&gt;Node112</title>
<path fill="none" stroke="#191970" d="M28.6527,-346.5923C33.3365,-379.924 47.6024,-446.4454 89,-481.5 94.2901,-485.9795 100.2066,-489.7057 106.4846,-492.8003"/>
<polygon fill="#191970" stroke="#191970" points="32.0788,-345.7819 27.3668,-336.2926 25.1327,-346.6491 32.0788,-345.7819"/>
</g>
<!-- Node113 -->
<g id="node6" class="node">
<title>Node113</title>
<g id="a_node6"><a xlink:href="dc/d4b/classpyclustering_1_1cluster_1_1xmeans_1_1splitting__type.html" target="_top" xlink:title="Enumeration of splitting types that can be used as splitting creation of cluster in X&#45;Means algorithm...">
<polygon fill="#ffffff" stroke="#000000" points="102,-453 102,-472 302,-472 302,-453 102,-453"/>
<text text-anchor="middle" x="202" y="-460" font-family="Helvetica,sans-Serif" font-size="10.00" fill="#000000">pyclustering.cluster.xmeans.splitting_type</text>
</a>
</g>
</g>
<!-- Node108&#45;&gt;Node113 -->
<g id="edge5" class="edge">
<title>Node108&#45;&gt;Node113</title>
<path fill="none" stroke="#191970" d="M31.1594,-346.0081C38.5921,-372.5972 55.8046,-419.6318 89,-443.5 94.2493,-447.2744 99.987,-450.3966 106.0045,-452.9715"/>
<polygon fill="#191970" stroke="#191970" points="34.5372,-345.0902 28.628,-336.2964 27.7635,-346.8559 34.5372,-345.0902"/>
</g>
<!-- Node114 -->
<g id="node7" class="node">
<title>Node114</title>
<g id="a_node7"><a xlink:href="d2/d23/classpyclustering_1_1container_1_1cftree_1_1cfnode__type.html" target="_top" xlink:title="Enumeration of CF&#45;Node types that are used by CF&#45;Tree. ">
<polygon fill="#ffffff" stroke="#000000" points="104,-415 104,-434 300,-434 300,-415 104,-415"/>
<text text-anchor="middle" x="202" y="-422" font-family="Helvetica,sans-Serif" font-size="10.00" fill="#000000">pyclustering.container.cftree.cfnode_type</text>
</a>
</g>
</g>
<!-- Node108&#45;&gt;Node114 -->
<g id="edge6" class="edge">
<title>Node108&#45;&gt;Node114</title>
<path fill="none" stroke="#191970" d="M35.9096,-345.1233C46.2796,-363.598 64.7558,-391.1633 89,-405.5 95.4213,-409.2972 102.3861,-412.3897 109.5974,-414.9024"/>
<polygon fill="#191970" stroke="#191970" points="38.9231,-343.3366 31.1174,-336.1727 32.752,-346.6407 38.9231,-343.3366"/>
</g>
<!-- Node115 -->
<g id="node8" class="node">
<title>Node115</title>
<g id="a_node8"><a xlink:href="d6/d8b/classpyclustering_1_1container_1_1cftree_1_1measurement__type.html" target="_top" xlink:title="Enumeration of measurement types for CF&#45;Tree. ">
<polygon fill="#ffffff" stroke="#000000" points="89,-377 89,-396 315,-396 315,-377 89,-377"/>
<text text-anchor="middle" x="202" y="-384" font-family="Helvetica,sans-Serif" font-size="10.00" fill="#000000">pyclustering.container.cftree.measurement_type</text>
</a>
</g>
</g>
<!-- Node108&#45;&gt;Node115 -->
<g id="edge7" class="edge">
<title>Node108&#45;&gt;Node115</title>
<path fill="none" stroke="#191970" d="M46.2893,-342.5558C58.0321,-351.2679 73.5955,-361.4616 89,-367.5 98.9089,-371.3842 109.6114,-374.4747 120.343,-376.9337"/>
<polygon fill="#191970" stroke="#191970" points="48.1813,-339.5957 38.1201,-336.2758 43.915,-345.1454 48.1813,-339.5957"/>
</g>
<!-- Node116 -->
<g id="node9" class="node">
<title>Node116</title>
<g id="a_node9"><a xlink:href="d8/d71/classpyclustering_1_1nnet_1_1cnn_1_1type__conn.html" target="_top" xlink:title="Enumeration of connection types for Chaotic Neural Network. ">
<polygon fill="#ffffff" stroke="#000000" points="123,-339 123,-358 281,-358 281,-339 123,-339"/>
<text text-anchor="middle" x="202" y="-346" font-family="Helvetica,sans-Serif" font-size="10.00" fill="#000000">pyclustering.nnet.cnn.type_conn</text>
</a>
</g>
</g>
<!-- Node108&#45;&gt;Node116 -->
<g id="edge8" class="edge">
<title>Node108&#45;&gt;Node116</title>
<path fill="none" stroke="#191970" d="M63.0815,-331.0857C81.3698,-333.3783 104.2155,-336.2421 126.0658,-338.9812"/>
<polygon fill="#191970" stroke="#191970" points="63.5124,-327.6124 53.1547,-329.8413 62.6416,-334.5581 63.5124,-327.6124"/>
</g>
<!-- Node117 -->
<g id="node10" class="node">
<title>Node117</title>
<g id="a_node10"><a xlink:href="d9/d7b/classpyclustering_1_1nnet_1_1conn__represent.html" target="_top" xlink:title="Enumerator of internal network connection representation between oscillators. ">
<polygon fill="#ffffff" stroke="#000000" points="144.5,-289.5 144.5,-319.5 259.5,-319.5 259.5,-289.5 144.5,-289.5"/>
<text text-anchor="start" x="152.5" y="-307.5" font-family="Helvetica,sans-Serif" font-size="10.00" fill="#000000">pyclustering.nnet.conn</text>
<text text-anchor="middle" x="202" y="-296.5" font-family="Helvetica,sans-Serif" font-size="10.00" fill="#000000">_represent</text>
</a>
</g>
</g>
<!-- Node108&#45;&gt;Node117 -->
<g id="edge9" class="edge">
<title>Node108&#45;&gt;Node117</title>
<path fill="none" stroke="#191970" d="M63.3471,-321.881C86.752,-318.947 117.5418,-315.0874 144.1605,-311.7505"/>
<polygon fill="#191970" stroke="#191970" points="62.6416,-318.4419 53.1547,-323.1587 63.5124,-325.3876 62.6416,-318.4419"/>
</g>
<!-- Node118 -->
<g id="node11" class="node">
<title>Node118</title>
<g id="a_node11"><a xlink:href="d7/d90/classpyclustering_1_1nnet_1_1conn__type.html" target="_top" xlink:title="Enumerator of connection types between oscillators. ">
<polygon fill="#ffffff" stroke="#000000" points="132.5,-251 132.5,-270 271.5,-270 271.5,-251 132.5,-251"/>
<text text-anchor="middle" x="202" y="-258" font-family="Helvetica,sans-Serif" font-size="10.00" fill="#000000">pyclustering.nnet.conn_type</text>
</a>
</g>
</g>
<!-- Node108&#45;&gt;Node118 -->
<g id="edge10" class="edge">
<title>Node108&#45;&gt;Node118</title>
<path fill="none" stroke="#191970" d="M44.3598,-309.8654C56.1624,-299.8035 72.458,-287.5882 89,-280.5 102.5513,-274.6933 117.7102,-270.5725 132.415,-267.648"/>
<polygon fill="#191970" stroke="#191970" points="41.7943,-307.4618 36.6205,-316.7074 46.4308,-312.7062 41.7943,-307.4618"/>
</g>
<!-- Node119 -->
<g id="node12" class="node">
<title>Node119</title>
<g id="a_node12"><a xlink:href="d2/d10/classpyclustering_1_1nnet_1_1initial__type.html" target="_top" xlink:title="Enumerator of types of oscillator output initialization. ">
<polygon fill="#ffffff" stroke="#000000" points="132,-213 132,-232 272,-232 272,-213 132,-213"/>
<text text-anchor="middle" x="202" y="-220" font-family="Helvetica,sans-Serif" font-size="10.00" fill="#000000">pyclustering.nnet.initial_type</text>
</a>
</g>
</g>
<!-- Node108&#45;&gt;Node119 -->
<g id="edge11" class="edge">
<title>Node108&#45;&gt;Node119</title>
<path fill="none" stroke="#191970" d="M34.9379,-307.6846C44.8831,-287.8309 63.3621,-257.278 89,-241.5 101.7913,-233.628 116.8664,-228.7466 131.7656,-225.7766"/>
<polygon fill="#191970" stroke="#191970" points="31.662,-306.4233 30.5224,-316.9567 37.982,-309.433 31.662,-306.4233"/>
</g>
<!-- Node120 -->
<g id="node13" class="node">
<title>Node120</title>
<g id="a_node13"><a xlink:href="d5/d6b/classpyclustering_1_1nnet_1_1solve__type.html" target="_top" xlink:title="Enumerator of solver types that are used for network simulation. ">
<polygon fill="#ffffff" stroke="#000000" points="131.5,-175 131.5,-194 272.5,-194 272.5,-175 131.5,-175"/>
<text text-anchor="middle" x="202" y="-182" font-family="Helvetica,sans-Serif" font-size="10.00" fill="#000000">pyclustering.nnet.solve_type</text>
</a>
</g>
</g>
<!-- Node108&#45;&gt;Node120 -->
<g id="edge12" class="edge">
<title>Node108&#45;&gt;Node120</title>
<path fill="none" stroke="#191970" d="M30.649,-306.8387C37.602,-279.0724 54.3898,-228.9274 89,-203.5 101.2644,-194.4896 116.2896,-189.1677 131.3304,-186.1343"/>
<polygon fill="#191970" stroke="#191970" points="27.1613,-306.386 28.3143,-316.9179 33.9807,-307.9657 27.1613,-306.386"/>
</g>
<!-- Node121 -->
<g id="node14" class="node">
<title>Node121</title>
<g id="a_node14"><a xlink:href="da/d42/classpyclustering_1_1nnet_1_1som_1_1type__conn.html" target="_top" xlink:title="Enumeration of connection types for SOM. ">
<polygon fill="#ffffff" stroke="#000000" points="121.5,-137 121.5,-156 282.5,-156 282.5,-137 121.5,-137"/>
<text text-anchor="middle" x="202" y="-144" font-family="Helvetica,sans-Serif" font-size="10.00" fill="#000000">pyclustering.nnet.som.type_conn</text>
</a>
</g>
</g>
<!-- Node108&#45;&gt;Node121 -->
<g id="edge13" class="edge">
<title>Node108&#45;&gt;Node121</title>
<path fill="none" stroke="#191970" d="M28.0937,-306.3625C31.9808,-271.7425 45.1385,-201.2269 89,-165.5 98.3316,-157.899 109.5638,-152.8295 121.2769,-149.5195"/>
<polygon fill="#191970" stroke="#191970" points="24.5802,-306.3342 27.0999,-316.625 31.5476,-307.009 24.5802,-306.3342"/>
</g>
<!-- Node122 -->
<g id="node15" class="node">
<title>Node122</title>
<g id="a_node15"><a xlink:href="df/d7b/classpyclustering_1_1nnet_1_1som_1_1type__init.html" target="_top" xlink:title="Enumeration of initialization types for SOM. ">
<polygon fill="#ffffff" stroke="#000000" points="126,-99 126,-118 278,-118 278,-99 126,-99"/>
<text text-anchor="middle" x="202" y="-106" font-family="Helvetica,sans-Serif" font-size="10.00" fill="#000000">pyclustering.nnet.som.type_init</text>
</a>
</g>
</g>
<!-- Node108&#45;&gt;Node122 -->
<g id="edge14" class="edge">
<title>Node108&#45;&gt;Node122</title>
<path fill="none" stroke="#191970" d="M30.0018,-306.8049C38.4756,-261.4162 61.4345,-151.5082 89,-127.5 99.351,-118.4848 112.3312,-112.9491 125.7715,-109.6721"/>
<polygon fill="#191970" stroke="#191970" points="26.5185,-306.3967 28.1655,-316.8628 33.4047,-307.654 26.5185,-306.3967"/>
</g>
<!-- Node123 -->
<g id="node16" class="node">
<title>Node123</title>
<g id="a_node16"><a xlink:href="dc/dee/classpyclustering_1_1utils_1_1graph_1_1type__graph__descr.html" target="_top" xlink:title="Enumeration of graph description. ">
<polygon fill="#ffffff" stroke="#000000" points="132.5,-49.5 132.5,-79.5 271.5,-79.5 271.5,-49.5 132.5,-49.5"/>
<text text-anchor="start" x="140.5" y="-67.5" font-family="Helvetica,sans-Serif" font-size="10.00" fill="#000000">pyclustering.utils.graph.type</text>
<text text-anchor="middle" x="202" y="-56.5" font-family="Helvetica,sans-Serif" font-size="10.00" fill="#000000">_graph_descr</text>
</a>
</g>
</g>
<!-- Node108&#45;&gt;Node123 -->
<g id="edge15" class="edge">
<title>Node108&#45;&gt;Node123</title>
<path fill="none" stroke="#191970" d="M29.064,-306.6764C36.1029,-255.3359 57.3329,-119.9217 89,-89.5 100.7365,-78.225 116.3588,-71.5822 132.2329,-67.7689"/>
<polygon fill="#191970" stroke="#191970" points="25.5665,-306.4253 27.712,-316.8006 32.5049,-307.3519 25.5665,-306.4253"/>
</g>
<!-- Node124 -->
<g id="node17" class="node">
<title>Node124</title>
<g id="a_node17"><a xlink:href="da/d3a/classpyclustering_1_1utils_1_1metric_1_1type__metric.html" target="_top" xlink:title="Enumeration of supported metrics in the module for distance calculation between two points...">
<polygon fill="#ffffff" stroke="#000000" points="131,-.5 131,-30.5 273,-30.5 273,-.5 131,-.5"/>
<text text-anchor="start" x="139" y="-18.5" font-family="Helvetica,sans-Serif" font-size="10.00" fill="#000000">pyclustering.utils.metric.type</text>
<text text-anchor="middle" x="202" y="-7.5" font-family="Helvetica,sans-Serif" font-size="10.00" fill="#000000">_metric</text>
</a>
</g>
</g>
<!-- Node108&#45;&gt;Node124 -->
<g id="edge16" class="edge">
<title>Node108&#45;&gt;Node124</title>
<path fill="none" stroke="#191970" d="M28.1091,-306.5626C33.2398,-248.0364 51.1452,-78.4527 89,-40.5 100.2094,-29.2616 115.2615,-22.5786 130.7172,-18.7098"/>
<polygon fill="#191970" stroke="#191970" points="24.6058,-306.4559 27.2512,-316.7151 31.5809,-307.0454 24.6058,-306.4559"/>
</g>
</g>
</svg>
