<?xml version="1.0" encoding="UTF-8" standalone="no"?>
<!DOCTYPE svg PUBLIC "-//W3C//DTD SVG 1.1//EN"
 "http://www.w3.org/Graphics/SVG/1.1/DTD/svg11.dtd">
<!-- Generated by graphviz version 2.43.0 (0)
 -->
<!-- Title: pyclustering.nnet.syncpr.syncpr Pages: 1 -->
<svg width="179pt" height="151pt"
 viewBox="0.00 0.00 179.00 151.00" xmlns="http://www.w3.org/2000/svg" xmlns:xlink="http://www.w3.org/1999/xlink">
<g id="graph0" class="graph" transform="scale(1 1) rotate(0) translate(4 147)">
<title>pyclustering.nnet.syncpr.syncpr</title>
<polygon fill="white" stroke="transparent" points="-4,4 -4,-147 175,-147 175,4 -4,4"/>
<!-- Node1 -->
<g id="node1" class="node">
<title>Node1</title>
<g id="a_node1"><a xlink:title="Model of phase oscillatory network for pattern recognition that is based on the Kuramoto model.">
<polygon fill="#bfbfbf" stroke="black" points="0,-0.5 0,-19.5 171,-19.5 171,-0.5 0,-0.5"/>
<text text-anchor="middle" x="85.5" y="-7.5" font-family="Helvetica,sans-Serif" font-size="10.00">pyclustering.nnet.syncpr.syncpr</text>
</a>
</g>
</g>
<!-- Node2 -->
<g id="node2" class="node">
<title>Node2</title>
<g id="a_node2"><a xlink:href="../../db/de3/classpyclustering_1_1nnet_1_1sync_1_1sync__network.html" target="_top" xlink:title="Model of oscillatory network that is based on the Kuramoto model of synchronization.">
<polygon fill="white" stroke="black" points="9.5,-56.5 9.5,-86.5 161.5,-86.5 161.5,-56.5 9.5,-56.5"/>
<text text-anchor="start" x="17.5" y="-74.5" font-family="Helvetica,sans-Serif" font-size="10.00">pyclustering.nnet.sync.sync</text>
<text text-anchor="middle" x="85.5" y="-63.5" font-family="Helvetica,sans-Serif" font-size="10.00">_network</text>
</a>
</g>
</g>
<!-- Node2&#45;&gt;Node1 -->
<g id="edge1" class="edge">
<title>Node2&#45;&gt;Node1</title>
<path fill="none" stroke="midnightblue" d="M85.5,-46.29C85.5,-36.86 85.5,-26.65 85.5,-19.66"/>
<polygon fill="midnightblue" stroke="midnightblue" points="82,-46.4 85.5,-56.4 89,-46.4 82,-46.4"/>
</g>
<!-- Node3 -->
<g id="node3" class="node">
<title>Node3</title>
<g id="a_node3"><a xlink:href="../../d5/d9f/classpyclustering_1_1nnet_1_1network.html" target="_top" xlink:title="Common network description that consists of information about oscillators and connection between them...">
<polygon fill="white" stroke="black" points="13.5,-123.5 13.5,-142.5 157.5,-142.5 157.5,-123.5 13.5,-123.5"/>
<text text-anchor="middle" x="85.5" y="-130.5" font-family="Helvetica,sans-Serif" font-size="10.00">pyclustering.nnet.network</text>
</a>
</g>
</g>
<!-- Node3&#45;&gt;Node2 -->
<g id="edge2" class="edge">
<title>Node3&#45;&gt;Node2</title>
<path fill="none" stroke="midnightblue" d="M85.5,-113.23C85.5,-104.59 85.5,-94.5 85.5,-86.52"/>
<polygon fill="midnightblue" stroke="midnightblue" points="82,-113.48 85.5,-123.48 89,-113.48 82,-113.48"/>
</g>
</g>
</svg>
