<?xml version="1.0" encoding="UTF-8" standalone="no"?>
<!DOCTYPE svg PUBLIC "-//W3C//DTD SVG 1.1//EN"
 "http://www.w3.org/Graphics/SVG/1.1/DTD/svg11.dtd">
<!-- Generated by graphviz version 2.40.1 (20161225.0304)
 -->
<!-- Title: pyclustering.nnet.network Pages: 1 -->
<!--zoomable 317 -->
<svg id="main" version="1.1" xmlns="http://www.w3.org/2000/svg" xmlns:xlink="http://www.w3.org/1999/xlink" xml:space="preserve" onload="init(evt)">
<style type="text/css"><![CDATA[
.edge:hover path { stroke: red; }
.edge:hover polygon { stroke: red; fill: red; }
]]></style>
<script type="text/javascript"><![CDATA[
var edges = document.getElementsByTagName('g');
if (edges && edges.length) {
  for (var i=0;i<edges.length;i++) {
    if (edges[i].id.substr(0,4)=='edge') {
      edges[i].setAttribute('class','edge');
    }
  }
}
]]></script>
        <defs>
                <circle id="rim" cx="0" cy="0" r="7"/>
                <circle id="rim2" cx="0" cy="0" r="3.5"/>
                <g id="zoomPlus">
                        <use xlink:href="#rim" fill="#404040">
                                <set attributeName="fill" to="#808080" begin="zoomplus.mouseover" end="zoomplus.mouseout"/>
                        </use>
                        <path d="M-4,0h8M0,-4v8" fill="none" stroke="white" stroke-width="1.5" pointer-events="none"/>
                </g>
                <g id="zoomMin">
                        <use xlink:href="#rim" fill="#404040">
                                <set attributeName="fill" to="#808080" begin="zoomminus.mouseover" end="zoomminus.mouseout"/>
                        </use>
                        <path d="M-4,0h8" fill="none" stroke="white" stroke-width="1.5" pointer-events="none"/>
                </g>
                <g id="dirArrow">
                        <path fill="none" stroke="white" stroke-width="1.5" d="M0,-3.0v7 M-2.5,-0.5L0,-3.0L2.5,-0.5"/>
                </g>
               <g id="resetDef">
                       <use xlink:href="#rim2" fill="#404040">
                               <set attributeName="fill" to="#808080" begin="reset.mouseover" end="reset.mouseout"/>
                       </use>
               </g>
        </defs>

<script type="text/javascript">
var viewWidth = 837;
var viewHeight = 317;
var sectionId = 'dynsection-0';
</script>
<script xlink:href="../../svgpan.js"/>
<svg id="graph" class="graph">
<g id="viewport">
<title>pyclustering.nnet.network</title>
<polygon fill="#ffffff" stroke="transparent" points="-4,4 -4,-312.5 833,-312.5 833,4 -4,4"/>
<!-- Node0 -->
<g id="node1" class="node">
<title>Node0</title>
<polygon fill="#bfbfbf" stroke="#000000" points="0,-160.5 0,-179.5 128,-179.5 128,-160.5 0,-160.5"/>
<text text-anchor="middle" x="64" y="-167.5" font-family="Helvetica,sans-Serif" font-size="10.00" fill="#000000">pyclustering.nnet.network</text>
</g>
<!-- Node1 -->
<g id="node2" class="node">
<title>Node1</title>
<g id="a_node2"><a xlink:href="../../dc/d73/classpyclustering_1_1nnet_1_1fsync_1_1fsync__network.html" target="_top" xlink:title="Model of oscillatory network that uses Landau&#45;Stuart oscillator and Kuramoto model as a synchronizati...">
<polygon fill="#ffffff" stroke="#000000" points="186,-278 186,-308 329,-308 329,-278 186,-278"/>
<text text-anchor="start" x="194" y="-296" font-family="Helvetica,sans-Serif" font-size="10.00" fill="#000000">pyclustering.nnet.fsync.fsync</text>
<text text-anchor="middle" x="257.5" y="-285" font-family="Helvetica,sans-Serif" font-size="10.00" fill="#000000">_network</text>
</a>
</g>
</g>
<!-- Node0&#45;&gt;Node1 -->
<g id="edge1" class="edge">
<title>Node0&#45;&gt;Node1</title>
<path fill="none" stroke="#191970" d="M76.8512,-187.5446C94.1464,-209.8703 127.041,-248.0435 164,-269 170.8518,-272.8851 178.3393,-276.1526 185.9981,-278.8984"/>
<polygon fill="#191970" stroke="#191970" points="79.6408,-185.4308 70.8154,-179.5689 74.0591,-189.655 79.6408,-185.4308"/>
</g>
<!-- Node2 -->
<g id="node3" class="node">
<title>Node2</title>
<g id="a_node3"><a xlink:href="../../de/dec/classpyclustering_1_1nnet_1_1hhn_1_1hhn__network.html" target="_top" xlink:title="Oscillatory Neural Network with central element based on Hodgkin&#45;Huxley neuron model. ">
<polygon fill="#ffffff" stroke="#000000" points="193.5,-229 193.5,-259 321.5,-259 321.5,-229 193.5,-229"/>
<text text-anchor="start" x="201.5" y="-247" font-family="Helvetica,sans-Serif" font-size="10.00" fill="#000000">pyclustering.nnet.hhn.hhn</text>
<text text-anchor="middle" x="257.5" y="-236" font-family="Helvetica,sans-Serif" font-size="10.00" fill="#000000">_network</text>
</a>
</g>
</g>
<!-- Node0&#45;&gt;Node2 -->
<g id="edge2" class="edge">
<title>Node0&#45;&gt;Node2</title>
<path fill="none" stroke="#191970" d="M89.4838,-184.6361C109.3005,-195.5464 137.7477,-210.1948 164,-220 173.3412,-223.4889 183.3911,-226.6525 193.3156,-229.4536"/>
<polygon fill="#191970" stroke="#191970" points="90.9339,-181.4372 80.4964,-179.6181 87.5214,-187.549 90.9339,-181.4372"/>
</g>
<!-- Node3 -->
<g id="node4" class="node">
<title>Node3</title>
<g id="a_node4"><a xlink:href="../../dd/dea/classpyclustering_1_1nnet_1_1hysteresis_1_1hysteresis__network.html" target="_top" xlink:title="Hysteresis oscillatory network that uses relaxation oscillators that are represented by objective hys...">
<polygon fill="#ffffff" stroke="#000000" points="164,-180 164,-210 351,-210 351,-180 164,-180"/>
<text text-anchor="start" x="172" y="-198" font-family="Helvetica,sans-Serif" font-size="10.00" fill="#000000">pyclustering.nnet.hysteresis.hysteresis</text>
<text text-anchor="middle" x="257.5" y="-187" font-family="Helvetica,sans-Serif" font-size="10.00" fill="#000000">_network</text>
</a>
</g>
</g>
<!-- Node0&#45;&gt;Node3 -->
<g id="edge3" class="edge">
<title>Node0&#45;&gt;Node3</title>
<path fill="none" stroke="#191970" d="M138.24,-179.5917C146.6123,-180.6734 155.2227,-181.7859 163.801,-182.8942"/>
<polygon fill="#191970" stroke="#191970" points="138.53,-176.1002 128.1639,-178.2899 137.633,-183.0425 138.53,-176.1002"/>
</g>
<!-- Node5 -->
<g id="node6" class="node">
<title>Node5</title>
<g id="a_node6"><a xlink:href="../../d4/dc2/classpyclustering_1_1nnet_1_1legion_1_1legion__network.html" target="_top" xlink:title="Local excitatory global inhibitory oscillatory network (LEGION) that uses relaxation oscillator based...">
<polygon fill="#ffffff" stroke="#000000" points="183.5,-131 183.5,-161 331.5,-161 331.5,-131 183.5,-131"/>
<text text-anchor="start" x="191.5" y="-149" font-family="Helvetica,sans-Serif" font-size="10.00" fill="#000000">pyclustering.nnet.legion.legion</text>
<text text-anchor="middle" x="257.5" y="-138" font-family="Helvetica,sans-Serif" font-size="10.00" fill="#000000">_network</text>
</a>
</g>
</g>
<!-- Node0&#45;&gt;Node5 -->
<g id="edge5" class="edge">
<title>Node0&#45;&gt;Node5</title>
<path fill="none" stroke="#191970" d="M138.2825,-160.7867C153.0964,-158.9493 168.6542,-157.0196 183.4599,-155.1833"/>
<polygon fill="#191970" stroke="#191970" points="137.657,-157.3373 128.1639,-162.0417 138.5187,-164.2841 137.657,-157.3373"/>
</g>
<!-- Node6 -->
<g id="node7" class="node">
<title>Node6</title>
<g id="a_node7"><a xlink:href="../../d0/da2/classpyclustering_1_1nnet_1_1pcnn_1_1pcnn__network.html" target="_top" xlink:title="Model of oscillatory network that is based on the Eckhorn model. ">
<polygon fill="#ffffff" stroke="#000000" points="188,-82 188,-112 327,-112 327,-82 188,-82"/>
<text text-anchor="start" x="196" y="-100" font-family="Helvetica,sans-Serif" font-size="10.00" fill="#000000">pyclustering.nnet.pcnn.pcnn</text>
<text text-anchor="middle" x="257.5" y="-89" font-family="Helvetica,sans-Serif" font-size="10.00" fill="#000000">_network</text>
</a>
</g>
</g>
<!-- Node0&#45;&gt;Node6 -->
<g id="edge6" class="edge">
<title>Node0&#45;&gt;Node6</title>
<path fill="none" stroke="#191970" d="M90.2981,-155.7105C110.1324,-145.3472 138.2351,-131.5334 164,-122 173.8492,-118.3556 184.4622,-115.0006 194.8791,-112.0109"/>
<polygon fill="#191970" stroke="#191970" points="88.4736,-152.716 81.2719,-160.4868 91.7477,-158.9032 88.4736,-152.716"/>
</g>
<!-- Node7 -->
<g id="node8" class="node">
<title>Node7</title>
<g id="a_node8"><a xlink:href="../../db/de3/classpyclustering_1_1nnet_1_1sync_1_1sync__network.html" target="_top" xlink:title="Model of oscillatory network that is based on the Kuramoto model of synchronization. ">
<polygon fill="#ffffff" stroke="#000000" points="188,-33 188,-63 327,-63 327,-33 188,-33"/>
<text text-anchor="start" x="196" y="-51" font-family="Helvetica,sans-Serif" font-size="10.00" fill="#000000">pyclustering.nnet.sync.sync</text>
<text text-anchor="middle" x="257.5" y="-40" font-family="Helvetica,sans-Serif" font-size="10.00" fill="#000000">_network</text>
</a>
</g>
</g>
<!-- Node0&#45;&gt;Node7 -->
<g id="edge7" class="edge">
<title>Node0&#45;&gt;Node7</title>
<path fill="none" stroke="#191970" d="M77.4635,-152.2508C95.0073,-130.3646 127.7535,-93.5478 164,-73 171.4549,-68.7739 179.6503,-65.2394 187.9954,-62.2887"/>
<polygon fill="#191970" stroke="#191970" points="74.5188,-150.3343 71.1084,-160.3653 80.0298,-154.6505 74.5188,-150.3343"/>
</g>
<!-- Node4 -->
<g id="node5" class="node">
<title>Node4</title>
<g id="a_node5"><a xlink:href="../../df/df9/classpyclustering_1_1gcolor_1_1hysteresis_1_1hysteresisgcolor.html" target="_top" xlink:title="Class represents graph coloring algorithm based on hysteresis oscillatory network. ">
<polygon fill="#ffffff" stroke="#000000" points="387,-185.5 387,-204.5 607,-204.5 607,-185.5 387,-185.5"/>
<text text-anchor="middle" x="497" y="-192.5" font-family="Helvetica,sans-Serif" font-size="10.00" fill="#000000">pyclustering.gcolor.hysteresis.hysteresisgcolor</text>
</a>
</g>
</g>
<!-- Node3&#45;&gt;Node4 -->
<g id="edge4" class="edge">
<title>Node3&#45;&gt;Node4</title>
<path fill="none" stroke="#191970" d="M361.3275,-195C369.7438,-195 378.267,-195 386.7266,-195"/>
<polygon fill="#191970" stroke="#191970" points="361.126,-191.5001 351.1259,-195 361.1259,-198.5001 361.126,-191.5001"/>
</g>
<!-- Node8 -->
<g id="node9" class="node">
<title>Node8</title>
<g id="a_node9"><a xlink:href="../../d4/d98/classpyclustering_1_1cluster_1_1syncnet_1_1syncnet.html" target="_top" xlink:title="Class represents clustering algorithm SyncNet. ">
<polygon fill="#ffffff" stroke="#000000" points="409,-76.5 409,-95.5 585,-95.5 585,-76.5 409,-76.5"/>
<text text-anchor="middle" x="497" y="-83.5" font-family="Helvetica,sans-Serif" font-size="10.00" fill="#000000">pyclustering.cluster.syncnet.syncnet</text>
</a>
</g>
</g>
<!-- Node7&#45;&gt;Node8 -->
<g id="edge8" class="edge">
<title>Node7&#45;&gt;Node8</title>
<path fill="none" stroke="#191970" d="M337.053,-60.6222C369.6453,-65.7934 406.7315,-71.6776 436.9817,-76.4773"/>
<polygon fill="#191970" stroke="#191970" points="337.52,-57.1526 327.095,-59.0422 336.423,-64.0661 337.52,-57.1526"/>
</g>
<!-- Node10 -->
<g id="node11" class="node">
<title>Node10</title>
<g id="a_node11"><a xlink:href="../../d5/d98/classpyclustering_1_1gcolor_1_1sync_1_1syncgcolor.html" target="_top" xlink:title="Oscillatory network based on Kuramoto model with negative and positive connections for graph coloring...">
<polygon fill="#ffffff" stroke="#000000" points="411,-38.5 411,-57.5 583,-57.5 583,-38.5 411,-38.5"/>
<text text-anchor="middle" x="497" y="-45.5" font-family="Helvetica,sans-Serif" font-size="10.00" fill="#000000">pyclustering.gcolor.sync.syncgcolor</text>
</a>
</g>
</g>
<!-- Node7&#45;&gt;Node10 -->
<g id="edge10" class="edge">
<title>Node7&#45;&gt;Node10</title>
<path fill="none" stroke="#191970" d="M337.3693,-48C360.886,-48 386.7193,-48 410.6242,-48"/>
<polygon fill="#191970" stroke="#191970" points="337.0951,-44.5001 327.095,-48 337.095,-51.5001 337.0951,-44.5001"/>
</g>
<!-- Node11 -->
<g id="node12" class="node">
<title>Node11</title>
<g id="a_node12"><a xlink:href="../../d8/d08/classpyclustering_1_1nnet_1_1syncpr_1_1syncpr.html" target="_top" xlink:title="Model of phase oscillatory network for pattern recognition that is based on the Kuramoto model...">
<polygon fill="#ffffff" stroke="#000000" points="419.5,-.5 419.5,-19.5 574.5,-19.5 574.5,-.5 419.5,-.5"/>
<text text-anchor="middle" x="497" y="-7.5" font-family="Helvetica,sans-Serif" font-size="10.00" fill="#000000">pyclustering.nnet.syncpr.syncpr</text>
</a>
</g>
</g>
<!-- Node7&#45;&gt;Node11 -->
<g id="edge11" class="edge">
<title>Node7&#45;&gt;Node11</title>
<path fill="none" stroke="#191970" d="M337.053,-35.3778C369.6453,-30.2066 406.7315,-24.3224 436.9817,-19.5227"/>
<polygon fill="#191970" stroke="#191970" points="336.423,-31.9339 327.095,-36.9578 337.52,-38.8474 336.423,-31.9339"/>
</g>
<!-- Node9 -->
<g id="node10" class="node">
<title>Node9</title>
<g id="a_node10"><a xlink:href="../../d5/d0a/classpyclustering_1_1cluster_1_1hsyncnet_1_1hsyncnet.html" target="_top" xlink:title="Class represents clustering algorithm HSyncNet. ">
<polygon fill="#ffffff" stroke="#000000" points="643,-76.5 643,-95.5 829,-95.5 829,-76.5 643,-76.5"/>
<text text-anchor="middle" x="736" y="-83.5" font-family="Helvetica,sans-Serif" font-size="10.00" fill="#000000">pyclustering.cluster.hsyncnet.hsyncnet</text>
</a>
</g>
</g>
<!-- Node8&#45;&gt;Node9 -->
<g id="edge9" class="edge">
<title>Node8&#45;&gt;Node9</title>
<path fill="none" stroke="#191970" d="M595.5176,-86C611.1687,-86 627.3156,-86 642.8384,-86"/>
<polygon fill="#191970" stroke="#191970" points="595.3158,-82.5001 585.3157,-86 595.3157,-89.5001 595.3158,-82.5001"/>
</g>
</g>
</svg>
        <g id="navigator" transform="translate(0 0)" fill="#404254">
                <rect fill="#f2f5e9" fill-opacity="0.5" stroke="#606060" stroke-width=".5" x="0" y="0" width="60" height="60"/>
                <use id="zoomplus" xlink:href="#zoomPlus" x="17" y="9" onmousedown="handleZoom(evt,'in')"/>
                <use id="zoomminus" xlink:href="#zoomMin" x="42" y="9" onmousedown="handleZoom(evt,'out')"/>
                <use id="reset" xlink:href="#resetDef" x="30" y="36" onmousedown="handleReset()"/>
                <g id="arrowUp" xlink:href="#dirArrow" transform="translate(30 24)" onmousedown="handlePan(0,-1)">
                  <use xlink:href="#rim" fill="#404040">
                        <set attributeName="fill" to="#808080" begin="arrowUp.mouseover" end="arrowUp.mouseout"/>
                  </use>
                  <path fill="none" stroke="white" stroke-width="1.5" d="M0,-3.0v7 M-2.5,-0.5L0,-3.0L2.5,-0.5"/>
                </g>
                <g id="arrowRight" xlink:href="#dirArrow" transform="rotate(90) translate(36 -43)" onmousedown="handlePan(1,0)">
                  <use xlink:href="#rim" fill="#404040">
                        <set attributeName="fill" to="#808080" begin="arrowRight.mouseover" end="arrowRight.mouseout"/>
                  </use>
                  <path fill="none" stroke="white" stroke-width="1.5" d="M0,-3.0v7 M-2.5,-0.5L0,-3.0L2.5,-0.5"/>
                </g>
                <g id="arrowDown" xlink:href="#dirArrow" transform="rotate(180) translate(-30 -48)" onmousedown="handlePan(0,1)">
                  <use xlink:href="#rim" fill="#404040">
                        <set attributeName="fill" to="#808080" begin="arrowDown.mouseover" end="arrowDown.mouseout"/>
                  </use>
                  <path fill="none" stroke="white" stroke-width="1.5" d="M0,-3.0v7 M-2.5,-0.5L0,-3.0L2.5,-0.5"/>
                </g>
                <g id="arrowLeft" xlink:href="#dirArrow" transform="rotate(270) translate(-36 17)" onmousedown="handlePan(-1,0)">
                  <use xlink:href="#rim" fill="#404040">
                        <set attributeName="fill" to="#808080" begin="arrowLeft.mouseover" end="arrowLeft.mouseout"/>
                  </use>
                  <path fill="none" stroke="white" stroke-width="1.5" d="M0,-3.0v7 M-2.5,-0.5L0,-3.0L2.5,-0.5"/>
                </g>
        </g>
        <svg viewBox="0 0 15 15" width="100%" height="30px" preserveAspectRatio="xMaxYMin meet">
         <g id="arrow_out" transform="scale(0.3 0.3)">
          <a xlink:href="classpyclustering_1_1nnet_1_1network__inherit__graph_org.svg" target="_base">
           <rect id="button" ry="5" rx="5" y="6" x="6" height="38" width="38"
                fill="#f2f5e9" fill-opacity="0.5" stroke="#606060" stroke-width="1.0"/>
           <path id="arrow"
             d="M 11.500037,31.436501 C 11.940474,20.09759 22.043105,11.32322 32.158766,21.979434 L 37.068811,17.246167 C 37.068811,17.246167 37.088388,32 37.088388,32 L 22.160133,31.978069 C 22.160133,31.978069 26.997745,27.140456 26.997745,27.140456 C 18.528582,18.264221 13.291696,25.230495 11.500037,31.436501 z"
             style="fill:#404040;"/>
          </a>
         </g>
        </svg>
</svg>
