<?xml version="1.0" encoding="UTF-8" standalone="no"?>
<!DOCTYPE svg PUBLIC "-//W3C//DTD SVG 1.1//EN"
 "http://www.w3.org/Graphics/SVG/1.1/DTD/svg11.dtd">
<!-- Generated by graphviz version 2.43.0 (0)
 -->
<!-- Title: pyclustering.container.cftree.cfnode Pages: 1 -->
<svg width="441pt" height="78pt"
 viewBox="0.00 0.00 441.00 77.50" xmlns="http://www.w3.org/2000/svg" xmlns:xlink="http://www.w3.org/1999/xlink">
<g id="graph0" class="graph" transform="scale(1 1) rotate(0) translate(4 73.5)">
<title>pyclustering.container.cftree.cfnode</title>
<polygon fill="white" stroke="transparent" points="-4,4 -4,-73.5 437,-73.5 437,4 -4,4"/>
<!-- Node1 -->
<g id="node1" class="node">
<title>Node1</title>
<g id="a_node1"><a xlink:title="Representation of node of CF&#45;Tree.">
<polygon fill="#bfbfbf" stroke="black" points="0,-28 0,-47 191,-47 191,-28 0,-28"/>
<text text-anchor="middle" x="95.5" y="-35" font-family="Helvetica,sans-Serif" font-size="10.00">pyclustering.container.cftree.cfnode</text>
</a>
</g>
</g>
<!-- Node2 -->
<g id="node2" class="node">
<title>Node2</title>
<g id="a_node2"><a xlink:href="../../d2/d65/classpyclustering_1_1container_1_1cftree_1_1leaf__node.html" target="_top" xlink:title="Represents clustering feature leaf node.">
<polygon fill="white" stroke="black" points="227,-50 227,-69 433,-69 433,-50 227,-50"/>
<text text-anchor="middle" x="330" y="-57" font-family="Helvetica,sans-Serif" font-size="10.00">pyclustering.container.cftree.leaf_node</text>
</a>
</g>
</g>
<!-- Node1&#45;&gt;Node2 -->
<g id="edge1" class="edge">
<title>Node1&#45;&gt;Node2</title>
<path fill="none" stroke="midnightblue" d="M201.24,-47.41C210.29,-48.27 219.44,-49.13 228.46,-49.99"/>
<polygon fill="midnightblue" stroke="midnightblue" points="201.35,-43.91 191.07,-46.45 200.69,-50.87 201.35,-43.91"/>
</g>
<!-- Node3 -->
<g id="node3" class="node">
<title>Node3</title>
<g id="a_node3"><a xlink:href="../../d7/d25/classpyclustering_1_1container_1_1cftree_1_1non__leaf__node.html" target="_top" xlink:title="Representation of clustering feature non&#45;leaf node.">
<polygon fill="white" stroke="black" points="242,-0.5 242,-30.5 418,-30.5 418,-0.5 242,-0.5"/>
<text text-anchor="start" x="250" y="-18.5" font-family="Helvetica,sans-Serif" font-size="10.00">pyclustering.container.cftree.non</text>
<text text-anchor="middle" x="330" y="-7.5" font-family="Helvetica,sans-Serif" font-size="10.00">_leaf_node</text>
</a>
</g>
</g>
<!-- Node1&#45;&gt;Node3 -->
<g id="edge2" class="edge">
<title>Node1&#45;&gt;Node3</title>
<path fill="none" stroke="midnightblue" d="M201.32,-27.58C214.8,-26.31 228.48,-25.01 241.64,-23.77"/>
<polygon fill="midnightblue" stroke="midnightblue" points="200.69,-24.13 191.07,-28.55 201.35,-31.09 200.69,-24.13"/>
</g>
</g>
</svg>
