<?xml version="1.0" encoding="UTF-8" standalone="no"?>
<!DOCTYPE svg PUBLIC "-//W3C//DTD SVG 1.1//EN"
 "http://www.w3.org/Graphics/SVG/1.1/DTD/svg11.dtd">
<!-- Generated by graphviz version 2.43.0 (0)
 -->
<!-- Title: pyclustering.cluster.bsas.bsas Pages: 1 -->
<svg width="374pt" height="84pt"
 viewBox="0.00 0.00 374.00 84.00" xmlns="http://www.w3.org/2000/svg" xmlns:xlink="http://www.w3.org/1999/xlink">
<g id="graph0" class="graph" transform="scale(1 1) rotate(0) translate(4 80)">
<title>pyclustering.cluster.bsas.bsas</title>
<polygon fill="white" stroke="transparent" points="-4,4 -4,-80 370,-80 370,4 -4,4"/>
<!-- Node1 -->
<g id="node1" class="node">
<title>Node1</title>
<g id="a_node1"><a xlink:title="Class represents BSAS clustering algorithm &#45; basic sequential algorithmic scheme.">
<polygon fill="#bfbfbf" stroke="black" points="105.5,-56.5 105.5,-75.5 268.5,-75.5 268.5,-56.5 105.5,-56.5"/>
<text text-anchor="middle" x="187" y="-63.5" font-family="Helvetica,sans-Serif" font-size="10.00">pyclustering.cluster.bsas.bsas</text>
</a>
</g>
</g>
<!-- Node2 -->
<g id="node2" class="node">
<title>Node2</title>
<g id="a_node2"><a xlink:href="../../da/da9/classpyclustering_1_1cluster_1_1mbsas_1_1mbsas.html" target="_top" xlink:title="Class represents MBSAS (Modified Basic Sequential Algorithmic Scheme).">
<polygon fill="white" stroke="black" points="0,-0.5 0,-19.5 182,-19.5 182,-0.5 0,-0.5"/>
<text text-anchor="middle" x="91" y="-7.5" font-family="Helvetica,sans-Serif" font-size="10.00">pyclustering.cluster.mbsas.mbsas</text>
</a>
</g>
</g>
<!-- Node1&#45;&gt;Node2 -->
<g id="edge1" class="edge">
<title>Node1&#45;&gt;Node2</title>
<path fill="none" stroke="midnightblue" d="M162.43,-51.18C144.76,-41.24 121.49,-28.15 106.39,-19.65"/>
<polygon fill="midnightblue" stroke="midnightblue" points="161.14,-54.47 171.58,-56.32 164.58,-48.37 161.14,-54.47"/>
</g>
<!-- Node3 -->
<g id="node3" class="node">
<title>Node3</title>
<g id="a_node3"><a xlink:href="../../df/db9/classpyclustering_1_1cluster_1_1ttsas_1_1ttsas.html" target="_top" xlink:title="Class represents TTSAS (Two&#45;Threshold Sequential Algorithmic Scheme).">
<polygon fill="white" stroke="black" points="200,-0.5 200,-19.5 366,-19.5 366,-0.5 200,-0.5"/>
<text text-anchor="middle" x="283" y="-7.5" font-family="Helvetica,sans-Serif" font-size="10.00">pyclustering.cluster.ttsas.ttsas</text>
</a>
</g>
</g>
<!-- Node1&#45;&gt;Node3 -->
<g id="edge2" class="edge">
<title>Node1&#45;&gt;Node3</title>
<path fill="none" stroke="midnightblue" d="M211.57,-51.18C229.24,-41.24 252.51,-28.15 267.61,-19.65"/>
<polygon fill="midnightblue" stroke="midnightblue" points="209.42,-48.37 202.42,-56.32 212.86,-54.47 209.42,-48.37"/>
</g>
</g>
</svg>
