<?xml version="1.0" encoding="UTF-8" standalone="no"?>
<!DOCTYPE svg PUBLIC "-//W3C//DTD SVG 1.1//EN"
 "http://www.w3.org/Graphics/SVG/1.1/DTD/svg11.dtd">
<!-- Generated by graphviz version 2.40.1 (20161225.0304)
 -->
<!-- Title: pyclustering.container.cftree.cfnode Pages: 1 -->
<svg width="396pt" height="78pt"
 viewBox="0.00 0.00 396.00 77.50" xmlns="http://www.w3.org/2000/svg" xmlns:xlink="http://www.w3.org/1999/xlink">
<g id="graph0" class="graph" transform="scale(1 1) rotate(0) translate(4 73.5)">
<title>pyclustering.container.cftree.cfnode</title>
<polygon fill="#ffffff" stroke="transparent" points="-4,4 -4,-73.5 392,-73.5 392,4 -4,4"/>
<!-- Node0 -->
<g id="node1" class="node">
<title>Node0</title>
<polygon fill="#bfbfbf" stroke="#000000" points="0,-28 0,-47 170,-47 170,-28 0,-28"/>
<text text-anchor="middle" x="85" y="-35" font-family="Helvetica,sans-Serif" font-size="10.00" fill="#000000">pyclustering.container.cftree.cfnode</text>
</g>
<!-- Node1 -->
<g id="node2" class="node">
<title>Node1</title>
<g id="a_node2"><a xlink:href="../../d2/d65/classpyclustering_1_1container_1_1cftree_1_1leaf__node.html" target="_top" xlink:title="Represents clustering feature leaf node. ">
<polygon fill="#ffffff" stroke="#000000" points="206,-50 206,-69 388,-69 388,-50 206,-50"/>
<text text-anchor="middle" x="297" y="-57" font-family="Helvetica,sans-Serif" font-size="10.00" fill="#000000">pyclustering.container.cftree.leaf_node</text>
</a>
</g>
</g>
<!-- Node0&#45;&gt;Node1 -->
<g id="edge1" class="edge">
<title>Node0&#45;&gt;Node1</title>
<path fill="none" stroke="#191970" d="M179.9925,-47.3577C188.5481,-48.2456 197.2003,-49.1434 205.7231,-50.0279"/>
<polygon fill="#191970" stroke="#191970" points="180.3149,-43.8725 170.007,-46.3215 179.5923,-50.8351 180.3149,-43.8725"/>
</g>
<!-- Node2 -->
<g id="node3" class="node">
<title>Node2</title>
<g id="a_node3"><a xlink:href="../../d7/d25/classpyclustering_1_1container_1_1cftree_1_1non__leaf__node.html" target="_top" xlink:title="Representation of clustering feature non&#45;leaf node. ">
<polygon fill="#ffffff" stroke="#000000" points="218.5,-.5 218.5,-30.5 375.5,-30.5 375.5,-.5 218.5,-.5"/>
<text text-anchor="start" x="226.5" y="-18.5" font-family="Helvetica,sans-Serif" font-size="10.00" fill="#000000">pyclustering.container.cftree.non</text>
<text text-anchor="middle" x="297" y="-7.5" font-family="Helvetica,sans-Serif" font-size="10.00" fill="#000000">_leaf_node</text>
</a>
</g>
</g>
<!-- Node0&#45;&gt;Node2 -->
<g id="edge2" class="edge">
<title>Node0&#45;&gt;Node2</title>
<path fill="none" stroke="#191970" d="M180.2141,-27.6193C193.0162,-26.2908 206.0303,-24.9403 218.4991,-23.6463"/>
<polygon fill="#191970" stroke="#191970" points="179.5923,-24.1649 170.007,-28.6785 180.3149,-31.1275 179.5923,-24.1649"/>
</g>
</g>
</svg>
