<?xml version="1.0" encoding="UTF-8" standalone="no"?>
<!DOCTYPE svg PUBLIC "-//W3C//DTD SVG 1.1//EN"
 "http://www.w3.org/Graphics/SVG/1.1/DTD/svg11.dtd">
<!-- Generated by graphviz version 2.40.1 (20161225.0304)
 -->
<!-- Title: Graphical Class Hierarchy Pages: 1 -->
<svg width="322pt" height="667pt"
 viewBox="0.00 0.00 322.00 666.50" xmlns="http://www.w3.org/2000/svg" xmlns:xlink="http://www.w3.org/1999/xlink">
<g id="graph0" class="graph" transform="scale(1 1) rotate(0) translate(4 662.5)">
<title>Graphical Class Hierarchy</title>
<polygon fill="#ffffff" stroke="transparent" points="-4,4 -4,-662.5 318,-662.5 318,4 -4,4"/>
<!-- Node109 -->
<g id="node1" class="node">
<title>Node109</title>
<polygon fill="#ffffff" stroke="#bfbfbf" points="0,-317 0,-336 53,-336 53,-317 0,-317"/>
<text text-anchor="middle" x="26.5" y="-324" font-family="Helvetica,sans-Serif" font-size="10.00" fill="#000000">IntEnum</text>
</g>
<!-- Node0 -->
<g id="node2" class="node">
<title>Node0</title>
<g id="a_node2"><a xlink:href="d5/d58/classpyclustering_1_1cluster_1_1agglomerative_1_1type__link.html" target="_top" xlink:title="Enumerator of types of link between clusters. ">
<polygon fill="#ffffff" stroke="#000000" points="98.5,-639 98.5,-658 304.5,-658 304.5,-639 98.5,-639"/>
<text text-anchor="middle" x="201.5" y="-646" font-family="Helvetica,sans-Serif" font-size="10.00" fill="#000000">pyclustering.cluster.agglomerative.type_link</text>
</a>
</g>
</g>
<!-- Node109&#45;&gt;Node0 -->
<g id="edge1" class="edge">
<title>Node109&#45;&gt;Node0</title>
<path fill="none" stroke="#191970" d="M27.7535,-346.4992C32.004,-407.5754 47.96,-589.9157 89,-629.5 92.7781,-633.144 96.9794,-636.2373 101.476,-638.8546"/>
<polygon fill="#191970" stroke="#191970" points="31.2294,-346.018 27.074,-336.272 24.2448,-346.4821 31.2294,-346.018"/>
</g>
<!-- Node111 -->
<g id="node3" class="node">
<title>Node111</title>
<g id="a_node3"><a xlink:href="d4/d22/classpyclustering_1_1cluster_1_1ema_1_1ema__init__type.html" target="_top" xlink:title="Enumeration of initialization types for Expectation&#45;Maximization algorithm. ">
<polygon fill="#ffffff" stroke="#000000" points="129.5,-589.5 129.5,-619.5 273.5,-619.5 273.5,-589.5 129.5,-589.5"/>
<text text-anchor="start" x="137.5" y="-607.5" font-family="Helvetica,sans-Serif" font-size="10.00" fill="#000000">pyclustering.cluster.ema.ema</text>
<text text-anchor="middle" x="201.5" y="-596.5" font-family="Helvetica,sans-Serif" font-size="10.00" fill="#000000">_init_type</text>
</a>
</g>
</g>
<!-- Node109&#45;&gt;Node111 -->
<g id="edge2" class="edge">
<title>Node109&#45;&gt;Node111</title>
<path fill="none" stroke="#191970" d="M28.6711,-346.301C34.9808,-400.1792 55.0528,-547.5921 89,-580.5 99.9695,-591.1337 114.4291,-597.5553 129.3133,-601.3325"/>
<polygon fill="#191970" stroke="#191970" points="32.1112,-345.5748 27.5044,-336.0339 25.1559,-346.3652 32.1112,-345.5748"/>
</g>
<!-- Node112 -->
<g id="node4" class="node">
<title>Node112</title>
<g id="a_node4"><a xlink:href="d5/d41/classpyclustering_1_1cluster_1_1encoder_1_1type__encoding.html" target="_top" xlink:title="Enumeration of encoding types (index labeling, index list separation, object list separation)...">
<polygon fill="#ffffff" stroke="#000000" points="122,-540.5 122,-570.5 281,-570.5 281,-540.5 122,-540.5"/>
<text text-anchor="start" x="130" y="-558.5" font-family="Helvetica,sans-Serif" font-size="10.00" fill="#000000">pyclustering.cluster.encoder.type</text>
<text text-anchor="middle" x="201.5" y="-547.5" font-family="Helvetica,sans-Serif" font-size="10.00" fill="#000000">_encoding</text>
</a>
</g>
</g>
<!-- Node109&#45;&gt;Node112 -->
<g id="edge3" class="edge">
<title>Node109&#45;&gt;Node112</title>
<path fill="none" stroke="#191970" d="M29.8767,-346.0883C38.2288,-392.2694 61.2057,-505.9923 89,-531.5 98.2696,-540.007 109.7901,-545.7805 121.8922,-549.6507"/>
<polygon fill="#191970" stroke="#191970" points="33.3035,-345.367 28.1145,-336.1298 26.4106,-346.5867 33.3035,-345.367"/>
</g>
<!-- Node113 -->
<g id="node5" class="node">
<title>Node113</title>
<g id="a_node5"><a xlink:href="db/d80/classpyclustering_1_1cluster_1_1silhouette_1_1silhouette__ksearch__type.html" target="_top" xlink:title="Defines algorithms that can be used to find optimal number of cluster using Silhouette method...">
<polygon fill="#ffffff" stroke="#000000" points="106,-491.5 106,-521.5 297,-521.5 297,-491.5 106,-491.5"/>
<text text-anchor="start" x="114" y="-509.5" font-family="Helvetica,sans-Serif" font-size="10.00" fill="#000000">pyclustering.cluster.silhouette.silhouette</text>
<text text-anchor="middle" x="201.5" y="-498.5" font-family="Helvetica,sans-Serif" font-size="10.00" fill="#000000">_ksearch_type</text>
</a>
</g>
</g>
<!-- Node109&#45;&gt;Node113 -->
<g id="edge4" class="edge">
<title>Node109&#45;&gt;Node113</title>
<path fill="none" stroke="#191970" d="M28.6563,-346.588C33.3454,-379.9135 47.6189,-446.426 89,-481.5 94.113,-485.8337 99.8144,-489.4614 105.8625,-492.4935"/>
<polygon fill="#191970" stroke="#191970" points="32.0824,-345.7788 27.3686,-336.2904 25.1365,-346.6474 32.0824,-345.7788"/>
</g>
<!-- Node114 -->
<g id="node6" class="node">
<title>Node114</title>
<g id="a_node6"><a xlink:href="dc/d4b/classpyclustering_1_1cluster_1_1xmeans_1_1splitting__type.html" target="_top" xlink:title="Enumeration of splitting types that can be used as splitting creation of cluster in X&#45;Means algorithm...">
<polygon fill="#ffffff" stroke="#000000" points="102,-453 102,-472 301,-472 301,-453 102,-453"/>
<text text-anchor="middle" x="201.5" y="-460" font-family="Helvetica,sans-Serif" font-size="10.00" fill="#000000">pyclustering.cluster.xmeans.splitting_type</text>
</a>
</g>
</g>
<!-- Node109&#45;&gt;Node114 -->
<g id="edge5" class="edge">
<title>Node109&#45;&gt;Node114</title>
<path fill="none" stroke="#191970" d="M31.1619,-346.0047C38.5974,-372.5898 55.8133,-419.6197 89,-443.5 94.2253,-447.26 99.9371,-450.3716 105.9276,-452.9387"/>
<polygon fill="#191970" stroke="#191970" points="34.5398,-345.0875 28.6293,-336.2946 27.7664,-346.8542 34.5398,-345.0875"/>
</g>
<!-- Node115 -->
<g id="node7" class="node">
<title>Node115</title>
<g id="a_node7"><a xlink:href="d2/d23/classpyclustering_1_1container_1_1cftree_1_1cfnode__type.html" target="_top" xlink:title="Enumeration of CF&#45;Node types that are used by CF&#45;Tree. ">
<polygon fill="#ffffff" stroke="#000000" points="104,-415 104,-434 299,-434 299,-415 104,-415"/>
<text text-anchor="middle" x="201.5" y="-422" font-family="Helvetica,sans-Serif" font-size="10.00" fill="#000000">pyclustering.container.cftree.cfnode_type</text>
</a>
</g>
</g>
<!-- Node109&#45;&gt;Node115 -->
<g id="edge6" class="edge">
<title>Node109&#45;&gt;Node115</title>
<path fill="none" stroke="#191970" d="M35.9117,-345.1196C46.2835,-363.5915 64.761,-391.1545 89,-405.5 95.4775,-409.3337 102.5109,-412.4478 109.7922,-414.9717"/>
<polygon fill="#191970" stroke="#191970" points="38.9254,-343.3333 31.1186,-336.1706 32.7548,-346.6384 38.9254,-343.3333"/>
</g>
<!-- Node116 -->
<g id="node8" class="node">
<title>Node116</title>
<g id="a_node8"><a xlink:href="d6/d8b/classpyclustering_1_1container_1_1cftree_1_1measurement__type.html" target="_top" xlink:title="Enumeration of measurement types for CF&#45;Tree. ">
<polygon fill="#ffffff" stroke="#000000" points="89,-377 89,-396 314,-396 314,-377 89,-377"/>
<text text-anchor="middle" x="201.5" y="-384" font-family="Helvetica,sans-Serif" font-size="10.00" fill="#000000">pyclustering.container.cftree.measurement_type</text>
</a>
</g>
</g>
<!-- Node109&#45;&gt;Node116 -->
<g id="edge7" class="edge">
<title>Node109&#45;&gt;Node116</title>
<path fill="none" stroke="#191970" d="M46.2909,-342.5516C58.0343,-351.2623 73.5977,-361.456 89,-367.5 98.9571,-371.4072 109.7191,-374.5115 120.5035,-376.9777"/>
<polygon fill="#191970" stroke="#191970" points="48.1829,-339.5915 38.1212,-336.2729 43.9173,-345.1417 48.1829,-339.5915"/>
</g>
<!-- Node117 -->
<g id="node9" class="node">
<title>Node117</title>
<g id="a_node9"><a xlink:href="d8/d71/classpyclustering_1_1nnet_1_1cnn_1_1type__conn.html" target="_top" xlink:title="Enumeration of connection types for Chaotic Neural Network. ">
<polygon fill="#ffffff" stroke="#000000" points="122.5,-339 122.5,-358 280.5,-358 280.5,-339 122.5,-339"/>
<text text-anchor="middle" x="201.5" y="-346" font-family="Helvetica,sans-Serif" font-size="10.00" fill="#000000">pyclustering.nnet.cnn.type_conn</text>
</a>
</g>
</g>
<!-- Node109&#45;&gt;Node117 -->
<g id="edge8" class="edge">
<title>Node109&#45;&gt;Node117</title>
<path fill="none" stroke="#191970" d="M63.2321,-331.1177C81.4253,-333.4049 104.0955,-336.2549 125.7821,-338.9812"/>
<polygon fill="#191970" stroke="#191970" points="63.4372,-327.6161 53.0787,-329.8413 62.564,-334.5614 63.4372,-327.6161"/>
</g>
<!-- Node118 -->
<g id="node10" class="node">
<title>Node118</title>
<g id="a_node10"><a xlink:href="d9/d7b/classpyclustering_1_1nnet_1_1conn__represent.html" target="_top" xlink:title="Enumerator of internal network connection representation between oscillators. ">
<polygon fill="#ffffff" stroke="#000000" points="144,-289.5 144,-319.5 259,-319.5 259,-289.5 144,-289.5"/>
<text text-anchor="start" x="152" y="-307.5" font-family="Helvetica,sans-Serif" font-size="10.00" fill="#000000">pyclustering.nnet.conn</text>
<text text-anchor="middle" x="201.5" y="-296.5" font-family="Helvetica,sans-Serif" font-size="10.00" fill="#000000">_represent</text>
</a>
</g>
</g>
<!-- Node109&#45;&gt;Node118 -->
<g id="edge9" class="edge">
<title>Node109&#45;&gt;Node118</title>
<path fill="none" stroke="#191970" d="M63.2421,-321.881C86.5803,-318.947 117.2824,-315.0874 143.8253,-311.7505"/>
<polygon fill="#191970" stroke="#191970" points="62.564,-318.4386 53.0787,-323.1587 63.4372,-325.3839 62.564,-318.4386"/>
</g>
<!-- Node119 -->
<g id="node11" class="node">
<title>Node119</title>
<g id="a_node11"><a xlink:href="d7/d90/classpyclustering_1_1nnet_1_1conn__type.html" target="_top" xlink:title="Enumerator of connection types between oscillators. ">
<polygon fill="#ffffff" stroke="#000000" points="132,-251 132,-270 271,-270 271,-251 132,-251"/>
<text text-anchor="middle" x="201.5" y="-258" font-family="Helvetica,sans-Serif" font-size="10.00" fill="#000000">pyclustering.nnet.conn_type</text>
</a>
</g>
</g>
<!-- Node109&#45;&gt;Node119 -->
<g id="edge10" class="edge">
<title>Node109&#45;&gt;Node119</title>
<path fill="none" stroke="#191970" d="M44.3616,-309.8698C56.165,-299.8095 72.4607,-287.5945 89,-280.5 102.3998,-274.7522 117.3788,-270.6562 131.9256,-267.7374"/>
<polygon fill="#191970" stroke="#191970" points="41.7969,-307.4654 36.6217,-316.7103 46.4326,-312.7105 41.7969,-307.4654"/>
</g>
<!-- Node120 -->
<g id="node12" class="node">
<title>Node120</title>
<g id="a_node12"><a xlink:href="d2/d10/classpyclustering_1_1nnet_1_1initial__type.html" target="_top" xlink:title="Enumerator of types of oscillator output initialization. ">
<polygon fill="#ffffff" stroke="#000000" points="131.5,-213 131.5,-232 271.5,-232 271.5,-213 131.5,-213"/>
<text text-anchor="middle" x="201.5" y="-220" font-family="Helvetica,sans-Serif" font-size="10.00" fill="#000000">pyclustering.nnet.initial_type</text>
</a>
</g>
</g>
<!-- Node109&#45;&gt;Node120 -->
<g id="edge11" class="edge">
<title>Node109&#45;&gt;Node120</title>
<path fill="none" stroke="#191970" d="M34.9401,-307.6882C44.8872,-287.8375 63.3678,-257.2873 89,-241.5 101.6491,-233.7092 116.5426,-228.8525 131.2797,-225.8795"/>
<polygon fill="#191970" stroke="#191970" points="31.6648,-306.4255 30.5236,-316.9587 37.9843,-309.4361 31.6648,-306.4255"/>
</g>
<!-- Node121 -->
<g id="node13" class="node">
<title>Node121</title>
<g id="a_node13"><a xlink:href="d5/d6b/classpyclustering_1_1nnet_1_1solve__type.html" target="_top" xlink:title="Enumerator of solver types that are used for network simulation. ">
<polygon fill="#ffffff" stroke="#000000" points="131,-175 131,-194 272,-194 272,-175 131,-175"/>
<text text-anchor="middle" x="201.5" y="-182" font-family="Helvetica,sans-Serif" font-size="10.00" fill="#000000">pyclustering.nnet.solve_type</text>
</a>
</g>
</g>
<!-- Node109&#45;&gt;Node121 -->
<g id="edge12" class="edge">
<title>Node109&#45;&gt;Node121</title>
<path fill="none" stroke="#191970" d="M30.6515,-306.8421C37.6075,-279.0799 54.3991,-228.94 89,-203.5 101.1285,-194.5826 115.9709,-189.2853 130.8469,-186.2447"/>
<polygon fill="#191970" stroke="#191970" points="27.1641,-306.3876 28.3156,-316.9196 33.9834,-307.9683 27.1641,-306.3876"/>
</g>
<!-- Node122 -->
<g id="node14" class="node">
<title>Node122</title>
<g id="a_node14"><a xlink:href="da/d42/classpyclustering_1_1nnet_1_1som_1_1type__conn.html" target="_top" xlink:title="Enumeration of connection types for SOM. ">
<polygon fill="#ffffff" stroke="#000000" points="121,-137 121,-156 282,-156 282,-137 121,-137"/>
<text text-anchor="middle" x="201.5" y="-144" font-family="Helvetica,sans-Serif" font-size="10.00" fill="#000000">pyclustering.nnet.som.type_conn</text>
</a>
</g>
</g>
<!-- Node109&#45;&gt;Node122 -->
<g id="edge13" class="edge">
<title>Node109&#45;&gt;Node122</title>
<path fill="none" stroke="#191970" d="M28.0964,-306.3658C31.9876,-271.7509 45.1515,-201.2428 89,-165.5 98.212,-157.9909 109.2856,-152.958 120.8423,-149.6531"/>
<polygon fill="#191970" stroke="#191970" points="24.583,-306.3356 27.1013,-316.6268 31.5503,-307.0113 24.583,-306.3356"/>
</g>
<!-- Node123 -->
<g id="node15" class="node">
<title>Node123</title>
<g id="a_node15"><a xlink:href="df/d7b/classpyclustering_1_1nnet_1_1som_1_1type__init.html" target="_top" xlink:title="Enumeration of initialization types for SOM. ">
<polygon fill="#ffffff" stroke="#000000" points="125.5,-99 125.5,-118 277.5,-118 277.5,-99 125.5,-99"/>
<text text-anchor="middle" x="201.5" y="-106" font-family="Helvetica,sans-Serif" font-size="10.00" fill="#000000">pyclustering.nnet.som.type_init</text>
</a>
</g>
</g>
<!-- Node109&#45;&gt;Node123 -->
<g id="edge14" class="edge">
<title>Node109&#45;&gt;Node123</title>
<path fill="none" stroke="#191970" d="M30.0029,-306.8062C38.4793,-261.4204 61.4432,-151.5183 89,-127.5 99.2285,-118.5849 112.0379,-113.0805 125.3148,-109.7997"/>
<polygon fill="#191970" stroke="#191970" points="26.5198,-306.3973 28.1661,-316.8635 33.4059,-307.655 26.5198,-306.3973"/>
</g>
<!-- Node124 -->
<g id="node16" class="node">
<title>Node124</title>
<g id="a_node16"><a xlink:href="dc/dee/classpyclustering_1_1utils_1_1graph_1_1type__graph__descr.html" target="_top" xlink:title="Enumeration of graph description. ">
<polygon fill="#ffffff" stroke="#000000" points="132,-49.5 132,-79.5 271,-79.5 271,-49.5 132,-49.5"/>
<text text-anchor="start" x="140" y="-67.5" font-family="Helvetica,sans-Serif" font-size="10.00" fill="#000000">pyclustering.utils.graph.type</text>
<text text-anchor="middle" x="201.5" y="-56.5" font-family="Helvetica,sans-Serif" font-size="10.00" fill="#000000">_graph_descr</text>
</a>
</g>
</g>
<!-- Node109&#45;&gt;Node124 -->
<g id="edge15" class="edge">
<title>Node109&#45;&gt;Node124</title>
<path fill="none" stroke="#191970" d="M29.0656,-306.6781C36.1085,-255.3416 57.3472,-119.9365 89,-89.5 100.6097,-78.3364 116.042,-71.7217 131.745,-67.8989"/>
<polygon fill="#191970" stroke="#191970" points="25.5682,-306.4259 27.7128,-316.8014 32.5066,-307.3531 25.5682,-306.4259"/>
</g>
<!-- Node125 -->
<g id="node17" class="node">
<title>Node125</title>
<g id="a_node17"><a xlink:href="da/d3a/classpyclustering_1_1utils_1_1metric_1_1type__metric.html" target="_top" xlink:title="Enumeration of supported metrics in the module for distance calculation between two points...">
<polygon fill="#ffffff" stroke="#000000" points="130.5,-.5 130.5,-30.5 272.5,-30.5 272.5,-.5 130.5,-.5"/>
<text text-anchor="start" x="138.5" y="-18.5" font-family="Helvetica,sans-Serif" font-size="10.00" fill="#000000">pyclustering.utils.metric.type</text>
<text text-anchor="middle" x="201.5" y="-7.5" font-family="Helvetica,sans-Serif" font-size="10.00" fill="#000000">_metric</text>
</a>
</g>
</g>
<!-- Node109&#45;&gt;Node125 -->
<g id="edge16" class="edge">
<title>Node109&#45;&gt;Node125</title>
<path fill="none" stroke="#191970" d="M28.1108,-306.5642C33.2461,-248.0427 51.163,-78.4704 89,-40.5 100.0863,-29.3746 114.9518,-22.7215 130.2363,-18.844"/>
<polygon fill="#191970" stroke="#191970" points="24.6075,-306.4565 27.252,-316.716 31.5826,-307.0466 24.6075,-306.4565"/>
</g>
</g>
</svg>
