<?xml version="1.0" encoding="UTF-8" standalone="no"?>
<!DOCTYPE svg PUBLIC "-//W3C//DTD SVG 1.1//EN"
 "http://www.w3.org/Graphics/SVG/1.1/DTD/svg11.dtd">
<!-- Generated by graphviz version 2.40.1 (20161225.0304)
 -->
<!-- Title: Graphical Class Hierarchy Pages: 1 -->
<svg width="359pt" height="137pt"
 viewBox="0.00 0.00 359.00 137.00" xmlns="http://www.w3.org/2000/svg" xmlns:xlink="http://www.w3.org/1999/xlink">
<g id="graph0" class="graph" transform="scale(1 1) rotate(0) translate(4 133)">
<title>Graphical Class Hierarchy</title>
<polygon fill="#ffffff" stroke="transparent" points="-4,4 -4,-133 355,-133 355,4 -4,4"/>
<!-- Node0 -->
<g id="node1" class="node">
<title>Node0</title>
<g id="a_node1"><a xlink:href="dc/d2d/classpyclustering_1_1nnet_1_1sync_1_1sync__dynamic.html" target="_top" xlink:title="Represents output dynamic of Sync. ">
<polygon fill="#ffffff" stroke="#000000" points="0,-49.5 0,-79.5 139,-79.5 139,-49.5 0,-49.5"/>
<text text-anchor="start" x="8" y="-67.5" font-family="Helvetica,sans-Serif" font-size="10.00" fill="#000000">pyclustering.nnet.sync.sync</text>
<text text-anchor="middle" x="69.5" y="-56.5" font-family="Helvetica,sans-Serif" font-size="10.00" fill="#000000">_dynamic</text>
</a>
</g>
</g>
<!-- Node1 -->
<g id="node2" class="node">
<title>Node1</title>
<g id="a_node2"><a xlink:href="da/d8f/classpyclustering_1_1cluster_1_1syncnet_1_1syncnet__analyser.html" target="_top" xlink:title="Performs analysis of output dynamic of the oscillatory network syncnet to extract information about c...">
<polygon fill="#ffffff" stroke="#000000" points="175,-98.5 175,-128.5 351,-128.5 351,-98.5 175,-98.5"/>
<text text-anchor="start" x="183" y="-116.5" font-family="Helvetica,sans-Serif" font-size="10.00" fill="#000000">pyclustering.cluster.syncnet.syncnet</text>
<text text-anchor="middle" x="263" y="-105.5" font-family="Helvetica,sans-Serif" font-size="10.00" fill="#000000">_analyser</text>
</a>
</g>
</g>
<!-- Node0&#45;&gt;Node1 -->
<g id="edge1" class="edge">
<title>Node0&#45;&gt;Node1</title>
<path fill="none" stroke="#191970" d="M138.8038,-82.0498C160.0525,-87.4306 183.2268,-93.299 203.7409,-98.4938"/>
<polygon fill="#191970" stroke="#191970" points="139.4246,-78.5966 128.8714,-79.5346 137.7062,-85.3824 139.4246,-78.5966"/>
</g>
<!-- Node2 -->
<g id="node3" class="node">
<title>Node2</title>
<g id="a_node3"><a xlink:href="d5/d9e/classpyclustering_1_1gcolor_1_1sync_1_1syncgcolor__analyser.html" target="_top" xlink:title="Analyser of output dynamic of the oscillatory network syncgcolor. ">
<polygon fill="#ffffff" stroke="#000000" points="177,-49.5 177,-79.5 349,-79.5 349,-49.5 177,-49.5"/>
<text text-anchor="start" x="185" y="-67.5" font-family="Helvetica,sans-Serif" font-size="10.00" fill="#000000">pyclustering.gcolor.sync.syncgcolor</text>
<text text-anchor="middle" x="263" y="-56.5" font-family="Helvetica,sans-Serif" font-size="10.00" fill="#000000">_analyser</text>
</a>
</g>
</g>
<!-- Node0&#45;&gt;Node2 -->
<g id="edge2" class="edge">
<title>Node0&#45;&gt;Node2</title>
<path fill="none" stroke="#191970" d="M149.2518,-64.5C158.3508,-64.5 167.6569,-64.5 176.8344,-64.5"/>
<polygon fill="#191970" stroke="#191970" points="149.0846,-61.0001 139.0846,-64.5 149.0845,-68.0001 149.0846,-61.0001"/>
</g>
<!-- Node3 -->
<g id="node4" class="node">
<title>Node3</title>
<g id="a_node4"><a xlink:href="d3/deb/classpyclustering_1_1nnet_1_1syncpr_1_1syncpr__dynamic.html" target="_top" xlink:title="Represents output dynamic of syncpr (Sync for Pattern Recognition). ">
<polygon fill="#ffffff" stroke="#000000" points="185.5,-.5 185.5,-30.5 340.5,-30.5 340.5,-.5 185.5,-.5"/>
<text text-anchor="start" x="193.5" y="-18.5" font-family="Helvetica,sans-Serif" font-size="10.00" fill="#000000">pyclustering.nnet.syncpr.syncpr</text>
<text text-anchor="middle" x="263" y="-7.5" font-family="Helvetica,sans-Serif" font-size="10.00" fill="#000000">_dynamic</text>
</a>
</g>
</g>
<!-- Node0&#45;&gt;Node3 -->
<g id="edge3" class="edge">
<title>Node0&#45;&gt;Node3</title>
<path fill="none" stroke="#191970" d="M138.8038,-46.9502C160.0525,-41.5694 183.2268,-35.701 203.7409,-30.5062"/>
<polygon fill="#191970" stroke="#191970" points="137.7062,-43.6176 128.8714,-49.4654 139.4246,-50.4034 137.7062,-43.6176"/>
</g>
</g>
</svg>
