<?xml version="1.0" encoding="UTF-8" standalone="no"?>
<!DOCTYPE svg PUBLIC "-//W3C//DTD SVG 1.1//EN"
 "http://www.w3.org/Graphics/SVG/1.1/DTD/svg11.dtd">
<!-- Generated by graphviz version 2.40.1 (20161225.0304)
 -->
<!-- Title: Graphical Class Hierarchy Pages: 1 -->
<svg width="399pt" height="78pt"
 viewBox="0.00 0.00 399.00 77.50" xmlns="http://www.w3.org/2000/svg" xmlns:xlink="http://www.w3.org/1999/xlink">
<g id="graph0" class="graph" transform="scale(1 1) rotate(0) translate(4 73.5)">
<title>Graphical Class Hierarchy</title>
<polygon fill="#ffffff" stroke="transparent" points="-4,4 -4,-73.5 395,-73.5 395,4 -4,4"/>
<!-- Node0 -->
<g id="node1" class="node">
<title>Node0</title>
<g id="a_node1"><a xlink:href="da/d1c/classpyclustering_1_1container_1_1cftree_1_1cfnode.html" target="_top" xlink:title="Representation of node of CF&#45;Tree. ">
<polygon fill="#ffffff" stroke="#000000" points="0,-28 0,-47 171,-47 171,-28 0,-28"/>
<text text-anchor="middle" x="85.5" y="-35" font-family="Helvetica,sans-Serif" font-size="10.00" fill="#000000">pyclustering.container.cftree.cfnode</text>
</a>
</g>
</g>
<!-- Node1 -->
<g id="node2" class="node">
<title>Node1</title>
<g id="a_node2"><a xlink:href="d2/d65/classpyclustering_1_1container_1_1cftree_1_1leaf__node.html" target="_top" xlink:title="Represents clustering feature leaf node. ">
<polygon fill="#ffffff" stroke="#000000" points="207,-50 207,-69 391,-69 391,-50 207,-50"/>
<text text-anchor="middle" x="299" y="-57" font-family="Helvetica,sans-Serif" font-size="10.00" fill="#000000">pyclustering.container.cftree.leaf_node</text>
</a>
</g>
</g>
<!-- Node0&#45;&gt;Node1 -->
<g id="edge1" class="edge">
<title>Node0&#45;&gt;Node1</title>
<path fill="none" stroke="#191970" d="M181.0655,-47.3475C189.5963,-48.2266 198.2236,-49.1155 206.726,-49.9917"/>
<polygon fill="#191970" stroke="#191970" points="181.4146,-43.865 171.1084,-46.3215 180.697,-50.8282 181.4146,-43.865"/>
</g>
<!-- Node2 -->
<g id="node3" class="node">
<title>Node2</title>
<g id="a_node3"><a xlink:href="d7/d25/classpyclustering_1_1container_1_1cftree_1_1non__leaf__node.html" target="_top" xlink:title="Representation of clustering feature non&#45;leaf node. ">
<polygon fill="#ffffff" stroke="#000000" points="220,-.5 220,-30.5 378,-30.5 378,-.5 220,-.5"/>
<text text-anchor="start" x="228" y="-18.5" font-family="Helvetica,sans-Serif" font-size="10.00" fill="#000000">pyclustering.container.cftree.non</text>
<text text-anchor="middle" x="299" y="-7.5" font-family="Helvetica,sans-Serif" font-size="10.00" fill="#000000">_leaf_node</text>
</a>
</g>
</g>
<!-- Node0&#45;&gt;Node2 -->
<g id="edge2" class="edge">
<title>Node0&#45;&gt;Node2</title>
<path fill="none" stroke="#191970" d="M181.3878,-27.6193C194.2804,-26.2908 207.3866,-24.9403 219.9437,-23.6463"/>
<polygon fill="#191970" stroke="#191970" points="180.697,-24.1719 171.1084,-28.6785 181.4146,-31.135 180.697,-24.1719"/>
</g>
</g>
</svg>
