<?xml version="1.0" encoding="UTF-8" standalone="no"?>
<!DOCTYPE svg PUBLIC "-//W3C//DTD SVG 1.1//EN"
 "http://www.w3.org/Graphics/SVG/1.1/DTD/svg11.dtd">
<!-- Generated by graphviz version 2.40.1 (20161225.0304)
 -->
<!-- Title: pyclustering.cluster.syncnet.syncnet Pages: 1 -->
<svg width="184pt" height="151pt"
 viewBox="0.00 0.00 184.00 151.00" xmlns="http://www.w3.org/2000/svg" xmlns:xlink="http://www.w3.org/1999/xlink">
<g id="graph0" class="graph" transform="scale(1 1) rotate(0) translate(4 147)">
<title>pyclustering.cluster.syncnet.syncnet</title>
<polygon fill="#ffffff" stroke="transparent" points="-4,4 -4,-147 180,-147 180,4 -4,4"/>
<!-- Node4 -->
<g id="node1" class="node">
<title>Node4</title>
<polygon fill="#bfbfbf" stroke="#000000" points="0,-.5 0,-19.5 176,-19.5 176,-.5 0,-.5"/>
<text text-anchor="middle" x="88" y="-7.5" font-family="Helvetica,sans-Serif" font-size="10.00" fill="#000000">pyclustering.cluster.syncnet.syncnet</text>
</g>
<!-- Node5 -->
<g id="node2" class="node">
<title>Node5</title>
<g id="a_node2"><a xlink:href="../../db/de3/classpyclustering_1_1nnet_1_1sync_1_1sync__network.html" target="_top" xlink:title="Model of oscillatory network that is based on the Kuramoto model of synchronization. ">
<polygon fill="#ffffff" stroke="#000000" points="18.5,-56.5 18.5,-86.5 157.5,-86.5 157.5,-56.5 18.5,-56.5"/>
<text text-anchor="start" x="26.5" y="-74.5" font-family="Helvetica,sans-Serif" font-size="10.00" fill="#000000">pyclustering.nnet.sync.sync</text>
<text text-anchor="middle" x="88" y="-63.5" font-family="Helvetica,sans-Serif" font-size="10.00" fill="#000000">_network</text>
</a>
</g>
</g>
<!-- Node5&#45;&gt;Node4 -->
<g id="edge1" class="edge">
<title>Node5&#45;&gt;Node4</title>
<path fill="none" stroke="#191970" d="M88,-46.2849C88,-36.9858 88,-26.9883 88,-19.8469"/>
<polygon fill="#191970" stroke="#191970" points="84.5001,-46.2977 88,-56.2977 91.5001,-46.2978 84.5001,-46.2977"/>
</g>
<!-- Node6 -->
<g id="node3" class="node">
<title>Node6</title>
<g id="a_node3"><a xlink:href="../../d5/d9f/classpyclustering_1_1nnet_1_1network.html" target="_top" xlink:title="Common network description that consists of information about oscillators and connection between them...">
<polygon fill="#ffffff" stroke="#000000" points="24,-123.5 24,-142.5 152,-142.5 152,-123.5 24,-123.5"/>
<text text-anchor="middle" x="88" y="-130.5" font-family="Helvetica,sans-Serif" font-size="10.00" fill="#000000">pyclustering.nnet.network</text>
</a>
</g>
</g>
<!-- Node6&#45;&gt;Node5 -->
<g id="edge2" class="edge">
<title>Node6&#45;&gt;Node5</title>
<path fill="none" stroke="#191970" d="M88,-113.3693C88,-104.681 88,-94.6241 88,-86.5446"/>
<polygon fill="#191970" stroke="#191970" points="84.5001,-113.3906 88,-123.3906 91.5001,-113.3907 84.5001,-113.3906"/>
</g>
</g>
</svg>
