<?xml version="1.0" encoding="UTF-8" standalone="no"?>
<!DOCTYPE svg PUBLIC "-//W3C//DTD SVG 1.1//EN"
 "http://www.w3.org/Graphics/SVG/1.1/DTD/svg11.dtd">
<!-- Generated by graphviz version 2.43.0 (0)
 -->
<!-- Title: Graphical Class Hierarchy Pages: 1 -->
<svg width="355pt" height="667pt"
 viewBox="0.00 0.00 355.00 666.50" xmlns="http://www.w3.org/2000/svg" xmlns:xlink="http://www.w3.org/1999/xlink">
<g id="graph0" class="graph" transform="scale(1 1) rotate(0) translate(4 662.5)">
<title>Graphical Class Hierarchy</title>
<polygon fill="white" stroke="transparent" points="-4,4 -4,-662.5 351,-662.5 351,4 -4,4"/>
<!-- Node111 -->
<g id="node1" class="node">
<title>Node111</title>
<g id="a_node1"><a xlink:title=" ">
<polygon fill="white" stroke="#bfbfbf" points="0,-317 0,-336 57,-336 57,-317 0,-317"/>
<text text-anchor="middle" x="28.5" y="-324" font-family="Helvetica,sans-Serif" font-size="10.00">IntEnum</text>
</a>
</g>
</g>
<!-- Node0 -->
<g id="node2" class="node">
<title>Node0</title>
<g id="a_node2"><a xlink:href="d5/d58/classpyclustering_1_1cluster_1_1agglomerative_1_1type__link.html" target="_top" xlink:title="Enumerator of types of link between clusters.">
<polygon fill="white" stroke="black" points="103,-639 103,-658 337,-658 337,-639 103,-639"/>
<text text-anchor="middle" x="220" y="-646" font-family="Helvetica,sans-Serif" font-size="10.00">pyclustering.cluster.agglomerative.type_link</text>
</a>
</g>
</g>
<!-- Node111&#45;&gt;Node0 -->
<g id="edge1" class="edge">
<title>Node111&#45;&gt;Node0</title>
<path fill="none" stroke="midnightblue" d="M30.79,-346.53C35.17,-407.71 51.52,-590.32 93,-629.5 96.86,-633.15 101.1,-636.28 105.62,-638.95"/>
<polygon fill="midnightblue" stroke="midnightblue" points="34.27,-346.03 30.09,-336.29 27.28,-346.51 34.27,-346.03"/>
</g>
<!-- Node113 -->
<g id="node3" class="node">
<title>Node113</title>
<g id="a_node3"><a xlink:href="d4/d22/classpyclustering_1_1cluster_1_1ema_1_1ema__init__type.html" target="_top" xlink:title="Enumeration of initialization types for Expectation&#45;Maximization algorithm.">
<polygon fill="white" stroke="black" points="139.5,-589.5 139.5,-619.5 300.5,-619.5 300.5,-589.5 139.5,-589.5"/>
<text text-anchor="start" x="147.5" y="-607.5" font-family="Helvetica,sans-Serif" font-size="10.00">pyclustering.cluster.ema.ema</text>
<text text-anchor="middle" x="220" y="-596.5" font-family="Helvetica,sans-Serif" font-size="10.00">_init_type</text>
</a>
</g>
</g>
<!-- Node111&#45;&gt;Node113 -->
<g id="edge2" class="edge">
<title>Node111&#45;&gt;Node113</title>
<path fill="none" stroke="midnightblue" d="M31.68,-346.01C38.07,-399.71 58.53,-547.93 93,-580.5 105.63,-592.43 122.25,-599.32 139.28,-603.13"/>
<polygon fill="midnightblue" stroke="midnightblue" points="35.15,-345.59 30.53,-336.06 28.2,-346.39 35.15,-345.59"/>
</g>
<!-- Node114 -->
<g id="node4" class="node">
<title>Node114</title>
<g id="a_node4"><a xlink:href="d5/d41/classpyclustering_1_1cluster_1_1encoder_1_1type__encoding.html" target="_top" xlink:title="Enumeration of encoding types (index labeling, index list separation, object list separation).">
<polygon fill="white" stroke="black" points="131,-540.5 131,-570.5 309,-570.5 309,-540.5 131,-540.5"/>
<text text-anchor="start" x="139" y="-558.5" font-family="Helvetica,sans-Serif" font-size="10.00">pyclustering.cluster.encoder.type</text>
<text text-anchor="middle" x="220" y="-547.5" font-family="Helvetica,sans-Serif" font-size="10.00">_encoding</text>
</a>
</g>
</g>
<!-- Node111&#45;&gt;Node114 -->
<g id="edge3" class="edge">
<title>Node111&#45;&gt;Node114</title>
<path fill="none" stroke="midnightblue" d="M29.34,-346.08C30.13,-387.14 38.15,-482.48 93,-531.5 103.71,-541.07 117.02,-547.34 130.94,-551.37"/>
<polygon fill="midnightblue" stroke="midnightblue" points="32.84,-346 29.27,-336.02 25.84,-346.05 32.84,-346"/>
</g>
<!-- Node115 -->
<g id="node5" class="node">
<title>Node115</title>
<g id="a_node5"><a xlink:href="db/d80/classpyclustering_1_1cluster_1_1silhouette_1_1silhouette__ksearch__type.html" target="_top" xlink:title="Defines algorithms that can be used to find optimal number of cluster using Silhouette method.">
<polygon fill="white" stroke="black" points="112.5,-491.5 112.5,-521.5 327.5,-521.5 327.5,-491.5 112.5,-491.5"/>
<text text-anchor="start" x="120.5" y="-509.5" font-family="Helvetica,sans-Serif" font-size="10.00">pyclustering.cluster.silhouette.silhouette</text>
<text text-anchor="middle" x="220" y="-498.5" font-family="Helvetica,sans-Serif" font-size="10.00">_ksearch_type</text>
</a>
</g>
</g>
<!-- Node111&#45;&gt;Node115 -->
<g id="edge4" class="edge">
<title>Node111&#45;&gt;Node115</title>
<path fill="none" stroke="midnightblue" d="M31.71,-346.7C36.5,-380.19 51.03,-446.94 93,-481.5 98.85,-486.32 105.37,-490.3 112.28,-493.58"/>
<polygon fill="midnightblue" stroke="midnightblue" points="35.12,-345.83 30.39,-336.35 28.18,-346.71 35.12,-345.83"/>
</g>
<!-- Node116 -->
<g id="node6" class="node">
<title>Node116</title>
<g id="a_node6"><a xlink:href="dc/d4b/classpyclustering_1_1cluster_1_1xmeans_1_1splitting__type.html" target="_top" xlink:title="Enumeration of splitting types that can be used as splitting creation of cluster in X&#45;Means algorithm...">
<polygon fill="white" stroke="black" points="108,-453 108,-472 332,-472 332,-453 108,-453"/>
<text text-anchor="middle" x="220" y="-460" font-family="Helvetica,sans-Serif" font-size="10.00">pyclustering.cluster.xmeans.splitting_type</text>
</a>
</g>
</g>
<!-- Node111&#45;&gt;Node116 -->
<g id="edge5" class="edge">
<title>Node111&#45;&gt;Node116</title>
<path fill="none" stroke="midnightblue" d="M34.16,-345.7C41.69,-372.32 59.24,-419.82 93,-443.5 98.34,-447.25 104.13,-450.38 110.18,-453"/>
<polygon fill="midnightblue" stroke="midnightblue" points="37.54,-344.78 31.6,-336 30.77,-346.57 37.54,-344.78"/>
</g>
<!-- Node117 -->
<g id="node7" class="node">
<title>Node117</title>
<g id="a_node7"><a xlink:href="d2/d23/classpyclustering_1_1container_1_1cftree_1_1cfnode__type.html" target="_top" xlink:title="Enumeration of CF&#45;Node types that are used by CF&#45;Tree.">
<polygon fill="white" stroke="black" points="111,-415 111,-434 329,-434 329,-415 111,-415"/>
<text text-anchor="middle" x="220" y="-422" font-family="Helvetica,sans-Serif" font-size="10.00">pyclustering.container.cftree.cfnode_type</text>
</a>
</g>
</g>
<!-- Node111&#45;&gt;Node117 -->
<g id="edge6" class="edge">
<title>Node111&#45;&gt;Node117</title>
<path fill="none" stroke="midnightblue" d="M39.09,-345.21C49.64,-363.76 68.43,-391.38 93,-405.5 99.62,-409.3 106.74,-412.43 114.11,-414.98"/>
<polygon fill="midnightblue" stroke="midnightblue" points="42.05,-343.34 34.21,-336.22 35.9,-346.68 42.05,-343.34"/>
</g>
<!-- Node118 -->
<g id="node8" class="node">
<title>Node118</title>
<g id="a_node8"><a xlink:href="d6/d8b/classpyclustering_1_1container_1_1cftree_1_1measurement__type.html" target="_top" xlink:title="Enumeration of measurement types for CF&#45;Tree.">
<polygon fill="white" stroke="black" points="93,-377 93,-396 347,-396 347,-377 93,-377"/>
<text text-anchor="middle" x="220" y="-384" font-family="Helvetica,sans-Serif" font-size="10.00">pyclustering.container.cftree.measurement_type</text>
</a>
</g>
</g>
<!-- Node111&#45;&gt;Node118 -->
<g id="edge7" class="edge">
<title>Node111&#45;&gt;Node118</title>
<path fill="none" stroke="midnightblue" d="M49.61,-342.65C61.54,-351.39 77.35,-361.58 93,-367.5 103.35,-371.41 114.46,-374.52 125.64,-376.99"/>
<polygon fill="midnightblue" stroke="midnightblue" points="51.39,-339.6 41.31,-336.34 47.15,-345.18 51.39,-339.6"/>
</g>
<!-- Node119 -->
<g id="node9" class="node">
<title>Node119</title>
<g id="a_node9"><a xlink:href="d8/d71/classpyclustering_1_1nnet_1_1cnn_1_1type__conn.html" target="_top" xlink:title="Enumeration of connection types for Chaotic Neural Network.">
<polygon fill="white" stroke="black" points="132.5,-339 132.5,-358 307.5,-358 307.5,-339 132.5,-339"/>
<text text-anchor="middle" x="220" y="-346" font-family="Helvetica,sans-Serif" font-size="10.00">pyclustering.nnet.cnn.type_conn</text>
</a>
</g>
</g>
<!-- Node111&#45;&gt;Node119 -->
<g id="edge8" class="edge">
<title>Node111&#45;&gt;Node119</title>
<path fill="none" stroke="midnightblue" d="M66.99,-330.85C87.02,-333.18 112.5,-336.14 136.85,-338.96"/>
<polygon fill="midnightblue" stroke="midnightblue" points="67.39,-327.38 57.05,-329.7 66.58,-334.33 67.39,-327.38"/>
</g>
<!-- Node120 -->
<g id="node10" class="node">
<title>Node120</title>
<g id="a_node10"><a xlink:href="d9/d7b/classpyclustering_1_1nnet_1_1conn__represent.html" target="_top" xlink:title="Enumerator of internal network connection representation between oscillators.">
<polygon fill="white" stroke="black" points="156,-289.5 156,-319.5 284,-319.5 284,-289.5 156,-289.5"/>
<text text-anchor="start" x="164" y="-307.5" font-family="Helvetica,sans-Serif" font-size="10.00">pyclustering.nnet.conn</text>
<text text-anchor="middle" x="220" y="-296.5" font-family="Helvetica,sans-Serif" font-size="10.00">_represent</text>
</a>
</g>
</g>
<!-- Node111&#45;&gt;Node120 -->
<g id="edge9" class="edge">
<title>Node111&#45;&gt;Node120</title>
<path fill="none" stroke="midnightblue" d="M67.32,-322.11C92.58,-319.18 126.43,-315.25 155.74,-311.84"/>
<polygon fill="midnightblue" stroke="midnightblue" points="66.58,-318.67 57.05,-323.3 67.39,-325.62 66.58,-318.67"/>
</g>
<!-- Node121 -->
<g id="node11" class="node">
<title>Node121</title>
<g id="a_node11"><a xlink:href="d7/d90/classpyclustering_1_1nnet_1_1conn__type.html" target="_top" xlink:title="Enumerator of connection types between oscillators.">
<polygon fill="white" stroke="black" points="142.5,-251 142.5,-270 297.5,-270 297.5,-251 142.5,-251"/>
<text text-anchor="middle" x="220" y="-258" font-family="Helvetica,sans-Serif" font-size="10.00">pyclustering.nnet.conn_type</text>
</a>
</g>
</g>
<!-- Node111&#45;&gt;Node121 -->
<g id="edge10" class="edge">
<title>Node111&#45;&gt;Node121</title>
<path fill="none" stroke="midnightblue" d="M47.65,-309.77C59.64,-299.67 76.2,-287.45 93,-280.5 108.45,-274.11 125.75,-269.75 142.46,-266.78"/>
<polygon fill="midnightblue" stroke="midnightblue" points="45.01,-307.43 39.78,-316.64 49.62,-312.7 45.01,-307.43"/>
</g>
<!-- Node122 -->
<g id="node12" class="node">
<title>Node122</title>
<g id="a_node12"><a xlink:href="d2/d10/classpyclustering_1_1nnet_1_1initial__type.html" target="_top" xlink:title="Enumerator of types of oscillator output initialization.">
<polygon fill="white" stroke="black" points="140.5,-213 140.5,-232 299.5,-232 299.5,-213 140.5,-213"/>
<text text-anchor="middle" x="220" y="-220" font-family="Helvetica,sans-Serif" font-size="10.00">pyclustering.nnet.initial_type</text>
</a>
</g>
</g>
<!-- Node111&#45;&gt;Node122 -->
<g id="edge11" class="edge">
<title>Node111&#45;&gt;Node122</title>
<path fill="none" stroke="midnightblue" d="M37.96,-307.87C48.06,-287.95 66.91,-257.12 93,-241.5 107.24,-232.98 123.94,-227.82 140.46,-224.78"/>
<polygon fill="midnightblue" stroke="midnightblue" points="34.79,-306.38 33.6,-316.91 41.1,-309.42 34.79,-306.38"/>
</g>
<!-- Node123 -->
<g id="node13" class="node">
<title>Node123</title>
<g id="a_node13"><a xlink:href="d5/d6b/classpyclustering_1_1nnet_1_1solve__type.html" target="_top" xlink:title="Enumerator of solver types that are used for network simulation.">
<polygon fill="white" stroke="black" points="141,-175 141,-194 299,-194 299,-175 141,-175"/>
<text text-anchor="middle" x="220" y="-182" font-family="Helvetica,sans-Serif" font-size="10.00">pyclustering.nnet.solve_type</text>
</a>
</g>
</g>
<!-- Node111&#45;&gt;Node123 -->
<g id="edge12" class="edge">
<title>Node111&#45;&gt;Node123</title>
<path fill="none" stroke="midnightblue" d="M33.66,-307.12C40.71,-279.33 57.82,-228.72 93,-203.5 106.93,-193.51 123.98,-187.83 140.98,-184.76"/>
<polygon fill="midnightblue" stroke="midnightblue" points="30.25,-306.34 31.36,-316.87 37.06,-307.94 30.25,-306.34"/>
</g>
<!-- Node124 -->
<g id="node14" class="node">
<title>Node124</title>
<g id="a_node14"><a xlink:href="da/d42/classpyclustering_1_1nnet_1_1som_1_1type__conn.html" target="_top" xlink:title="Enumeration of connection types for SOM.">
<polygon fill="white" stroke="black" points="130.5,-137 130.5,-156 309.5,-156 309.5,-137 130.5,-137"/>
<text text-anchor="middle" x="220" y="-144" font-family="Helvetica,sans-Serif" font-size="10.00">pyclustering.nnet.som.type_conn</text>
</a>
</g>
</g>
<!-- Node111&#45;&gt;Node124 -->
<g id="edge13" class="edge">
<title>Node111&#45;&gt;Node124</title>
<path fill="none" stroke="midnightblue" d="M31.11,-306.77C35.05,-272.2 48.44,-200.98 93,-165.5 103.82,-156.89 116.86,-151.35 130.4,-147.89"/>
<polygon fill="midnightblue" stroke="midnightblue" points="27.6,-306.69 30.1,-316.99 34.56,-307.38 27.6,-306.69"/>
</g>
<!-- Node125 -->
<g id="node15" class="node">
<title>Node125</title>
<g id="a_node15"><a xlink:href="df/d7b/classpyclustering_1_1nnet_1_1som_1_1type__init.html" target="_top" xlink:title="Enumeration of initialization types for SOM.">
<polygon fill="white" stroke="black" points="134.5,-99 134.5,-118 305.5,-118 305.5,-99 134.5,-99"/>
<text text-anchor="middle" x="220" y="-106" font-family="Helvetica,sans-Serif" font-size="10.00">pyclustering.nnet.som.type_init</text>
</a>
</g>
</g>
<!-- Node111&#45;&gt;Node125 -->
<g id="edge14" class="edge">
<title>Node111&#45;&gt;Node125</title>
<path fill="none" stroke="midnightblue" d="M29.41,-306.49C30.41,-265.86 38.87,-173.63 93,-127.5 104.7,-117.53 119.34,-111.57 134.45,-108.18"/>
<polygon fill="midnightblue" stroke="midnightblue" points="25.91,-306.67 29.3,-316.71 32.91,-306.75 25.91,-306.67"/>
</g>
<!-- Node126 -->
<g id="node16" class="node">
<title>Node126</title>
<g id="a_node16"><a xlink:href="dc/dee/classpyclustering_1_1utils_1_1graph_1_1type__graph__descr.html" target="_top" xlink:title="Enumeration of graph description.">
<polygon fill="white" stroke="black" points="142,-49.5 142,-79.5 298,-79.5 298,-49.5 142,-49.5"/>
<text text-anchor="start" x="150" y="-67.5" font-family="Helvetica,sans-Serif" font-size="10.00">pyclustering.utils.graph.type</text>
<text text-anchor="middle" x="220" y="-56.5" font-family="Helvetica,sans-Serif" font-size="10.00">_graph_descr</text>
</a>
</g>
</g>
<!-- Node111&#45;&gt;Node126 -->
<g id="edge15" class="edge">
<title>Node111&#45;&gt;Node126</title>
<path fill="none" stroke="midnightblue" d="M32.11,-306.63C39.29,-255.19 60.91,-119.54 93,-89.5 106.27,-77.08 123.86,-70.03 141.68,-66.2"/>
<polygon fill="midnightblue" stroke="midnightblue" points="28.61,-306.4 30.74,-316.78 35.55,-307.34 28.61,-306.4"/>
</g>
<!-- Node127 -->
<g id="node17" class="node">
<title>Node127</title>
<g id="a_node17"><a xlink:href="da/d3a/classpyclustering_1_1utils_1_1metric_1_1type__metric.html" target="_top" xlink:title="Enumeration of supported metrics in the module for distance calculation between two points.">
<polygon fill="white" stroke="black" points="140,-0.5 140,-30.5 300,-30.5 300,-0.5 140,-0.5"/>
<text text-anchor="start" x="148" y="-18.5" font-family="Helvetica,sans-Serif" font-size="10.00">pyclustering.utils.metric.type</text>
<text text-anchor="middle" x="220" y="-7.5" font-family="Helvetica,sans-Serif" font-size="10.00">_metric</text>
</a>
</g>
</g>
<!-- Node111&#45;&gt;Node127 -->
<g id="edge16" class="edge">
<title>Node111&#45;&gt;Node127</title>
<path fill="none" stroke="midnightblue" d="M31.11,-306.91C36.3,-248.63 54.56,-78.08 93,-40.5 105.68,-28.11 122.63,-21 139.99,-17.09"/>
<polygon fill="midnightblue" stroke="midnightblue" points="27.61,-306.73 30.24,-317 34.59,-307.33 27.61,-306.73"/>
</g>
</g>
</svg>
