<?xml version="1.0" encoding="UTF-8" standalone="no"?>
<!DOCTYPE svg PUBLIC "-//W3C//DTD SVG 1.1//EN"
 "http://www.w3.org/Graphics/SVG/1.1/DTD/svg11.dtd">
<!-- Generated by graphviz version 2.43.0 (0)
 -->
<!-- Title: Graphical Class Hierarchy Pages: 1 -->
<svg width="389pt" height="66pt"
 viewBox="0.00 0.00 389.00 66.00" xmlns="http://www.w3.org/2000/svg" xmlns:xlink="http://www.w3.org/1999/xlink">
<g id="graph0" class="graph" transform="scale(1 1) rotate(0) translate(4 62)">
<title>Graphical Class Hierarchy</title>
<polygon fill="white" stroke="transparent" points="-4,4 -4,-62 385,-62 385,4 -4,4"/>
<!-- Node0 -->
<g id="node1" class="node">
<title>Node0</title>
<g id="a_node1"><a xlink:href="db/d8b/classpyclustering_1_1cluster_1_1bsas_1_1bsas.html" target="_top" xlink:title="Class represents BSAS clustering algorithm &#45; basic sequential algorithmic scheme.">
<polygon fill="white" stroke="black" points="0,-19.5 0,-38.5 163,-38.5 163,-19.5 0,-19.5"/>
<text text-anchor="middle" x="81.5" y="-26.5" font-family="Helvetica,sans-Serif" font-size="10.00">pyclustering.cluster.bsas.bsas</text>
</a>
</g>
</g>
<!-- Node1 -->
<g id="node2" class="node">
<title>Node1</title>
<g id="a_node2"><a xlink:href="da/da9/classpyclustering_1_1cluster_1_1mbsas_1_1mbsas.html" target="_top" xlink:title="Class represents MBSAS (Modified Basic Sequential Algorithmic Scheme).">
<polygon fill="white" stroke="black" points="199,-38.5 199,-57.5 381,-57.5 381,-38.5 199,-38.5"/>
<text text-anchor="middle" x="290" y="-45.5" font-family="Helvetica,sans-Serif" font-size="10.00">pyclustering.cluster.mbsas.mbsas</text>
</a>
</g>
</g>
<!-- Node0&#45;&gt;Node1 -->
<g id="edge1" class="edge">
<title>Node0&#45;&gt;Node1</title>
<path fill="none" stroke="midnightblue" d="M173.41,-37.37C181.83,-38.14 190.35,-38.92 198.75,-39.7"/>
<polygon fill="midnightblue" stroke="midnightblue" points="173.5,-33.86 163.23,-36.43 172.86,-40.83 173.5,-33.86"/>
</g>
<!-- Node2 -->
<g id="node3" class="node">
<title>Node2</title>
<g id="a_node3"><a xlink:href="df/db9/classpyclustering_1_1cluster_1_1ttsas_1_1ttsas.html" target="_top" xlink:title="Class represents TTSAS (Two&#45;Threshold Sequential Algorithmic Scheme).">
<polygon fill="white" stroke="black" points="207,-0.5 207,-19.5 373,-19.5 373,-0.5 207,-0.5"/>
<text text-anchor="middle" x="290" y="-7.5" font-family="Helvetica,sans-Serif" font-size="10.00">pyclustering.cluster.ttsas.ttsas</text>
</a>
</g>
</g>
<!-- Node0&#45;&gt;Node2 -->
<g id="edge2" class="edge">
<title>Node0&#45;&gt;Node2</title>
<path fill="none" stroke="midnightblue" d="M173.41,-20.64C184.58,-19.61 195.94,-18.56 206.97,-17.55"/>
<polygon fill="midnightblue" stroke="midnightblue" points="172.86,-17.17 163.23,-21.57 173.5,-24.14 172.86,-17.17"/>
</g>
</g>
</svg>
