<?xml version="1.0" encoding="UTF-8" standalone="no"?>
<!DOCTYPE svg PUBLIC "-//W3C//DTD SVG 1.1//EN"
 "http://www.w3.org/Graphics/SVG/1.1/DTD/svg11.dtd">
<!-- Generated by graphviz version 2.43.0 (0)
 -->
<!-- Title: Graphical Class Hierarchy Pages: 1 -->
<svg width="919pt" height="317pt"
 viewBox="0.00 0.00 919.00 316.50" xmlns="http://www.w3.org/2000/svg" xmlns:xlink="http://www.w3.org/1999/xlink">
<g id="graph0" class="graph" transform="scale(1 1) rotate(0) translate(4 312.5)">
<title>Graphical Class Hierarchy</title>
<polygon fill="white" stroke="transparent" points="-4,4 -4,-312.5 915,-312.5 915,4 -4,4"/>
<!-- Node0 -->
<g id="node1" class="node">
<title>Node0</title>
<g id="a_node1"><a xlink:href="d5/d9f/classpyclustering_1_1nnet_1_1network.html" target="_top" xlink:title="Common network description that consists of information about oscillators and connection between them...">
<polygon fill="white" stroke="black" points="0,-160.5 0,-179.5 144,-179.5 144,-160.5 0,-160.5"/>
<text text-anchor="middle" x="72" y="-167.5" font-family="Helvetica,sans-Serif" font-size="10.00">pyclustering.nnet.network</text>
</a>
</g>
</g>
<!-- Node1 -->
<g id="node2" class="node">
<title>Node1</title>
<g id="a_node2"><a xlink:href="dc/d73/classpyclustering_1_1nnet_1_1fsync_1_1fsync__network.html" target="_top" xlink:title="Model of oscillatory network that uses Landau&#45;Stuart oscillator and Kuramoto model as a synchronizati...">
<polygon fill="white" stroke="black" points="204,-278 204,-308 364,-308 364,-278 204,-278"/>
<text text-anchor="start" x="212" y="-296" font-family="Helvetica,sans-Serif" font-size="10.00">pyclustering.nnet.fsync.fsync</text>
<text text-anchor="middle" x="284" y="-285" font-family="Helvetica,sans-Serif" font-size="10.00">_network</text>
</a>
</g>
</g>
<!-- Node0&#45;&gt;Node1 -->
<g id="edge1" class="edge">
<title>Node0&#45;&gt;Node1</title>
<path fill="none" stroke="midnightblue" d="M86.96,-187.65C105.68,-210.08 141.12,-248.37 180,-269 187.46,-272.96 195.57,-276.27 203.84,-279.04"/>
<polygon fill="midnightblue" stroke="midnightblue" points="89.45,-185.16 80.41,-179.63 84.02,-189.59 89.45,-185.16"/>
</g>
<!-- Node2 -->
<g id="node3" class="node">
<title>Node2</title>
<g id="a_node3"><a xlink:href="de/dec/classpyclustering_1_1nnet_1_1hhn_1_1hhn__network.html" target="_top" xlink:title="Oscillatory Neural Network with central element based on Hodgkin&#45;Huxley neuron model.">
<polygon fill="white" stroke="black" points="212.5,-229 212.5,-259 355.5,-259 355.5,-229 212.5,-229"/>
<text text-anchor="start" x="220.5" y="-247" font-family="Helvetica,sans-Serif" font-size="10.00">pyclustering.nnet.hhn.hhn</text>
<text text-anchor="middle" x="284" y="-236" font-family="Helvetica,sans-Serif" font-size="10.00">_network</text>
</a>
</g>
</g>
<!-- Node0&#45;&gt;Node2 -->
<g id="edge2" class="edge">
<title>Node0&#45;&gt;Node2</title>
<path fill="none" stroke="midnightblue" d="M99.76,-184.41C121.02,-195.39 151.77,-210.23 180,-220 190.32,-223.57 201.41,-226.78 212.35,-229.6"/>
<polygon fill="midnightblue" stroke="midnightblue" points="101.18,-181.21 90.7,-179.67 97.93,-187.41 101.18,-181.21"/>
</g>
<!-- Node3 -->
<g id="node4" class="node">
<title>Node3</title>
<g id="a_node4"><a xlink:href="dd/dea/classpyclustering_1_1nnet_1_1hysteresis_1_1hysteresis__network.html" target="_top" xlink:title="Hysteresis oscillatory network that uses relaxation oscillators that are represented by objective hys...">
<polygon fill="white" stroke="black" points="180,-180 180,-210 388,-210 388,-180 180,-180"/>
<text text-anchor="start" x="188" y="-198" font-family="Helvetica,sans-Serif" font-size="10.00">pyclustering.nnet.hysteresis.hysteresis</text>
<text text-anchor="middle" x="284" y="-187" font-family="Helvetica,sans-Serif" font-size="10.00">_network</text>
</a>
</g>
</g>
<!-- Node0&#45;&gt;Node3 -->
<g id="edge3" class="edge">
<title>Node0&#45;&gt;Node3</title>
<path fill="none" stroke="midnightblue" d="M154.24,-179.67C162.66,-180.67 171.3,-181.7 179.91,-182.73"/>
<polygon fill="midnightblue" stroke="midnightblue" points="154.44,-176.17 144.1,-178.46 153.61,-183.12 154.44,-176.17"/>
</g>
<!-- Node5 -->
<g id="node6" class="node">
<title>Node5</title>
<g id="a_node6"><a xlink:href="d4/dc2/classpyclustering_1_1nnet_1_1legion_1_1legion__network.html" target="_top" xlink:title="Local excitatory global inhibitory oscillatory network (LEGION) that uses relaxation oscillator based...">
<polygon fill="white" stroke="black" points="200.5,-131 200.5,-161 367.5,-161 367.5,-131 200.5,-131"/>
<text text-anchor="start" x="208.5" y="-149" font-family="Helvetica,sans-Serif" font-size="10.00">pyclustering.nnet.legion.legion</text>
<text text-anchor="middle" x="284" y="-138" font-family="Helvetica,sans-Serif" font-size="10.00">_network</text>
</a>
</g>
</g>
<!-- Node0&#45;&gt;Node5 -->
<g id="edge5" class="edge">
<title>Node0&#45;&gt;Node5</title>
<path fill="none" stroke="midnightblue" d="M154.41,-160.7C169.49,-158.97 185.26,-157.17 200.38,-155.44"/>
<polygon fill="midnightblue" stroke="midnightblue" points="153.63,-157.26 144.1,-161.87 154.43,-164.22 153.63,-157.26"/>
</g>
<!-- Node6 -->
<g id="node7" class="node">
<title>Node6</title>
<g id="a_node7"><a xlink:href="d0/da2/classpyclustering_1_1nnet_1_1pcnn_1_1pcnn__network.html" target="_top" xlink:title="Model of oscillatory network that is based on the Eckhorn model.">
<polygon fill="white" stroke="black" points="207,-82 207,-112 361,-112 361,-82 207,-82"/>
<text text-anchor="start" x="215" y="-100" font-family="Helvetica,sans-Serif" font-size="10.00">pyclustering.nnet.pcnn.pcnn</text>
<text text-anchor="middle" x="284" y="-89" font-family="Helvetica,sans-Serif" font-size="10.00">_network</text>
</a>
</g>
</g>
<!-- Node0&#45;&gt;Node6 -->
<g id="edge6" class="edge">
<title>Node0&#45;&gt;Node6</title>
<path fill="none" stroke="midnightblue" d="M100.61,-155.92C121.89,-145.49 152.27,-131.49 180,-122 190.71,-118.33 202.21,-114.99 213.52,-112.02"/>
<polygon fill="midnightblue" stroke="midnightblue" points="98.92,-152.85 91.52,-160.43 102.03,-159.12 98.92,-152.85"/>
</g>
<!-- Node7 -->
<g id="node8" class="node">
<title>Node7</title>
<g id="a_node8"><a xlink:href="db/de3/classpyclustering_1_1nnet_1_1sync_1_1sync__network.html" target="_top" xlink:title="Model of oscillatory network that is based on the Kuramoto model of synchronization.">
<polygon fill="white" stroke="black" points="208,-33 208,-63 360,-63 360,-33 208,-33"/>
<text text-anchor="start" x="216" y="-51" font-family="Helvetica,sans-Serif" font-size="10.00">pyclustering.nnet.sync.sync</text>
<text text-anchor="middle" x="284" y="-40" font-family="Helvetica,sans-Serif" font-size="10.00">_network</text>
</a>
</g>
</g>
<!-- Node0&#45;&gt;Node7 -->
<g id="edge7" class="edge">
<title>Node0&#45;&gt;Node7</title>
<path fill="none" stroke="midnightblue" d="M87.35,-152.44C106.27,-130.48 141.66,-93.31 180,-73 188.7,-68.39 198.26,-64.62 207.94,-61.53"/>
<polygon fill="midnightblue" stroke="midnightblue" points="84.49,-150.4 80.72,-160.3 89.84,-154.91 84.49,-150.4"/>
</g>
<!-- Node4 -->
<g id="node5" class="node">
<title>Node4</title>
<g id="a_node5"><a xlink:href="df/df9/classpyclustering_1_1gcolor_1_1hysteresis_1_1hysteresisgcolor.html" target="_top" xlink:title="Class represents graph coloring algorithm based on hysteresis oscillatory network.">
<polygon fill="white" stroke="black" points="424,-185.5 424,-204.5 669,-204.5 669,-185.5 424,-185.5"/>
<text text-anchor="middle" x="546.5" y="-192.5" font-family="Helvetica,sans-Serif" font-size="10.00">pyclustering.gcolor.hysteresis.hysteresisgcolor</text>
</a>
</g>
</g>
<!-- Node3&#45;&gt;Node4 -->
<g id="edge4" class="edge">
<title>Node3&#45;&gt;Node4</title>
<path fill="none" stroke="midnightblue" d="M398.5,-195C406.88,-195 415.35,-195 423.78,-195"/>
<polygon fill="midnightblue" stroke="midnightblue" points="398.33,-191.5 388.33,-195 398.33,-198.5 398.33,-191.5"/>
</g>
<!-- Node8 -->
<g id="node9" class="node">
<title>Node8</title>
<g id="a_node9"><a xlink:href="d4/d98/classpyclustering_1_1cluster_1_1syncnet_1_1syncnet.html" target="_top" xlink:title="Class represents clustering algorithm SyncNet.">
<polygon fill="white" stroke="black" points="449.5,-76.5 449.5,-95.5 643.5,-95.5 643.5,-76.5 449.5,-76.5"/>
<text text-anchor="middle" x="546.5" y="-83.5" font-family="Helvetica,sans-Serif" font-size="10.00">pyclustering.cluster.syncnet.syncnet</text>
</a>
</g>
</g>
<!-- Node7&#45;&gt;Node8 -->
<g id="edge8" class="edge">
<title>Node7&#45;&gt;Node8</title>
<path fill="none" stroke="midnightblue" d="M370.27,-60.44C405.96,-65.64 446.79,-71.6 480.05,-76.45"/>
<polygon fill="midnightblue" stroke="midnightblue" points="370.75,-56.97 360.35,-58.99 369.74,-63.9 370.75,-56.97"/>
</g>
<!-- Node10 -->
<g id="node11" class="node">
<title>Node10</title>
<g id="a_node11"><a xlink:href="d5/d98/classpyclustering_1_1gcolor_1_1sync_1_1syncgcolor.html" target="_top" xlink:title="Oscillatory network based on Kuramoto model with negative and positive connections for graph coloring...">
<polygon fill="white" stroke="black" points="451.5,-38.5 451.5,-57.5 641.5,-57.5 641.5,-38.5 451.5,-38.5"/>
<text text-anchor="middle" x="546.5" y="-45.5" font-family="Helvetica,sans-Serif" font-size="10.00">pyclustering.gcolor.sync.syncgcolor</text>
</a>
</g>
</g>
<!-- Node7&#45;&gt;Node10 -->
<g id="edge10" class="edge">
<title>Node7&#45;&gt;Node10</title>
<path fill="none" stroke="midnightblue" d="M370.5,-48C396.36,-48 424.91,-48 451.32,-48"/>
<polygon fill="midnightblue" stroke="midnightblue" points="370.35,-44.5 360.35,-48 370.35,-51.5 370.35,-44.5"/>
</g>
<!-- Node11 -->
<g id="node12" class="node">
<title>Node11</title>
<g id="a_node12"><a xlink:href="d8/d08/classpyclustering_1_1nnet_1_1syncpr_1_1syncpr.html" target="_top" xlink:title="Model of phase oscillatory network for pattern recognition that is based on the Kuramoto model.">
<polygon fill="white" stroke="black" points="461,-0.5 461,-19.5 632,-19.5 632,-0.5 461,-0.5"/>
<text text-anchor="middle" x="546.5" y="-7.5" font-family="Helvetica,sans-Serif" font-size="10.00">pyclustering.nnet.syncpr.syncpr</text>
</a>
</g>
</g>
<!-- Node7&#45;&gt;Node11 -->
<g id="edge11" class="edge">
<title>Node7&#45;&gt;Node11</title>
<path fill="none" stroke="midnightblue" d="M370.27,-35.56C405.96,-30.36 446.79,-24.4 480.05,-19.55"/>
<polygon fill="midnightblue" stroke="midnightblue" points="369.74,-32.1 360.35,-37.01 370.75,-39.03 369.74,-32.1"/>
</g>
<!-- Node9 -->
<g id="node10" class="node">
<title>Node9</title>
<g id="a_node10"><a xlink:href="d5/d0a/classpyclustering_1_1cluster_1_1hsyncnet_1_1hsyncnet.html" target="_top" xlink:title="Class represents clustering algorithm HSyncNet.">
<polygon fill="white" stroke="black" points="705,-76.5 705,-95.5 911,-95.5 911,-76.5 705,-76.5"/>
<text text-anchor="middle" x="808" y="-83.5" font-family="Helvetica,sans-Serif" font-size="10.00">pyclustering.cluster.hsyncnet.hsyncnet</text>
</a>
</g>
</g>
<!-- Node8&#45;&gt;Node9 -->
<g id="edge9" class="edge">
<title>Node8&#45;&gt;Node9</title>
<path fill="none" stroke="midnightblue" d="M654.11,-86C670.87,-86 688.15,-86 704.81,-86"/>
<polygon fill="midnightblue" stroke="midnightblue" points="653.76,-82.5 643.76,-86 653.76,-89.5 653.76,-82.5"/>
</g>
</g>
</svg>
