<?xml version="1.0" encoding="UTF-8" standalone="no"?>
<!DOCTYPE svg PUBLIC "-//W3C//DTD SVG 1.1//EN"
 "http://www.w3.org/Graphics/SVG/1.1/DTD/svg11.dtd">
<!-- Generated by graphviz version 2.43.0 (0)
 -->
<!-- Title: Graphical Class Hierarchy Pages: 1 -->
<svg width="467pt" height="39pt"
 viewBox="0.00 0.00 467.00 39.00" xmlns="http://www.w3.org/2000/svg" xmlns:xlink="http://www.w3.org/1999/xlink">
<g id="graph0" class="graph" transform="scale(1 1) rotate(0) translate(4 35)">
<title>Graphical Class Hierarchy</title>
<polygon fill="white" stroke="transparent" points="-4,4 -4,-35 463,-35 463,4 -4,4"/>
<!-- Node0 -->
<g id="node1" class="node">
<title>Node0</title>
<g id="a_node1"><a xlink:href="d8/d15/classpyclustering_1_1nnet_1_1hysteresis_1_1hysteresis__dynamic.html" target="_top" xlink:title="Represents output dynamic of hysteresis oscillatory network.">
<polygon fill="white" stroke="black" points="0,-0.5 0,-30.5 208,-30.5 208,-0.5 0,-0.5"/>
<text text-anchor="start" x="8" y="-18.5" font-family="Helvetica,sans-Serif" font-size="10.00">pyclustering.nnet.hysteresis.hysteresis</text>
<text text-anchor="middle" x="104" y="-7.5" font-family="Helvetica,sans-Serif" font-size="10.00">_dynamic</text>
</a>
</g>
</g>
<!-- Node1 -->
<g id="node2" class="node">
<title>Node1</title>
<g id="a_node2"><a xlink:href="df/de3/classpyclustering_1_1gcolor_1_1hysteresis_1_1hysteresis__analyser.html" target="_top" xlink:title="Performs analysis of output dynamic of the hysteresis oscillatory network to extract information abou...">
<polygon fill="white" stroke="black" points="244,-0.5 244,-30.5 459,-30.5 459,-0.5 244,-0.5"/>
<text text-anchor="start" x="252" y="-18.5" font-family="Helvetica,sans-Serif" font-size="10.00">pyclustering.gcolor.hysteresis.hysteresis</text>
<text text-anchor="middle" x="351.5" y="-7.5" font-family="Helvetica,sans-Serif" font-size="10.00">_analyser</text>
</a>
</g>
</g>
<!-- Node0&#45;&gt;Node1 -->
<g id="edge1" class="edge">
<title>Node0&#45;&gt;Node1</title>
<path fill="none" stroke="midnightblue" d="M218.06,-15.5C226.62,-15.5 235.25,-15.5 243.77,-15.5"/>
<polygon fill="midnightblue" stroke="midnightblue" points="218.05,-12 208.05,-15.5 218.05,-19 218.05,-12"/>
</g>
</g>
</svg>
