<?xml version="1.0" encoding="UTF-8" standalone="no"?>
<!DOCTYPE svg PUBLIC "-//W3C//DTD SVG 1.1//EN"
 "http://www.w3.org/Graphics/SVG/1.1/DTD/svg11.dtd">
<!-- Generated by graphviz version 2.43.0 (0)
 -->
<!-- Title: Graphical Class Hierarchy Pages: 1 -->
<svg width="390pt" height="137pt"
 viewBox="0.00 0.00 390.00 137.00" xmlns="http://www.w3.org/2000/svg" xmlns:xlink="http://www.w3.org/1999/xlink">
<g id="graph0" class="graph" transform="scale(1 1) rotate(0) translate(4 133)">
<title>Graphical Class Hierarchy</title>
<polygon fill="white" stroke="transparent" points="-4,4 -4,-133 386,-133 386,4 -4,4"/>
<!-- Node0 -->
<g id="node1" class="node">
<title>Node0</title>
<g id="a_node1"><a xlink:href="dc/d2d/classpyclustering_1_1nnet_1_1sync_1_1sync__dynamic.html" target="_top" xlink:title="Represents output dynamic of Sync.">
<polygon fill="white" stroke="black" points="0,-49.5 0,-79.5 152,-79.5 152,-49.5 0,-49.5"/>
<text text-anchor="start" x="8" y="-67.5" font-family="Helvetica,sans-Serif" font-size="10.00">pyclustering.nnet.sync.sync</text>
<text text-anchor="middle" x="76" y="-56.5" font-family="Helvetica,sans-Serif" font-size="10.00">_dynamic</text>
</a>
</g>
</g>
<!-- Node1 -->
<g id="node2" class="node">
<title>Node1</title>
<g id="a_node2"><a xlink:href="da/d8f/classpyclustering_1_1cluster_1_1syncnet_1_1syncnet__analyser.html" target="_top" xlink:title="Performs analysis of output dynamic of the oscillatory network syncnet to extract information about c...">
<polygon fill="white" stroke="black" points="188,-98.5 188,-128.5 382,-128.5 382,-98.5 188,-98.5"/>
<text text-anchor="start" x="196" y="-116.5" font-family="Helvetica,sans-Serif" font-size="10.00">pyclustering.cluster.syncnet.syncnet</text>
<text text-anchor="middle" x="285" y="-105.5" font-family="Helvetica,sans-Serif" font-size="10.00">_analyser</text>
</a>
</g>
</g>
<!-- Node0&#45;&gt;Node1 -->
<g id="edge1" class="edge">
<title>Node0&#45;&gt;Node1</title>
<path fill="none" stroke="midnightblue" d="M150.52,-81.9C173.42,-87.32 198.46,-93.25 220.61,-98.49"/>
<polygon fill="midnightblue" stroke="midnightblue" points="151.05,-78.43 140.51,-79.53 149.44,-85.24 151.05,-78.43"/>
</g>
<!-- Node2 -->
<g id="node3" class="node">
<title>Node2</title>
<g id="a_node3"><a xlink:href="d5/d9e/classpyclustering_1_1gcolor_1_1sync_1_1syncgcolor__analyser.html" target="_top" xlink:title="Analyser of output dynamic of the oscillatory network syncgcolor.">
<polygon fill="white" stroke="black" points="190,-49.5 190,-79.5 380,-79.5 380,-49.5 190,-49.5"/>
<text text-anchor="start" x="198" y="-67.5" font-family="Helvetica,sans-Serif" font-size="10.00">pyclustering.gcolor.sync.syncgcolor</text>
<text text-anchor="middle" x="285" y="-56.5" font-family="Helvetica,sans-Serif" font-size="10.00">_analyser</text>
</a>
</g>
</g>
<!-- Node0&#45;&gt;Node2 -->
<g id="edge2" class="edge">
<title>Node0&#45;&gt;Node2</title>
<path fill="none" stroke="midnightblue" d="M162.2,-64.5C171.3,-64.5 180.59,-64.5 189.79,-64.5"/>
<polygon fill="midnightblue" stroke="midnightblue" points="162.02,-61 152.02,-64.5 162.02,-68 162.02,-61"/>
</g>
<!-- Node3 -->
<g id="node4" class="node">
<title>Node3</title>
<g id="a_node4"><a xlink:href="d3/deb/classpyclustering_1_1nnet_1_1syncpr_1_1syncpr__dynamic.html" target="_top" xlink:title="Represents output dynamic of syncpr (Sync for Pattern Recognition).">
<polygon fill="white" stroke="black" points="199.5,-0.5 199.5,-30.5 370.5,-30.5 370.5,-0.5 199.5,-0.5"/>
<text text-anchor="start" x="207.5" y="-18.5" font-family="Helvetica,sans-Serif" font-size="10.00">pyclustering.nnet.syncpr.syncpr</text>
<text text-anchor="middle" x="285" y="-7.5" font-family="Helvetica,sans-Serif" font-size="10.00">_dynamic</text>
</a>
</g>
</g>
<!-- Node0&#45;&gt;Node3 -->
<g id="edge3" class="edge">
<title>Node0&#45;&gt;Node3</title>
<path fill="none" stroke="midnightblue" d="M150.52,-47.1C173.42,-41.68 198.46,-35.75 220.61,-30.51"/>
<polygon fill="midnightblue" stroke="midnightblue" points="149.44,-43.76 140.51,-49.47 151.05,-50.57 149.44,-43.76"/>
</g>
</g>
</svg>
