<?xml version="1.0" encoding="UTF-8" standalone="no"?>
<!DOCTYPE svg PUBLIC "-//W3C//DTD SVG 1.1//EN"
 "http://www.w3.org/Graphics/SVG/1.1/DTD/svg11.dtd">
<!-- Generated by graphviz version 2.40.1 (20161225.0304)
 -->
<!-- Title: pyclustering.gcolor.hysteresis.hysteresis_analyser Pages: 1 -->
<svg width="202pt" height="106pt"
 viewBox="0.00 0.00 202.00 106.00" xmlns="http://www.w3.org/2000/svg" xmlns:xlink="http://www.w3.org/1999/xlink">
<g id="graph0" class="graph" transform="scale(1 1) rotate(0) translate(4 102)">
<title>pyclustering.gcolor.hysteresis.hysteresis_analyser</title>
<polygon fill="#ffffff" stroke="transparent" points="-4,4 -4,-102 198,-102 198,4 -4,4"/>
<!-- Node2 -->
<g id="node1" class="node">
<title>Node2</title>
<polygon fill="#bfbfbf" stroke="#000000" points="0,-.5 0,-30.5 194,-30.5 194,-.5 0,-.5"/>
<text text-anchor="start" x="8" y="-18.5" font-family="Helvetica,sans-Serif" font-size="10.00" fill="#000000">pyclustering.gcolor.hysteresis.hysteresis</text>
<text text-anchor="middle" x="97" y="-7.5" font-family="Helvetica,sans-Serif" font-size="10.00" fill="#000000">_analyser</text>
</g>
<!-- Node3 -->
<g id="node2" class="node">
<title>Node3</title>
<g id="a_node2"><a xlink:href="../../d8/d15/classpyclustering_1_1nnet_1_1hysteresis_1_1hysteresis__dynamic.html" target="_top" xlink:title="Represents output dynamic of hysteresis oscillatory network. ">
<polygon fill="#ffffff" stroke="#000000" points="3.5,-67.5 3.5,-97.5 190.5,-97.5 190.5,-67.5 3.5,-67.5"/>
<text text-anchor="start" x="11.5" y="-85.5" font-family="Helvetica,sans-Serif" font-size="10.00" fill="#000000">pyclustering.nnet.hysteresis.hysteresis</text>
<text text-anchor="middle" x="97" y="-74.5" font-family="Helvetica,sans-Serif" font-size="10.00" fill="#000000">_dynamic</text>
</a>
</g>
</g>
<!-- Node3&#45;&gt;Node2 -->
<g id="edge1" class="edge">
<title>Node3&#45;&gt;Node2</title>
<path fill="none" stroke="#191970" d="M97,-57.0249C97,-48.128 97,-38.4287 97,-30.6432"/>
<polygon fill="#191970" stroke="#191970" points="93.5001,-57.2966 97,-67.2967 100.5001,-57.2967 93.5001,-57.2966"/>
</g>
</g>
</svg>
