<?xml version="1.0" encoding="UTF-8" standalone="no"?>
<!DOCTYPE svg PUBLIC "-//W3C//DTD SVG 1.1//EN"
 "http://www.w3.org/Graphics/SVG/1.1/DTD/svg11.dtd">
<!-- Generated by graphviz version 2.40.1 (20161225.0304)
 -->
<!-- Title: pyclustering.nnet.sync.sync_network Pages: 1 -->
<svg width="745pt" height="104pt"
 viewBox="0.00 0.00 745.00 104.00" xmlns="http://www.w3.org/2000/svg" xmlns:xlink="http://www.w3.org/1999/xlink">
<g id="graph0" class="graph" transform="scale(1 1) rotate(0) translate(4 100)">
<title>pyclustering.nnet.sync.sync_network</title>
<polygon fill="#ffffff" stroke="transparent" points="-4,4 -4,-100 741,-100 741,4 -4,4"/>
<!-- Node0 -->
<g id="node1" class="node">
<title>Node0</title>
<polygon fill="#bfbfbf" stroke="#000000" points="164,-33 164,-63 303,-63 303,-33 164,-33"/>
<text text-anchor="start" x="172" y="-51" font-family="Helvetica,sans-Serif" font-size="10.00" fill="#000000">pyclustering.nnet.sync.sync</text>
<text text-anchor="middle" x="233.5" y="-40" font-family="Helvetica,sans-Serif" font-size="10.00" fill="#000000">_network</text>
</g>
<!-- Node2 -->
<g id="node3" class="node">
<title>Node2</title>
<g id="a_node3"><a xlink:href="../../d4/d98/classpyclustering_1_1cluster_1_1syncnet_1_1syncnet.html" target="_top" xlink:title="Class represents clustering algorithm SyncNet. ">
<polygon fill="#ffffff" stroke="#000000" points="339,-76.5 339,-95.5 515,-95.5 515,-76.5 339,-76.5"/>
<text text-anchor="middle" x="427" y="-83.5" font-family="Helvetica,sans-Serif" font-size="10.00" fill="#000000">pyclustering.cluster.syncnet.syncnet</text>
</a>
</g>
</g>
<!-- Node0&#45;&gt;Node2 -->
<g id="edge2" class="edge">
<title>Node0&#45;&gt;Node2</title>
<path fill="none" stroke="#191970" d="M313.179,-63.6476C335.3771,-68.0069 358.8133,-72.6093 378.612,-76.4975"/>
<polygon fill="#191970" stroke="#191970" points="313.5716,-60.1579 303.0846,-61.6652 312.2227,-67.0267 313.5716,-60.1579"/>
</g>
<!-- Node4 -->
<g id="node5" class="node">
<title>Node4</title>
<g id="a_node5"><a xlink:href="../../d5/d98/classpyclustering_1_1gcolor_1_1sync_1_1syncgcolor.html" target="_top" xlink:title="Oscillatory network based on Kuramoto model with negative and positive connections for graph coloring...">
<polygon fill="#ffffff" stroke="#000000" points="341,-38.5 341,-57.5 513,-57.5 513,-38.5 341,-38.5"/>
<text text-anchor="middle" x="427" y="-45.5" font-family="Helvetica,sans-Serif" font-size="10.00" fill="#000000">pyclustering.gcolor.sync.syncgcolor</text>
</a>
</g>
</g>
<!-- Node0&#45;&gt;Node4 -->
<g id="edge4" class="edge">
<title>Node0&#45;&gt;Node4</title>
<path fill="none" stroke="#191970" d="M313.2518,-48C322.3508,-48 331.6569,-48 340.8344,-48"/>
<polygon fill="#191970" stroke="#191970" points="313.0846,-44.5001 303.0846,-48 313.0845,-51.5001 313.0846,-44.5001"/>
</g>
<!-- Node5 -->
<g id="node6" class="node">
<title>Node5</title>
<g id="a_node6"><a xlink:href="../../d8/d08/classpyclustering_1_1nnet_1_1syncpr_1_1syncpr.html" target="_top" xlink:title="Model of phase oscillatory network for pattern recognition that is based on the Kuramoto model...">
<polygon fill="#ffffff" stroke="#000000" points="349.5,-.5 349.5,-19.5 504.5,-19.5 504.5,-.5 349.5,-.5"/>
<text text-anchor="middle" x="427" y="-7.5" font-family="Helvetica,sans-Serif" font-size="10.00" fill="#000000">pyclustering.nnet.syncpr.syncpr</text>
</a>
</g>
</g>
<!-- Node0&#45;&gt;Node5 -->
<g id="edge5" class="edge">
<title>Node0&#45;&gt;Node5</title>
<path fill="none" stroke="#191970" d="M313.179,-32.3524C335.3771,-27.9931 358.8133,-23.3907 378.612,-19.5025"/>
<polygon fill="#191970" stroke="#191970" points="312.2227,-28.9733 303.0846,-34.3348 313.5716,-35.8421 312.2227,-28.9733"/>
</g>
<!-- Node1 -->
<g id="node2" class="node">
<title>Node1</title>
<g id="a_node2"><a xlink:href="../../d5/d9f/classpyclustering_1_1nnet_1_1network.html" target="_top" xlink:title="Common network description that consists of information about oscillators and connection between them...">
<polygon fill="#ffffff" stroke="#000000" points="0,-38.5 0,-57.5 128,-57.5 128,-38.5 0,-38.5"/>
<text text-anchor="middle" x="64" y="-45.5" font-family="Helvetica,sans-Serif" font-size="10.00" fill="#000000">pyclustering.nnet.network</text>
</a>
</g>
</g>
<!-- Node1&#45;&gt;Node0 -->
<g id="edge1" class="edge">
<title>Node1&#45;&gt;Node0</title>
<path fill="none" stroke="#191970" d="M138.3602,-48C146.8644,-48 155.5103,-48 163.9484,-48"/>
<polygon fill="#191970" stroke="#191970" points="138.0807,-44.5001 128.0807,-48 138.0806,-51.5001 138.0807,-44.5001"/>
</g>
<!-- Node3 -->
<g id="node4" class="node">
<title>Node3</title>
<g id="a_node4"><a xlink:href="../../d5/d0a/classpyclustering_1_1cluster_1_1hsyncnet_1_1hsyncnet.html" target="_top" xlink:title="Class represents clustering algorithm HSyncNet. ">
<polygon fill="#ffffff" stroke="#000000" points="551,-76.5 551,-95.5 737,-95.5 737,-76.5 551,-76.5"/>
<text text-anchor="middle" x="644" y="-83.5" font-family="Helvetica,sans-Serif" font-size="10.00" fill="#000000">pyclustering.cluster.hsyncnet.hsyncnet</text>
</a>
</g>
</g>
<!-- Node2&#45;&gt;Node3 -->
<g id="edge3" class="edge">
<title>Node2&#45;&gt;Node3</title>
<path fill="none" stroke="#191970" d="M525.5059,-86C533.9483,-86 542.4722,-86 550.8706,-86"/>
<polygon fill="#191970" stroke="#191970" points="525.2622,-82.5001 515.2622,-86 525.2622,-89.5001 525.2622,-82.5001"/>
</g>
</g>
</svg>
