<?xml version="1.0" encoding="UTF-8" standalone="no"?>
<!DOCTYPE svg PUBLIC "-//W3C//DTD SVG 1.1//EN"
 "http://www.w3.org/Graphics/SVG/1.1/DTD/svg11.dtd">
<!-- Generated by graphviz version 2.40.1 (20161225.0304)
 -->
<!-- Title: pyclustering.nnet.hysteresis.hysteresis_network Pages: 1 -->
<svg width="229pt" height="151pt"
 viewBox="0.00 0.00 229.00 151.00" xmlns="http://www.w3.org/2000/svg" xmlns:xlink="http://www.w3.org/1999/xlink">
<g id="graph0" class="graph" transform="scale(1 1) rotate(0) translate(4 147)">
<title>pyclustering.nnet.hysteresis.hysteresis_network</title>
<polygon fill="#ffffff" stroke="transparent" points="-4,4 -4,-147 225,-147 225,4 -4,4"/>
<!-- Node0 -->
<g id="node1" class="node">
<title>Node0</title>
<polygon fill="#bfbfbf" stroke="#000000" points="17,-56.5 17,-86.5 204,-86.5 204,-56.5 17,-56.5"/>
<text text-anchor="start" x="25" y="-74.5" font-family="Helvetica,sans-Serif" font-size="10.00" fill="#000000">pyclustering.nnet.hysteresis.hysteresis</text>
<text text-anchor="middle" x="110.5" y="-63.5" font-family="Helvetica,sans-Serif" font-size="10.00" fill="#000000">_network</text>
</g>
<!-- Node2 -->
<g id="node3" class="node">
<title>Node2</title>
<g id="a_node3"><a xlink:href="../../df/df9/classpyclustering_1_1gcolor_1_1hysteresis_1_1hysteresisgcolor.html" target="_top" xlink:title="Class represents graph coloring algorithm based on hysteresis oscillatory network. ">
<polygon fill="#ffffff" stroke="#000000" points="0,-.5 0,-19.5 221,-19.5 221,-.5 0,-.5"/>
<text text-anchor="middle" x="110.5" y="-7.5" font-family="Helvetica,sans-Serif" font-size="10.00" fill="#000000">pyclustering.gcolor.hysteresis.hysteresisgcolor</text>
</a>
</g>
</g>
<!-- Node0&#45;&gt;Node2 -->
<g id="edge2" class="edge">
<title>Node0&#45;&gt;Node2</title>
<path fill="none" stroke="#191970" d="M110.5,-46.2849C110.5,-36.9858 110.5,-26.9883 110.5,-19.8469"/>
<polygon fill="#191970" stroke="#191970" points="107.0001,-46.2977 110.5,-56.2977 114.0001,-46.2978 107.0001,-46.2977"/>
</g>
<!-- Node1 -->
<g id="node2" class="node">
<title>Node1</title>
<g id="a_node2"><a xlink:href="../../d5/d9f/classpyclustering_1_1nnet_1_1network.html" target="_top" xlink:title="Common network description that consists of information about oscillators and connection between them...">
<polygon fill="#ffffff" stroke="#000000" points="46.5,-123.5 46.5,-142.5 174.5,-142.5 174.5,-123.5 46.5,-123.5"/>
<text text-anchor="middle" x="110.5" y="-130.5" font-family="Helvetica,sans-Serif" font-size="10.00" fill="#000000">pyclustering.nnet.network</text>
</a>
</g>
</g>
<!-- Node1&#45;&gt;Node0 -->
<g id="edge1" class="edge">
<title>Node1&#45;&gt;Node0</title>
<path fill="none" stroke="#191970" d="M110.5,-113.3693C110.5,-104.681 110.5,-94.6241 110.5,-86.5446"/>
<polygon fill="#191970" stroke="#191970" points="107.0001,-113.3906 110.5,-123.3906 114.0001,-113.3907 107.0001,-113.3906"/>
</g>
</g>
</svg>
