<?xml version="1.0" encoding="UTF-8" standalone="no"?>
<!DOCTYPE svg PUBLIC "-//W3C//DTD SVG 1.1//EN"
 "http://www.w3.org/Graphics/SVG/1.1/DTD/svg11.dtd">
<!-- Generated by graphviz version 2.43.0 (0)
 -->
<!-- Title: pyclustering.nnet.sync.sync_network Pages: 1 -->
<svg width="812pt" height="104pt"
 viewBox="0.00 0.00 812.00 104.00" xmlns="http://www.w3.org/2000/svg" xmlns:xlink="http://www.w3.org/1999/xlink">
<g id="graph0" class="graph" transform="scale(1 1) rotate(0) translate(4 100)">
<title>pyclustering.nnet.sync.sync_network</title>
<polygon fill="white" stroke="transparent" points="-4,4 -4,-100 808,-100 808,4 -4,4"/>
<!-- Node1 -->
<g id="node1" class="node">
<title>Node1</title>
<g id="a_node1"><a xlink:title="Model of oscillatory network that is based on the Kuramoto model of synchronization.">
<polygon fill="#bfbfbf" stroke="black" points="180,-33 180,-63 332,-63 332,-33 180,-33"/>
<text text-anchor="start" x="188" y="-51" font-family="Helvetica,sans-Serif" font-size="10.00">pyclustering.nnet.sync.sync</text>
<text text-anchor="middle" x="256" y="-40" font-family="Helvetica,sans-Serif" font-size="10.00">_network</text>
</a>
</g>
</g>
<!-- Node3 -->
<g id="node3" class="node">
<title>Node3</title>
<g id="a_node3"><a xlink:href="../../d4/d98/classpyclustering_1_1cluster_1_1syncnet_1_1syncnet.html" target="_top" xlink:title="Class represents clustering algorithm SyncNet.">
<polygon fill="white" stroke="black" points="368,-76.5 368,-95.5 562,-95.5 562,-76.5 368,-76.5"/>
<text text-anchor="middle" x="465" y="-83.5" font-family="Helvetica,sans-Serif" font-size="10.00">pyclustering.cluster.syncnet.syncnet</text>
</a>
</g>
</g>
<!-- Node1&#45;&gt;Node3 -->
<g id="edge2" class="edge">
<title>Node1&#45;&gt;Node3</title>
<path fill="none" stroke="midnightblue" d="M342.12,-63.63C365.89,-67.99 391,-72.6 412.21,-76.49"/>
<polygon fill="midnightblue" stroke="midnightblue" points="342.49,-60.14 332.02,-61.77 341.23,-67.02 342.49,-60.14"/>
</g>
<!-- Node5 -->
<g id="node5" class="node">
<title>Node5</title>
<g id="a_node5"><a xlink:href="../../d5/d98/classpyclustering_1_1gcolor_1_1sync_1_1syncgcolor.html" target="_top" xlink:title="Oscillatory network based on Kuramoto model with negative and positive connections for graph coloring...">
<polygon fill="white" stroke="black" points="370,-38.5 370,-57.5 560,-57.5 560,-38.5 370,-38.5"/>
<text text-anchor="middle" x="465" y="-45.5" font-family="Helvetica,sans-Serif" font-size="10.00">pyclustering.gcolor.sync.syncgcolor</text>
</a>
</g>
</g>
<!-- Node1&#45;&gt;Node5 -->
<g id="edge4" class="edge">
<title>Node1&#45;&gt;Node5</title>
<path fill="none" stroke="midnightblue" d="M342.2,-48C351.3,-48 360.59,-48 369.79,-48"/>
<polygon fill="midnightblue" stroke="midnightblue" points="342.02,-44.5 332.02,-48 342.02,-51.5 342.02,-44.5"/>
</g>
<!-- Node6 -->
<g id="node6" class="node">
<title>Node6</title>
<g id="a_node6"><a xlink:href="../../d8/d08/classpyclustering_1_1nnet_1_1syncpr_1_1syncpr.html" target="_top" xlink:title="Model of phase oscillatory network for pattern recognition that is based on the Kuramoto model.">
<polygon fill="white" stroke="black" points="379.5,-0.5 379.5,-19.5 550.5,-19.5 550.5,-0.5 379.5,-0.5"/>
<text text-anchor="middle" x="465" y="-7.5" font-family="Helvetica,sans-Serif" font-size="10.00">pyclustering.nnet.syncpr.syncpr</text>
</a>
</g>
</g>
<!-- Node1&#45;&gt;Node6 -->
<g id="edge5" class="edge">
<title>Node1&#45;&gt;Node6</title>
<path fill="none" stroke="midnightblue" d="M342.12,-32.37C365.89,-28.01 391,-23.4 412.21,-19.51"/>
<polygon fill="midnightblue" stroke="midnightblue" points="341.23,-28.98 332.02,-34.23 342.49,-35.86 341.23,-28.98"/>
</g>
<!-- Node2 -->
<g id="node2" class="node">
<title>Node2</title>
<g id="a_node2"><a xlink:href="../../d5/d9f/classpyclustering_1_1nnet_1_1network.html" target="_top" xlink:title="Common network description that consists of information about oscillators and connection between them...">
<polygon fill="white" stroke="black" points="0,-38.5 0,-57.5 144,-57.5 144,-38.5 0,-38.5"/>
<text text-anchor="middle" x="72" y="-45.5" font-family="Helvetica,sans-Serif" font-size="10.00">pyclustering.nnet.network</text>
</a>
</g>
</g>
<!-- Node2&#45;&gt;Node1 -->
<g id="edge1" class="edge">
<title>Node2&#45;&gt;Node1</title>
<path fill="none" stroke="midnightblue" d="M154.17,-48C162.76,-48 171.48,-48 180,-48"/>
<polygon fill="midnightblue" stroke="midnightblue" points="154.15,-44.5 144.15,-48 154.15,-51.5 154.15,-44.5"/>
</g>
<!-- Node4 -->
<g id="node4" class="node">
<title>Node4</title>
<g id="a_node4"><a xlink:href="../../d5/d0a/classpyclustering_1_1cluster_1_1hsyncnet_1_1hsyncnet.html" target="_top" xlink:title="Class represents clustering algorithm HSyncNet.">
<polygon fill="white" stroke="black" points="598,-76.5 598,-95.5 804,-95.5 804,-76.5 598,-76.5"/>
<text text-anchor="middle" x="701" y="-83.5" font-family="Helvetica,sans-Serif" font-size="10.00">pyclustering.cluster.hsyncnet.hsyncnet</text>
</a>
</g>
</g>
<!-- Node3&#45;&gt;Node4 -->
<g id="edge3" class="edge">
<title>Node3&#45;&gt;Node4</title>
<path fill="none" stroke="midnightblue" d="M572.42,-86C580.84,-86 589.34,-86 597.73,-86"/>
<polygon fill="midnightblue" stroke="midnightblue" points="572.19,-82.5 562.19,-86 572.19,-89.5 572.19,-82.5"/>
</g>
</g>
</svg>
