<?xml version="1.0" encoding="UTF-8" standalone="no"?>
<!DOCTYPE svg PUBLIC "-//W3C//DTD SVG 1.1//EN"
 "http://www.w3.org/Graphics/SVG/1.1/DTD/svg11.dtd">
<!-- Generated by graphviz version 2.43.0 (0)
 -->
<!-- Title: pyclustering.nnet.sync.sync_visualizer Pages: 1 -->
<svg width="390pt" height="88pt"
 viewBox="0.00 0.00 390.00 88.00" xmlns="http://www.w3.org/2000/svg" xmlns:xlink="http://www.w3.org/1999/xlink">
<g id="graph0" class="graph" transform="scale(1 1) rotate(0) translate(4 84)">
<title>pyclustering.nnet.sync.sync_visualizer</title>
<polygon fill="white" stroke="transparent" points="-4,4 -4,-84 386,-84 386,4 -4,4"/>
<!-- Node1 -->
<g id="node1" class="node">
<title>Node1</title>
<g id="a_node1"><a xlink:title="Visualizer of output dynamic of sync network (Sync).">
<polygon fill="#bfbfbf" stroke="black" points="0,-24.5 0,-54.5 152,-54.5 152,-24.5 0,-24.5"/>
<text text-anchor="start" x="8" y="-42.5" font-family="Helvetica,sans-Serif" font-size="10.00">pyclustering.nnet.sync.sync</text>
<text text-anchor="middle" x="76" y="-31.5" font-family="Helvetica,sans-Serif" font-size="10.00">_visualizer</text>
</a>
</g>
</g>
<!-- Node2 -->
<g id="node2" class="node">
<title>Node2</title>
<g id="a_node2"><a xlink:href="../../d5/d85/classpyclustering_1_1cluster_1_1syncnet_1_1syncnet__visualizer.html" target="_top" xlink:title="Visualizer of output dynamic of oscillatory network &#39;syncnet&#39; for cluster analysis.">
<polygon fill="white" stroke="black" points="188,-49.5 188,-79.5 382,-79.5 382,-49.5 188,-49.5"/>
<text text-anchor="start" x="196" y="-67.5" font-family="Helvetica,sans-Serif" font-size="10.00">pyclustering.cluster.syncnet.syncnet</text>
<text text-anchor="middle" x="285" y="-56.5" font-family="Helvetica,sans-Serif" font-size="10.00">_visualizer</text>
</a>
</g>
</g>
<!-- Node1&#45;&gt;Node2 -->
<g id="edge1" class="edge">
<title>Node1&#45;&gt;Node2</title>
<path fill="none" stroke="midnightblue" d="M161.99,-49.77C170.57,-50.8 179.32,-51.86 188,-52.91"/>
<polygon fill="midnightblue" stroke="midnightblue" points="162.37,-46.29 152.02,-48.56 161.53,-53.23 162.37,-46.29"/>
</g>
<!-- Node3 -->
<g id="node3" class="node">
<title>Node3</title>
<g id="a_node3"><a xlink:href="../../d2/d66/classpyclustering_1_1nnet_1_1syncpr_1_1syncpr__visualizer.html" target="_top" xlink:title="Visualizer of output dynamic of syncpr network (Sync for Pattern Recognition).">
<polygon fill="white" stroke="black" points="199.5,-0.5 199.5,-30.5 370.5,-30.5 370.5,-0.5 199.5,-0.5"/>
<text text-anchor="start" x="207.5" y="-18.5" font-family="Helvetica,sans-Serif" font-size="10.00">pyclustering.nnet.syncpr.syncpr</text>
<text text-anchor="middle" x="285" y="-7.5" font-family="Helvetica,sans-Serif" font-size="10.00">_visualizer</text>
</a>
</g>
</g>
<!-- Node1&#45;&gt;Node3 -->
<g id="edge2" class="edge">
<title>Node1&#45;&gt;Node3</title>
<path fill="none" stroke="midnightblue" d="M162.24,-29.62C174.52,-28.19 187.15,-26.73 199.41,-25.31"/>
<polygon fill="midnightblue" stroke="midnightblue" points="161.55,-26.17 152.02,-30.8 162.36,-33.13 161.55,-26.17"/>
</g>
</g>
</svg>
