<?xml version="1.0" encoding="UTF-8" standalone="no"?>
<!DOCTYPE svg PUBLIC "-//W3C//DTD SVG 1.1//EN"
 "http://www.w3.org/Graphics/SVG/1.1/DTD/svg11.dtd">
<!-- Generated by graphviz version 2.40.1 (20161225.0304)
 -->
<!-- Title: pyclustering.gcolor.sync.syncgcolor Pages: 1 -->
<svg width="180pt" height="151pt"
 viewBox="0.00 0.00 180.00 151.00" xmlns="http://www.w3.org/2000/svg" xmlns:xlink="http://www.w3.org/1999/xlink">
<g id="graph0" class="graph" transform="scale(1 1) rotate(0) translate(4 147)">
<title>pyclustering.gcolor.sync.syncgcolor</title>
<polygon fill="#ffffff" stroke="transparent" points="-4,4 -4,-147 176,-147 176,4 -4,4"/>
<!-- Node3 -->
<g id="node1" class="node">
<title>Node3</title>
<polygon fill="#bfbfbf" stroke="#000000" points="0,-.5 0,-19.5 172,-19.5 172,-.5 0,-.5"/>
<text text-anchor="middle" x="86" y="-7.5" font-family="Helvetica,sans-Serif" font-size="10.00" fill="#000000">pyclustering.gcolor.sync.syncgcolor</text>
</g>
<!-- Node4 -->
<g id="node2" class="node">
<title>Node4</title>
<g id="a_node2"><a xlink:href="../../db/de3/classpyclustering_1_1nnet_1_1sync_1_1sync__network.html" target="_top" xlink:title="Model of oscillatory network that is based on the Kuramoto model of synchronization. ">
<polygon fill="#ffffff" stroke="#000000" points="16.5,-56.5 16.5,-86.5 155.5,-86.5 155.5,-56.5 16.5,-56.5"/>
<text text-anchor="start" x="24.5" y="-74.5" font-family="Helvetica,sans-Serif" font-size="10.00" fill="#000000">pyclustering.nnet.sync.sync</text>
<text text-anchor="middle" x="86" y="-63.5" font-family="Helvetica,sans-Serif" font-size="10.00" fill="#000000">_network</text>
</a>
</g>
</g>
<!-- Node4&#45;&gt;Node3 -->
<g id="edge1" class="edge">
<title>Node4&#45;&gt;Node3</title>
<path fill="none" stroke="#191970" d="M86,-46.2849C86,-36.9858 86,-26.9883 86,-19.8469"/>
<polygon fill="#191970" stroke="#191970" points="82.5001,-46.2977 86,-56.2977 89.5001,-46.2978 82.5001,-46.2977"/>
</g>
<!-- Node5 -->
<g id="node3" class="node">
<title>Node5</title>
<g id="a_node3"><a xlink:href="../../d5/d9f/classpyclustering_1_1nnet_1_1network.html" target="_top" xlink:title="Common network description that consists of information about oscillators and connection between them...">
<polygon fill="#ffffff" stroke="#000000" points="22,-123.5 22,-142.5 150,-142.5 150,-123.5 22,-123.5"/>
<text text-anchor="middle" x="86" y="-130.5" font-family="Helvetica,sans-Serif" font-size="10.00" fill="#000000">pyclustering.nnet.network</text>
</a>
</g>
</g>
<!-- Node5&#45;&gt;Node4 -->
<g id="edge2" class="edge">
<title>Node5&#45;&gt;Node4</title>
<path fill="none" stroke="#191970" d="M86,-113.3693C86,-104.681 86,-94.6241 86,-86.5446"/>
<polygon fill="#191970" stroke="#191970" points="82.5001,-113.3906 86,-123.3906 89.5001,-113.3907 82.5001,-113.3906"/>
</g>
</g>
</svg>
