<?xml version="1.0" encoding="UTF-8" standalone="no"?>
<!DOCTYPE svg PUBLIC "-//W3C//DTD SVG 1.1//EN"
 "http://www.w3.org/Graphics/SVG/1.1/DTD/svg11.dtd">
<!-- Generated by graphviz version 2.40.1 (20161225.0304)
 -->
<!-- Title: pyclustering.cluster.bsas.bsas Pages: 1 -->
<svg width="342pt" height="84pt"
 viewBox="0.00 0.00 341.50 84.00" xmlns="http://www.w3.org/2000/svg" xmlns:xlink="http://www.w3.org/1999/xlink">
<g id="graph0" class="graph" transform="scale(1 1) rotate(0) translate(4 80)">
<title>pyclustering.cluster.bsas.bsas</title>
<polygon fill="#ffffff" stroke="transparent" points="-4,4 -4,-80 337.5,-80 337.5,4 -4,4"/>
<!-- Node0 -->
<g id="node1" class="node">
<title>Node0</title>
<polygon fill="#bfbfbf" stroke="#000000" points="96,-56.5 96,-75.5 245,-75.5 245,-56.5 96,-56.5"/>
<text text-anchor="middle" x="170.5" y="-63.5" font-family="Helvetica,sans-Serif" font-size="10.00" fill="#000000">pyclustering.cluster.bsas.bsas</text>
</g>
<!-- Node1 -->
<g id="node2" class="node">
<title>Node1</title>
<g id="a_node2"><a xlink:href="../../da/da9/classpyclustering_1_1cluster_1_1mbsas_1_1mbsas.html" target="_top" xlink:title="Class represents MBSAS (Modified Basic Sequential Algorithmic Scheme). ">
<polygon fill="#ffffff" stroke="#000000" points="0,-.5 0,-19.5 165,-19.5 165,-.5 0,-.5"/>
<text text-anchor="middle" x="82.5" y="-7.5" font-family="Helvetica,sans-Serif" font-size="10.00" fill="#000000">pyclustering.cluster.mbsas.mbsas</text>
</a>
</g>
</g>
<!-- Node0&#45;&gt;Node1 -->
<g id="edge1" class="edge">
<title>Node0&#45;&gt;Node1</title>
<path fill="none" stroke="#191970" d="M146.5655,-50.769C130.9717,-40.8456 111.099,-28.1994 97.6528,-19.6427"/>
<polygon fill="#191970" stroke="#191970" points="144.8559,-53.8296 155.1716,-56.2455 148.614,-47.9239 144.8559,-53.8296"/>
</g>
<!-- Node2 -->
<g id="node3" class="node">
<title>Node2</title>
<g id="a_node3"><a xlink:href="../../df/db9/classpyclustering_1_1cluster_1_1ttsas_1_1ttsas.html" target="_top" xlink:title="Class represents TTSAS (Two&#45;Threshold Sequential Algorithmic Scheme). ">
<polygon fill="#ffffff" stroke="#000000" points="183.5,-.5 183.5,-19.5 333.5,-19.5 333.5,-.5 183.5,-.5"/>
<text text-anchor="middle" x="258.5" y="-7.5" font-family="Helvetica,sans-Serif" font-size="10.00" fill="#000000">pyclustering.cluster.ttsas.ttsas</text>
</a>
</g>
</g>
<!-- Node0&#45;&gt;Node2 -->
<g id="edge2" class="edge">
<title>Node0&#45;&gt;Node2</title>
<path fill="none" stroke="#191970" d="M194.4345,-50.769C210.0283,-40.8456 229.901,-28.1994 243.3472,-19.6427"/>
<polygon fill="#191970" stroke="#191970" points="192.386,-47.9239 185.8284,-56.2455 196.1441,-53.8296 192.386,-47.9239"/>
</g>
</g>
</svg>
