<?xml version="1.0" encoding="UTF-8" standalone="no"?>
<!DOCTYPE svg PUBLIC "-//W3C//DTD SVG 1.1//EN"
 "http://www.w3.org/Graphics/SVG/1.1/DTD/svg11.dtd">
<!-- Generated by graphviz version 2.40.1 (20161225.0304)
 -->
<!-- Title: pyclustering.nnet.sync.sync_visualizer Pages: 1 -->
<svg width="359pt" height="88pt"
 viewBox="0.00 0.00 359.00 88.00" xmlns="http://www.w3.org/2000/svg" xmlns:xlink="http://www.w3.org/1999/xlink">
<g id="graph0" class="graph" transform="scale(1 1) rotate(0) translate(4 84)">
<title>pyclustering.nnet.sync.sync_visualizer</title>
<polygon fill="#ffffff" stroke="transparent" points="-4,4 -4,-84 355,-84 355,4 -4,4"/>
<!-- Node0 -->
<g id="node1" class="node">
<title>Node0</title>
<polygon fill="#bfbfbf" stroke="#000000" points="0,-24.5 0,-54.5 139,-54.5 139,-24.5 0,-24.5"/>
<text text-anchor="start" x="8" y="-42.5" font-family="Helvetica,sans-Serif" font-size="10.00" fill="#000000">pyclustering.nnet.sync.sync</text>
<text text-anchor="middle" x="69.5" y="-31.5" font-family="Helvetica,sans-Serif" font-size="10.00" fill="#000000">_visualizer</text>
</g>
<!-- Node1 -->
<g id="node2" class="node">
<title>Node1</title>
<g id="a_node2"><a xlink:href="../../d5/d85/classpyclustering_1_1cluster_1_1syncnet_1_1syncnet__visualizer.html" target="_top" xlink:title="Visualizer of output dynamic of oscillatory network &#39;syncnet&#39; for cluster analysis. ">
<polygon fill="#ffffff" stroke="#000000" points="175,-49.5 175,-79.5 351,-79.5 351,-49.5 175,-49.5"/>
<text text-anchor="start" x="183" y="-67.5" font-family="Helvetica,sans-Serif" font-size="10.00" fill="#000000">pyclustering.cluster.syncnet.syncnet</text>
<text text-anchor="middle" x="263" y="-56.5" font-family="Helvetica,sans-Serif" font-size="10.00" fill="#000000">_visualizer</text>
</a>
</g>
</g>
<!-- Node0&#45;&gt;Node1 -->
<g id="edge1" class="edge">
<title>Node0&#45;&gt;Node1</title>
<path fill="none" stroke="#191970" d="M149.2621,-49.8052C157.6929,-50.8944 166.3013,-52.0066 174.8204,-53.1073"/>
<polygon fill="#191970" stroke="#191970" points="149.4506,-46.3005 139.0846,-48.4903 148.5536,-53.2428 149.4506,-46.3005"/>
</g>
<!-- Node2 -->
<g id="node3" class="node">
<title>Node2</title>
<g id="a_node3"><a xlink:href="../../d2/d66/classpyclustering_1_1nnet_1_1syncpr_1_1syncpr__visualizer.html" target="_top" xlink:title="Visualizer of output dynamic of syncpr network (Sync for Pattern Recognition). ">
<polygon fill="#ffffff" stroke="#000000" points="185.5,-.5 185.5,-30.5 340.5,-30.5 340.5,-.5 185.5,-.5"/>
<text text-anchor="start" x="193.5" y="-18.5" font-family="Helvetica,sans-Serif" font-size="10.00" fill="#000000">pyclustering.nnet.syncpr.syncpr</text>
<text text-anchor="middle" x="263" y="-7.5" font-family="Helvetica,sans-Serif" font-size="10.00" fill="#000000">_visualizer</text>
</a>
</g>
</g>
<!-- Node0&#45;&gt;Node2 -->
<g id="edge2" class="edge">
<title>Node0&#45;&gt;Node2</title>
<path fill="none" stroke="#191970" d="M149.0154,-29.6376C160.9592,-28.1562 173.265,-26.6299 185.1728,-25.153"/>
<polygon fill="#191970" stroke="#191970" points="148.5777,-26.165 139.0846,-30.8694 149.4394,-33.1118 148.5777,-26.165"/>
</g>
</g>
</svg>
