<?xml version="1.0" encoding="UTF-8" standalone="no"?>
<!DOCTYPE svg PUBLIC "-//W3C//DTD SVG 1.1//EN"
 "http://www.w3.org/Graphics/SVG/1.1/DTD/svg11.dtd">
<!-- Generated by graphviz version 2.40.1 (20161225.0304)
 -->
<!-- Title: pyclustering.container.cftree.cfnode Pages: 1 -->
<svg width="401pt" height="78pt"
 viewBox="0.00 0.00 401.00 77.50" xmlns="http://www.w3.org/2000/svg" xmlns:xlink="http://www.w3.org/1999/xlink">
<g id="graph0" class="graph" transform="scale(1 1) rotate(0) translate(4 73.5)">
<title>pyclustering.container.cftree.cfnode</title>
<polygon fill="#ffffff" stroke="transparent" points="-4,4 -4,-73.5 397,-73.5 397,4 -4,4"/>
<!-- Node0 -->
<g id="node1" class="node">
<title>Node0</title>
<polygon fill="#bfbfbf" stroke="#000000" points="0,-28 0,-47 172,-47 172,-28 0,-28"/>
<text text-anchor="middle" x="86" y="-35" font-family="Helvetica,sans-Serif" font-size="10.00" fill="#000000">pyclustering.container.cftree.cfnode</text>
</g>
<!-- Node1 -->
<g id="node2" class="node">
<title>Node1</title>
<g id="a_node2"><a xlink:href="../../d2/d65/classpyclustering_1_1container_1_1cftree_1_1leaf__node.html" target="_top" xlink:title="Represents clustering feature leaf node. ">
<polygon fill="#ffffff" stroke="#000000" points="208,-50 208,-69 393,-69 393,-50 208,-50"/>
<text text-anchor="middle" x="300.5" y="-57" font-family="Helvetica,sans-Serif" font-size="10.00" fill="#000000">pyclustering.container.cftree.leaf_node</text>
</a>
</g>
</g>
<!-- Node0&#45;&gt;Node1 -->
<g id="edge1" class="edge">
<title>Node0&#45;&gt;Node1</title>
<path fill="none" stroke="#191970" d="M182.0131,-47.3475C190.5839,-48.2266 199.2515,-49.1155 207.7938,-49.9917"/>
<polygon fill="#191970" stroke="#191970" points="182.3144,-43.8601 172.0094,-46.3215 181.6001,-50.8236 182.3144,-43.8601"/>
</g>
<!-- Node2 -->
<g id="node3" class="node">
<title>Node2</title>
<g id="a_node3"><a xlink:href="../../d7/d25/classpyclustering_1_1container_1_1cftree_1_1non__leaf__node.html" target="_top" xlink:title="Representation of clustering feature non&#45;leaf node. ">
<polygon fill="#ffffff" stroke="#000000" points="221.5,-.5 221.5,-30.5 379.5,-30.5 379.5,-.5 221.5,-.5"/>
<text text-anchor="start" x="229.5" y="-18.5" font-family="Helvetica,sans-Serif" font-size="10.00" fill="#000000">pyclustering.container.cftree.non</text>
<text text-anchor="middle" x="300.5" y="-7.5" font-family="Helvetica,sans-Serif" font-size="10.00" fill="#000000">_leaf_node</text>
</a>
</g>
</g>
<!-- Node0&#45;&gt;Node2 -->
<g id="edge2" class="edge">
<title>Node0&#45;&gt;Node2</title>
<path fill="none" stroke="#191970" d="M182.0241,-27.6514C195.196,-26.3004 208.5962,-24.926 221.4183,-23.6109"/>
<polygon fill="#191970" stroke="#191970" points="181.6001,-24.1764 172.0094,-28.6785 182.3144,-31.1399 181.6001,-24.1764"/>
</g>
</g>
</svg>
