<?xml version="1.0" encoding="UTF-8" standalone="no"?>
<!DOCTYPE svg PUBLIC "-//W3C//DTD SVG 1.1//EN"
 "http://www.w3.org/Graphics/SVG/1.1/DTD/svg11.dtd">
<!-- Generated by graphviz version 2.40.1 (20161225.0304)
 -->
<!-- Title: Graphical Class Hierarchy Pages: 1 -->
<svg width="322pt" height="618pt"
 viewBox="0.00 0.00 322.00 617.50" xmlns="http://www.w3.org/2000/svg" xmlns:xlink="http://www.w3.org/1999/xlink">
<g id="graph0" class="graph" transform="scale(1 1) rotate(0) translate(4 613.5)">
<title>Graphical Class Hierarchy</title>
<polygon fill="#ffffff" stroke="transparent" points="-4,4 -4,-613.5 318,-613.5 318,4 -4,4"/>
<!-- Node103 -->
<g id="node1" class="node">
<title>Node103</title>
<polygon fill="#ffffff" stroke="#bfbfbf" points="0,-295 0,-314 53,-314 53,-295 0,-295"/>
<text text-anchor="middle" x="26.5" y="-302" font-family="Helvetica,sans-Serif" font-size="10.00" fill="#000000">IntEnum</text>
</g>
<!-- Node0 -->
<g id="node2" class="node">
<title>Node0</title>
<g id="a_node2"><a xlink:href="d5/d58/classpyclustering_1_1cluster_1_1agglomerative_1_1type__link.html" target="_top" xlink:title="Enumerator of types of link between clusters. ">
<polygon fill="#ffffff" stroke="#000000" points="98.5,-590 98.5,-609 304.5,-609 304.5,-590 98.5,-590"/>
<text text-anchor="middle" x="201.5" y="-597" font-family="Helvetica,sans-Serif" font-size="10.00" fill="#000000">pyclustering.cluster.agglomerative.type_link</text>
</a>
</g>
</g>
<!-- Node103&#45;&gt;Node0 -->
<g id="edge1" class="edge">
<title>Node103&#45;&gt;Node0</title>
<path fill="none" stroke="#191970" d="M28.1967,-324.5727C33.4709,-381.9882 51.5215,-545.0418 89,-580.5 92.8849,-584.1755 97.2018,-587.2871 101.8163,-589.9128"/>
<polygon fill="#191970" stroke="#191970" points="31.6544,-323.939 27.2864,-314.2865 24.6816,-324.5561 31.6544,-323.939"/>
</g>
<!-- Node105 -->
<g id="node3" class="node">
<title>Node105</title>
<g id="a_node3"><a xlink:href="d4/d22/classpyclustering_1_1cluster_1_1ema_1_1ema__init__type.html" target="_top" xlink:title="Enumeration of initialization types for Expectation&#45;Maximization algorithm. ">
<polygon fill="#ffffff" stroke="#000000" points="129.5,-540.5 129.5,-570.5 273.5,-570.5 273.5,-540.5 129.5,-540.5"/>
<text text-anchor="start" x="137.5" y="-558.5" font-family="Helvetica,sans-Serif" font-size="10.00" fill="#000000">pyclustering.cluster.ema.ema</text>
<text text-anchor="middle" x="201.5" y="-547.5" font-family="Helvetica,sans-Serif" font-size="10.00" fill="#000000">_init_type</text>
</a>
</g>
</g>
<!-- Node103&#45;&gt;Node105 -->
<g id="edge2" class="edge">
<title>Node103&#45;&gt;Node105</title>
<path fill="none" stroke="#191970" d="M29.2706,-324.156C36.6729,-373.8643 58.4466,-502.6834 89,-531.5 100.0415,-541.9139 114.4423,-548.2598 129.2347,-552.0352"/>
<polygon fill="#191970" stroke="#191970" points="32.706,-323.4577 27.805,-314.0646 25.7786,-324.4638 32.706,-323.4577"/>
</g>
<!-- Node106 -->
<g id="node4" class="node">
<title>Node106</title>
<g id="a_node4"><a xlink:href="d5/d41/classpyclustering_1_1cluster_1_1encoder_1_1type__encoding.html" target="_top" xlink:title="Enumeration of encoding types (index labeling, index list separation, object list separation)...">
<polygon fill="#ffffff" stroke="#000000" points="122,-491.5 122,-521.5 281,-521.5 281,-491.5 122,-491.5"/>
<text text-anchor="start" x="130" y="-509.5" font-family="Helvetica,sans-Serif" font-size="10.00" fill="#000000">pyclustering.cluster.encoder.type</text>
<text text-anchor="middle" x="201.5" y="-498.5" font-family="Helvetica,sans-Serif" font-size="10.00" fill="#000000">_encoding</text>
</a>
</g>
</g>
<!-- Node103&#45;&gt;Node106 -->
<g id="edge3" class="edge">
<title>Node103&#45;&gt;Node106</title>
<path fill="none" stroke="#191970" d="M27.5171,-324.7824C30.5136,-361.7677 42.3383,-440.1589 89,-481.5 98.3597,-489.7925 109.8548,-495.526 121.8847,-499.4558"/>
<polygon fill="#191970" stroke="#191970" points="30.9778,-324.0741 26.8214,-314.3286 23.9932,-324.539 30.9778,-324.0741"/>
</g>
<!-- Node107 -->
<g id="node5" class="node">
<title>Node107</title>
<g id="a_node5"><a xlink:href="dc/d4b/classpyclustering_1_1cluster_1_1xmeans_1_1splitting__type.html" target="_top" xlink:title="Enumeration of splitting types that can be used as splitting creation of cluster in X&#45;Means algorithm...">
<polygon fill="#ffffff" stroke="#000000" points="102,-453 102,-472 301,-472 301,-453 102,-453"/>
<text text-anchor="middle" x="201.5" y="-460" font-family="Helvetica,sans-Serif" font-size="10.00" fill="#000000">pyclustering.cluster.xmeans.splitting_type</text>
</a>
</g>
</g>
<!-- Node103&#45;&gt;Node107 -->
<g id="edge4" class="edge">
<title>Node103&#45;&gt;Node107</title>
<path fill="none" stroke="#191970" d="M29.3751,-324.0578C34.9808,-354.7204 50.3978,-413.678 89,-443.5 93.8593,-447.254 99.1913,-450.3774 104.8104,-452.968"/>
<polygon fill="#191970" stroke="#191970" points="32.8203,-323.439 27.729,-314.1477 25.915,-324.586 32.8203,-323.439"/>
</g>
<!-- Node108 -->
<g id="node6" class="node">
<title>Node108</title>
<g id="a_node6"><a xlink:href="d2/d23/classpyclustering_1_1container_1_1cftree_1_1cfnode__type.html" target="_top" xlink:title="Enumeration of CF&#45;Node types that are used by CF&#45;Tree. ">
<polygon fill="#ffffff" stroke="#000000" points="104,-415 104,-434 299,-434 299,-415 104,-415"/>
<text text-anchor="middle" x="201.5" y="-422" font-family="Helvetica,sans-Serif" font-size="10.00" fill="#000000">pyclustering.container.cftree.cfnode_type</text>
</a>
</g>
</g>
<!-- Node103&#45;&gt;Node108 -->
<g id="edge5" class="edge">
<title>Node103&#45;&gt;Node108</title>
<path fill="none" stroke="#191970" d="M32.8101,-323.715C41.5343,-347.053 59.6189,-385.7431 89,-405.5 94.5887,-409.258 100.6772,-412.3529 107.0344,-414.8946"/>
<polygon fill="#191970" stroke="#191970" points="36.0798,-322.4626 29.4534,-314.1956 29.4782,-324.7904 36.0798,-322.4626"/>
</g>
<!-- Node109 -->
<g id="node7" class="node">
<title>Node109</title>
<g id="a_node7"><a xlink:href="d6/d8b/classpyclustering_1_1container_1_1cftree_1_1measurement__type.html" target="_top" xlink:title="Enumeration of measurement types for CF&#45;Tree. ">
<polygon fill="#ffffff" stroke="#000000" points="89,-377 89,-396 314,-396 314,-377 89,-377"/>
<text text-anchor="middle" x="201.5" y="-384" font-family="Helvetica,sans-Serif" font-size="10.00" fill="#000000">pyclustering.container.cftree.measurement_type</text>
</a>
</g>
</g>
<!-- Node103&#45;&gt;Node109 -->
<g id="edge6" class="edge">
<title>Node103&#45;&gt;Node109</title>
<path fill="none" stroke="#191970" d="M39.0579,-322.2782C50.3806,-336.8712 68.3856,-356.8112 89,-367.5 96.4734,-371.3751 104.5661,-374.4871 112.8664,-376.9828"/>
<polygon fill="#191970" stroke="#191970" points="41.6856,-319.9466 32.9079,-314.0135 36.0698,-324.1255 41.6856,-319.9466"/>
</g>
<!-- Node110 -->
<g id="node8" class="node">
<title>Node110</title>
<g id="a_node8"><a xlink:href="d8/d71/classpyclustering_1_1nnet_1_1cnn_1_1type__conn.html" target="_top" xlink:title="Enumeration of connection types for Chaotic Neural Network. ">
<polygon fill="#ffffff" stroke="#000000" points="122.5,-339 122.5,-358 280.5,-358 280.5,-339 122.5,-339"/>
<text text-anchor="middle" x="201.5" y="-346" font-family="Helvetica,sans-Serif" font-size="10.00" fill="#000000">pyclustering.nnet.cnn.type_conn</text>
</a>
</g>
</g>
<!-- Node103&#45;&gt;Node110 -->
<g id="edge7" class="edge">
<title>Node103&#45;&gt;Node110</title>
<path fill="none" stroke="#191970" d="M56.4906,-318.0021C66.6519,-322.1694 78.1719,-326.4576 89,-329.5 102.4439,-333.2773 117.0152,-336.4152 131.0733,-338.9792"/>
<polygon fill="#191970" stroke="#191970" points="57.8053,-314.758 47.2316,-314.0882 55.0798,-321.2056 57.8053,-314.758"/>
</g>
<!-- Node111 -->
<g id="node9" class="node">
<title>Node111</title>
<g id="a_node9"><a xlink:href="d9/d7b/classpyclustering_1_1nnet_1_1conn__represent.html" target="_top" xlink:title="Enumerator of internal network connection representation between oscillators. ">
<polygon fill="#ffffff" stroke="#000000" points="144,-289.5 144,-319.5 259,-319.5 259,-289.5 144,-289.5"/>
<text text-anchor="start" x="152" y="-307.5" font-family="Helvetica,sans-Serif" font-size="10.00" fill="#000000">pyclustering.nnet.conn</text>
<text text-anchor="middle" x="201.5" y="-296.5" font-family="Helvetica,sans-Serif" font-size="10.00" fill="#000000">_represent</text>
</a>
</g>
</g>
<!-- Node103&#45;&gt;Node111 -->
<g id="edge8" class="edge">
<title>Node103&#45;&gt;Node111</title>
<path fill="none" stroke="#191970" d="M63.2421,-304.5C86.5803,-304.5 117.2824,-304.5 143.8253,-304.5"/>
<polygon fill="#191970" stroke="#191970" points="63.0788,-301.0001 53.0787,-304.5 63.0787,-308.0001 63.0788,-301.0001"/>
</g>
<!-- Node112 -->
<g id="node10" class="node">
<title>Node112</title>
<g id="a_node10"><a xlink:href="d7/d90/classpyclustering_1_1nnet_1_1conn__type.html" target="_top" xlink:title="Enumerator of connection types between oscillators. ">
<polygon fill="#ffffff" stroke="#000000" points="132,-251 132,-270 271,-270 271,-251 132,-251"/>
<text text-anchor="middle" x="201.5" y="-258" font-family="Helvetica,sans-Serif" font-size="10.00" fill="#000000">pyclustering.nnet.conn_type</text>
</a>
</g>
</g>
<!-- Node103&#45;&gt;Node112 -->
<g id="edge9" class="edge">
<title>Node103&#45;&gt;Node112</title>
<path fill="none" stroke="#191970" d="M57.8218,-291.1302C67.6687,-287.2923 78.6698,-283.3733 89,-280.5 103.9073,-276.3536 120.1744,-272.8772 135.5887,-270.0475"/>
<polygon fill="#191970" stroke="#191970" points="56.4047,-287.9275 48.4271,-294.8994 59.0112,-294.4241 56.4047,-287.9275"/>
</g>
<!-- Node113 -->
<g id="node11" class="node">
<title>Node113</title>
<g id="a_node11"><a xlink:href="d2/d10/classpyclustering_1_1nnet_1_1initial__type.html" target="_top" xlink:title="Enumerator of types of oscillator output initialization. ">
<polygon fill="#ffffff" stroke="#000000" points="131.5,-213 131.5,-232 271.5,-232 271.5,-213 131.5,-213"/>
<text text-anchor="middle" x="201.5" y="-220" font-family="Helvetica,sans-Serif" font-size="10.00" fill="#000000">pyclustering.nnet.initial_type</text>
</a>
</g>
</g>
<!-- Node103&#45;&gt;Node113 -->
<g id="edge10" class="edge">
<title>Node103&#45;&gt;Node113</title>
<path fill="none" stroke="#191970" d="M39.0579,-286.7218C50.3806,-272.1288 68.3856,-252.1888 89,-241.5 102.0126,-234.7528 116.9024,-230.3188 131.497,-227.4244"/>
<polygon fill="#191970" stroke="#191970" points="36.0698,-284.8745 32.9079,-294.9865 41.6856,-289.0534 36.0698,-284.8745"/>
</g>
<!-- Node114 -->
<g id="node12" class="node">
<title>Node114</title>
<g id="a_node12"><a xlink:href="d5/d6b/classpyclustering_1_1nnet_1_1solve__type.html" target="_top" xlink:title="Enumerator of solver types that are used for network simulation. ">
<polygon fill="#ffffff" stroke="#000000" points="131,-175 131,-194 272,-194 272,-175 131,-175"/>
<text text-anchor="middle" x="201.5" y="-182" font-family="Helvetica,sans-Serif" font-size="10.00" fill="#000000">pyclustering.nnet.solve_type</text>
</a>
</g>
</g>
<!-- Node103&#45;&gt;Node114 -->
<g id="edge11" class="edge">
<title>Node103&#45;&gt;Node114</title>
<path fill="none" stroke="#191970" d="M32.8101,-285.285C41.5343,-261.947 59.6189,-223.2569 89,-203.5 101.3279,-195.2103 116.0884,-190.147 130.798,-187.1313"/>
<polygon fill="#191970" stroke="#191970" points="29.4782,-284.2096 29.4534,-294.8044 36.0798,-286.5374 29.4782,-284.2096"/>
</g>
<!-- Node115 -->
<g id="node13" class="node">
<title>Node115</title>
<g id="a_node13"><a xlink:href="da/d42/classpyclustering_1_1nnet_1_1som_1_1type__conn.html" target="_top" xlink:title="Enumeration of connection types for SOM. ">
<polygon fill="#ffffff" stroke="#000000" points="121,-137 121,-156 282,-156 282,-137 121,-137"/>
<text text-anchor="middle" x="201.5" y="-144" font-family="Helvetica,sans-Serif" font-size="10.00" fill="#000000">pyclustering.nnet.som.type_conn</text>
</a>
</g>
</g>
<!-- Node103&#45;&gt;Node115 -->
<g id="edge12" class="edge">
<title>Node103&#45;&gt;Node115</title>
<path fill="none" stroke="#191970" d="M29.3751,-284.9422C34.9808,-254.2796 50.3978,-195.322 89,-165.5 98.3266,-158.2947 109.3951,-153.4124 120.8918,-150.1625"/>
<polygon fill="#191970" stroke="#191970" points="25.915,-284.414 27.729,-294.8523 32.8203,-285.561 25.915,-284.414"/>
</g>
<!-- Node116 -->
<g id="node14" class="node">
<title>Node116</title>
<g id="a_node14"><a xlink:href="df/d7b/classpyclustering_1_1nnet_1_1som_1_1type__init.html" target="_top" xlink:title="Enumeration of initialization types for SOM. ">
<polygon fill="#ffffff" stroke="#000000" points="125.5,-99 125.5,-118 277.5,-118 277.5,-99 125.5,-99"/>
<text text-anchor="middle" x="201.5" y="-106" font-family="Helvetica,sans-Serif" font-size="10.00" fill="#000000">pyclustering.nnet.som.type_init</text>
</a>
</g>
</g>
<!-- Node103&#45;&gt;Node116 -->
<g id="edge13" class="edge">
<title>Node103&#45;&gt;Node116</title>
<path fill="none" stroke="#191970" d="M30.8281,-284.7361C40.3567,-243.0615 64.2752,-148.2973 89,-127.5 99.3077,-118.8297 112.0771,-113.4249 125.273,-110.1626"/>
<polygon fill="#191970" stroke="#191970" points="27.4013,-284.0223 28.6281,-294.5459 34.2317,-285.5542 27.4013,-284.0223"/>
</g>
<!-- Node117 -->
<g id="node15" class="node">
<title>Node117</title>
<g id="a_node15"><a xlink:href="dc/dee/classpyclustering_1_1utils_1_1graph_1_1type__graph__descr.html" target="_top" xlink:title="Enumeration of graph description. ">
<polygon fill="#ffffff" stroke="#000000" points="132,-49.5 132,-79.5 271,-79.5 271,-49.5 132,-49.5"/>
<text text-anchor="start" x="140" y="-67.5" font-family="Helvetica,sans-Serif" font-size="10.00" fill="#000000">pyclustering.utils.graph.type</text>
<text text-anchor="middle" x="201.5" y="-56.5" font-family="Helvetica,sans-Serif" font-size="10.00" fill="#000000">_graph_descr</text>
</a>
</g>
</g>
<!-- Node103&#45;&gt;Node117 -->
<g id="edge14" class="edge">
<title>Node103&#45;&gt;Node117</title>
<path fill="none" stroke="#191970" d="M29.5929,-284.9429C37.5326,-237.2043 60.059,-116.6393 89,-89.5 100.7486,-78.4828 116.2326,-71.9223 131.9409,-68.1052"/>
<polygon fill="#191970" stroke="#191970" points="26.1187,-284.5025 27.9688,-294.9346 33.028,-285.6257 26.1187,-284.5025"/>
</g>
<!-- Node118 -->
<g id="node16" class="node">
<title>Node118</title>
<g id="a_node16"><a xlink:href="da/d3a/classpyclustering_1_1utils_1_1metric_1_1type__metric.html" target="_top" xlink:title="Enumeration of supported metrics in the module for distance calculation between two points...">
<polygon fill="#ffffff" stroke="#000000" points="130.5,-.5 130.5,-30.5 272.5,-30.5 272.5,-.5 130.5,-.5"/>
<text text-anchor="start" x="138.5" y="-18.5" font-family="Helvetica,sans-Serif" font-size="10.00" fill="#000000">pyclustering.utils.metric.type</text>
<text text-anchor="middle" x="201.5" y="-7.5" font-family="Helvetica,sans-Serif" font-size="10.00" fill="#000000">_metric</text>
</a>
</g>
</g>
<!-- Node103&#45;&gt;Node118 -->
<g id="edge15" class="edge">
<title>Node103&#45;&gt;Node118</title>
<path fill="none" stroke="#191970" d="M28.4922,-284.6661C34.452,-229.3364 53.9362,-75.0834 89,-40.5 100.1822,-29.471 115.0847,-22.8552 130.3746,-18.983"/>
<polygon fill="#191970" stroke="#191970" points="24.9819,-284.5834 27.425,-294.8927 31.9441,-285.31 24.9819,-284.5834"/>
</g>
</g>
</svg>
