<?xml version="1.0" encoding="UTF-8" standalone="no"?>
<!DOCTYPE svg PUBLIC "-//W3C//DTD SVG 1.1//EN"
 "http://www.w3.org/Graphics/SVG/1.1/DTD/svg11.dtd">
<!-- Generated by graphviz version 2.40.1 (20161225.0304)
 -->
<!-- Title: Graphical Class Hierarchy Pages: 1 -->
<svg width="425pt" height="39pt"
 viewBox="0.00 0.00 425.00 39.00" xmlns="http://www.w3.org/2000/svg" xmlns:xlink="http://www.w3.org/1999/xlink">
<g id="graph0" class="graph" transform="scale(1 1) rotate(0) translate(4 35)">
<title>Graphical Class Hierarchy</title>
<polygon fill="#ffffff" stroke="transparent" points="-4,4 -4,-35 421,-35 421,4 -4,4"/>
<!-- Node0 -->
<g id="node1" class="node">
<title>Node0</title>
<g id="a_node1"><a xlink:href="d8/d15/classpyclustering_1_1nnet_1_1hysteresis_1_1hysteresis__dynamic.html" target="_top" xlink:title="Represents output dynamic of hysteresis oscillatory network. ">
<polygon fill="#ffffff" stroke="#000000" points="0,-.5 0,-30.5 187,-30.5 187,-.5 0,-.5"/>
<text text-anchor="start" x="8" y="-18.5" font-family="Helvetica,sans-Serif" font-size="10.00" fill="#000000">pyclustering.nnet.hysteresis.hysteresis</text>
<text text-anchor="middle" x="93.5" y="-7.5" font-family="Helvetica,sans-Serif" font-size="10.00" fill="#000000">_dynamic</text>
</a>
</g>
</g>
<!-- Node1 -->
<g id="node2" class="node">
<title>Node1</title>
<g id="a_node2"><a xlink:href="df/de3/classpyclustering_1_1gcolor_1_1hysteresis_1_1hysteresis__analyser.html" target="_top" xlink:title="Performs analysis of output dynamic of the hysteresis oscillatory network to extract information abou...">
<polygon fill="#ffffff" stroke="#000000" points="223,-.5 223,-30.5 417,-30.5 417,-.5 223,-.5"/>
<text text-anchor="start" x="231" y="-18.5" font-family="Helvetica,sans-Serif" font-size="10.00" fill="#000000">pyclustering.gcolor.hysteresis.hysteresis</text>
<text text-anchor="middle" x="320" y="-7.5" font-family="Helvetica,sans-Serif" font-size="10.00" fill="#000000">_analyser</text>
</a>
</g>
</g>
<!-- Node0&#45;&gt;Node1 -->
<g id="edge1" class="edge">
<title>Node0&#45;&gt;Node1</title>
<path fill="none" stroke="#191970" d="M197.4519,-15.5C205.8446,-15.5 214.3059,-15.5 222.6497,-15.5"/>
<polygon fill="#191970" stroke="#191970" points="197.2612,-12.0001 187.2612,-15.5 197.2612,-19.0001 197.2612,-12.0001"/>
</g>
</g>
</svg>
