<?xml version="1.0" encoding="UTF-8" standalone="no"?>
<!DOCTYPE svg PUBLIC "-//W3C//DTD SVG 1.1//EN"
 "http://www.w3.org/Graphics/SVG/1.1/DTD/svg11.dtd">
<!-- Generated by graphviz version 2.40.1 (20161225.0304)
 -->
<!-- Title: Graphical Class Hierarchy Pages: 1 -->
<svg width="359pt" height="66pt"
 viewBox="0.00 0.00 359.00 66.00" xmlns="http://www.w3.org/2000/svg" xmlns:xlink="http://www.w3.org/1999/xlink">
<g id="graph0" class="graph" transform="scale(1 1) rotate(0) translate(4 62)">
<title>Graphical Class Hierarchy</title>
<polygon fill="#ffffff" stroke="transparent" points="-4,4 -4,-62 355,-62 355,4 -4,4"/>
<!-- Node0 -->
<g id="node1" class="node">
<title>Node0</title>
<g id="a_node1"><a xlink:href="db/d8b/classpyclustering_1_1cluster_1_1bsas_1_1bsas.html" target="_top" xlink:title="Class represents BSAS clustering algorithm &#45; basic sequential algorithmic scheme. ...">
<polygon fill="#ffffff" stroke="#000000" points="0,-19.5 0,-38.5 149,-38.5 149,-19.5 0,-19.5"/>
<text text-anchor="middle" x="74.5" y="-26.5" font-family="Helvetica,sans-Serif" font-size="10.00" fill="#000000">pyclustering.cluster.bsas.bsas</text>
</a>
</g>
</g>
<!-- Node1 -->
<g id="node2" class="node">
<title>Node1</title>
<g id="a_node2"><a xlink:href="da/da9/classpyclustering_1_1cluster_1_1mbsas_1_1mbsas.html" target="_top" xlink:title="Class represents MBSAS (Modified Basic Sequential Algorithmic Scheme). ">
<polygon fill="#ffffff" stroke="#000000" points="185,-38.5 185,-57.5 351,-57.5 351,-38.5 185,-38.5"/>
<text text-anchor="middle" x="268" y="-45.5" font-family="Helvetica,sans-Serif" font-size="10.00" fill="#000000">pyclustering.cluster.mbsas.mbsas</text>
</a>
</g>
</g>
<!-- Node0&#45;&gt;Node1 -->
<g id="edge1" class="edge">
<title>Node0&#45;&gt;Node1</title>
<path fill="none" stroke="#191970" d="M159.0091,-37.2981C167.5701,-38.1387 176.261,-38.992 184.8079,-39.8313"/>
<polygon fill="#191970" stroke="#191970" points="159.3296,-33.8128 149.0354,-36.3187 158.6455,-40.7793 159.3296,-33.8128"/>
</g>
<!-- Node2 -->
<g id="node3" class="node">
<title>Node2</title>
<g id="a_node3"><a xlink:href="df/db9/classpyclustering_1_1cluster_1_1ttsas_1_1ttsas.html" target="_top" xlink:title="Class represents TTSAS (Two&#45;Threshold Sequential Algorithmic Scheme). ">
<polygon fill="#ffffff" stroke="#000000" points="192.5,-.5 192.5,-19.5 343.5,-19.5 343.5,-.5 192.5,-.5"/>
<text text-anchor="middle" x="268" y="-7.5" font-family="Helvetica,sans-Serif" font-size="10.00" fill="#000000">pyclustering.cluster.ttsas.ttsas</text>
</a>
</g>
</g>
<!-- Node0&#45;&gt;Node2 -->
<g id="edge2" class="edge">
<title>Node0&#45;&gt;Node2</title>
<path fill="none" stroke="#191970" d="M159.0852,-20.6945C170.1123,-19.6117 181.3536,-18.5079 192.2237,-17.4406"/>
<polygon fill="#191970" stroke="#191970" points="158.6455,-17.2207 149.0354,-21.6813 159.3296,-24.1872 158.6455,-17.2207"/>
</g>
</g>
</svg>
