<?xml version="1.0" encoding="UTF-8" standalone="no"?>
<!DOCTYPE svg PUBLIC "-//W3C//DTD SVG 1.1//EN"
 "http://www.w3.org/Graphics/SVG/1.1/DTD/svg11.dtd">
<!-- Generated by graphviz version 2.40.1 (20161225.0304)
 -->
<!-- Title: pyclustering.gcolor.sync.syncgcolor_analyser Pages: 1 -->
<svg width="180pt" height="106pt"
 viewBox="0.00 0.00 180.00 106.00" xmlns="http://www.w3.org/2000/svg" xmlns:xlink="http://www.w3.org/1999/xlink">
<g id="graph0" class="graph" transform="scale(1 1) rotate(0) translate(4 102)">
<title>pyclustering.gcolor.sync.syncgcolor_analyser</title>
<polygon fill="#ffffff" stroke="transparent" points="-4,4 -4,-102 176,-102 176,4 -4,4"/>
<!-- Node0 -->
<g id="node1" class="node">
<title>Node0</title>
<polygon fill="#bfbfbf" stroke="#000000" points="0,-.5 0,-30.5 172,-30.5 172,-.5 0,-.5"/>
<text text-anchor="start" x="8" y="-18.5" font-family="Helvetica,sans-Serif" font-size="10.00" fill="#000000">pyclustering.gcolor.sync.syncgcolor</text>
<text text-anchor="middle" x="86" y="-7.5" font-family="Helvetica,sans-Serif" font-size="10.00" fill="#000000">_analyser</text>
</g>
<!-- Node1 -->
<g id="node2" class="node">
<title>Node1</title>
<g id="a_node2"><a xlink:href="../../dc/d2d/classpyclustering_1_1nnet_1_1sync_1_1sync__dynamic.html" target="_top" xlink:title="Represents output dynamic of Sync. ">
<polygon fill="#ffffff" stroke="#000000" points="16.5,-67.5 16.5,-97.5 155.5,-97.5 155.5,-67.5 16.5,-67.5"/>
<text text-anchor="start" x="24.5" y="-85.5" font-family="Helvetica,sans-Serif" font-size="10.00" fill="#000000">pyclustering.nnet.sync.sync</text>
<text text-anchor="middle" x="86" y="-74.5" font-family="Helvetica,sans-Serif" font-size="10.00" fill="#000000">_dynamic</text>
</a>
</g>
</g>
<!-- Node1&#45;&gt;Node0 -->
<g id="edge1" class="edge">
<title>Node1&#45;&gt;Node0</title>
<path fill="none" stroke="#191970" d="M86,-57.0249C86,-48.128 86,-38.4287 86,-30.6432"/>
<polygon fill="#191970" stroke="#191970" points="82.5001,-57.2966 86,-67.2967 89.5001,-57.2967 82.5001,-57.2966"/>
</g>
</g>
</svg>
