<?xml version="1.0" encoding="UTF-8" standalone="no"?>
<!DOCTYPE svg PUBLIC "-//W3C//DTD SVG 1.1//EN"
 "http://www.w3.org/Graphics/SVG/1.1/DTD/svg11.dtd">
<!-- Generated by graphviz version 2.43.0 (0)
 -->
<!-- Title: pyclustering.nnet.hysteresis.hysteresis_network Pages: 1 -->
<svg width="253pt" height="151pt"
 viewBox="0.00 0.00 253.00 151.00" xmlns="http://www.w3.org/2000/svg" xmlns:xlink="http://www.w3.org/1999/xlink">
<g id="graph0" class="graph" transform="scale(1 1) rotate(0) translate(4 147)">
<title>pyclustering.nnet.hysteresis.hysteresis_network</title>
<polygon fill="white" stroke="transparent" points="-4,4 -4,-147 249,-147 249,4 -4,4"/>
<!-- Node1 -->
<g id="node1" class="node">
<title>Node1</title>
<g id="a_node1"><a xlink:title="Hysteresis oscillatory network that uses relaxation oscillators that are represented by objective hys...">
<polygon fill="#bfbfbf" stroke="black" points="18.5,-56.5 18.5,-86.5 226.5,-86.5 226.5,-56.5 18.5,-56.5"/>
<text text-anchor="start" x="26.5" y="-74.5" font-family="Helvetica,sans-Serif" font-size="10.00">pyclustering.nnet.hysteresis.hysteresis</text>
<text text-anchor="middle" x="122.5" y="-63.5" font-family="Helvetica,sans-Serif" font-size="10.00">_network</text>
</a>
</g>
</g>
<!-- Node3 -->
<g id="node3" class="node">
<title>Node3</title>
<g id="a_node3"><a xlink:href="../../df/df9/classpyclustering_1_1gcolor_1_1hysteresis_1_1hysteresisgcolor.html" target="_top" xlink:title="Class represents graph coloring algorithm based on hysteresis oscillatory network.">
<polygon fill="white" stroke="black" points="0,-0.5 0,-19.5 245,-19.5 245,-0.5 0,-0.5"/>
<text text-anchor="middle" x="122.5" y="-7.5" font-family="Helvetica,sans-Serif" font-size="10.00">pyclustering.gcolor.hysteresis.hysteresisgcolor</text>
</a>
</g>
</g>
<!-- Node1&#45;&gt;Node3 -->
<g id="edge2" class="edge">
<title>Node1&#45;&gt;Node3</title>
<path fill="none" stroke="midnightblue" d="M122.5,-46.29C122.5,-36.86 122.5,-26.65 122.5,-19.66"/>
<polygon fill="midnightblue" stroke="midnightblue" points="119,-46.4 122.5,-56.4 126,-46.4 119,-46.4"/>
</g>
<!-- Node2 -->
<g id="node2" class="node">
<title>Node2</title>
<g id="a_node2"><a xlink:href="../../d5/d9f/classpyclustering_1_1nnet_1_1network.html" target="_top" xlink:title="Common network description that consists of information about oscillators and connection between them...">
<polygon fill="white" stroke="black" points="50.5,-123.5 50.5,-142.5 194.5,-142.5 194.5,-123.5 50.5,-123.5"/>
<text text-anchor="middle" x="122.5" y="-130.5" font-family="Helvetica,sans-Serif" font-size="10.00">pyclustering.nnet.network</text>
</a>
</g>
</g>
<!-- Node2&#45;&gt;Node1 -->
<g id="edge1" class="edge">
<title>Node2&#45;&gt;Node1</title>
<path fill="none" stroke="midnightblue" d="M122.5,-113.23C122.5,-104.59 122.5,-94.5 122.5,-86.52"/>
<polygon fill="midnightblue" stroke="midnightblue" points="119,-113.48 122.5,-123.48 126,-113.48 119,-113.48"/>
</g>
</g>
</svg>
