<?xml version="1.0" encoding="UTF-8" standalone="no"?>
<!DOCTYPE svg PUBLIC "-//W3C//DTD SVG 1.1//EN"
 "http://www.w3.org/Graphics/SVG/1.1/DTD/svg11.dtd">
<!-- Generated by graphviz version 2.40.1 (20161225.0304)
 -->
<!-- Title: pyclustering.cluster.syncnet.syncnet Pages: 1 -->
<svg width="195pt" height="207pt"
 viewBox="0.00 0.00 195.00 207.00" xmlns="http://www.w3.org/2000/svg" xmlns:xlink="http://www.w3.org/1999/xlink">
<g id="graph0" class="graph" transform="scale(1 1) rotate(0) translate(4 203)">
<title>pyclustering.cluster.syncnet.syncnet</title>
<polygon fill="#ffffff" stroke="transparent" points="-4,4 -4,-203 191,-203 191,4 -4,4"/>
<!-- Node0 -->
<g id="node1" class="node">
<title>Node0</title>
<polygon fill="#bfbfbf" stroke="#000000" points="5.5,-56.5 5.5,-75.5 181.5,-75.5 181.5,-56.5 5.5,-56.5"/>
<text text-anchor="middle" x="93.5" y="-63.5" font-family="Helvetica,sans-Serif" font-size="10.00" fill="#000000">pyclustering.cluster.syncnet.syncnet</text>
</g>
<!-- Node3 -->
<g id="node4" class="node">
<title>Node3</title>
<g id="a_node4"><a xlink:href="../../d5/d0a/classpyclustering_1_1cluster_1_1hsyncnet_1_1hsyncnet.html" target="_top" xlink:title="Class represents clustering algorithm HSyncNet. ">
<polygon fill="#ffffff" stroke="#000000" points="0,-.5 0,-19.5 187,-19.5 187,-.5 0,-.5"/>
<text text-anchor="middle" x="93.5" y="-7.5" font-family="Helvetica,sans-Serif" font-size="10.00" fill="#000000">pyclustering.cluster.hsyncnet.hsyncnet</text>
</a>
</g>
</g>
<!-- Node0&#45;&gt;Node3 -->
<g id="edge3" class="edge">
<title>Node0&#45;&gt;Node3</title>
<path fill="none" stroke="#191970" d="M93.5,-46.1575C93.5,-37.155 93.5,-26.9199 93.5,-19.6427"/>
<polygon fill="#191970" stroke="#191970" points="90.0001,-46.2455 93.5,-56.2455 97.0001,-46.2456 90.0001,-46.2455"/>
</g>
<!-- Node1 -->
<g id="node2" class="node">
<title>Node1</title>
<g id="a_node2"><a xlink:href="../../db/de3/classpyclustering_1_1nnet_1_1sync_1_1sync__network.html" target="_top" xlink:title="Model of oscillatory network that is based on the Kuramoto model of synchronization. ">
<polygon fill="#ffffff" stroke="#000000" points="24,-112.5 24,-142.5 163,-142.5 163,-112.5 24,-112.5"/>
<text text-anchor="start" x="32" y="-130.5" font-family="Helvetica,sans-Serif" font-size="10.00" fill="#000000">pyclustering.nnet.sync.sync</text>
<text text-anchor="middle" x="93.5" y="-119.5" font-family="Helvetica,sans-Serif" font-size="10.00" fill="#000000">_network</text>
</a>
</g>
</g>
<!-- Node1&#45;&gt;Node0 -->
<g id="edge1" class="edge">
<title>Node1&#45;&gt;Node0</title>
<path fill="none" stroke="#191970" d="M93.5,-102.2849C93.5,-92.9858 93.5,-82.9883 93.5,-75.8469"/>
<polygon fill="#191970" stroke="#191970" points="90.0001,-102.2977 93.5,-112.2977 97.0001,-102.2978 90.0001,-102.2977"/>
</g>
<!-- Node2 -->
<g id="node3" class="node">
<title>Node2</title>
<g id="a_node3"><a xlink:href="../../d5/d9f/classpyclustering_1_1nnet_1_1network.html" target="_top" xlink:title="Common network description that consists of information about oscillators and connection between them...">
<polygon fill="#ffffff" stroke="#000000" points="29.5,-179.5 29.5,-198.5 157.5,-198.5 157.5,-179.5 29.5,-179.5"/>
<text text-anchor="middle" x="93.5" y="-186.5" font-family="Helvetica,sans-Serif" font-size="10.00" fill="#000000">pyclustering.nnet.network</text>
</a>
</g>
</g>
<!-- Node2&#45;&gt;Node1 -->
<g id="edge2" class="edge">
<title>Node2&#45;&gt;Node1</title>
<path fill="none" stroke="#191970" d="M93.5,-169.3693C93.5,-160.681 93.5,-150.6241 93.5,-142.5446"/>
<polygon fill="#191970" stroke="#191970" points="90.0001,-169.3906 93.5,-179.3906 97.0001,-169.3907 90.0001,-169.3906"/>
</g>
</g>
</svg>
