<?xml version="1.0" encoding="UTF-8" standalone="no"?>
<!DOCTYPE svg PUBLIC "-//W3C//DTD SVG 1.1//EN"
 "http://www.w3.org/Graphics/SVG/1.1/DTD/svg11.dtd">
<!-- Generated by graphviz version 2.43.0 (0)
 -->
<!-- Title: pyclustering.gcolor.sync.syncgcolor_analyser Pages: 1 -->
<svg width="198pt" height="106pt"
 viewBox="0.00 0.00 198.00 106.00" xmlns="http://www.w3.org/2000/svg" xmlns:xlink="http://www.w3.org/1999/xlink">
<g id="graph0" class="graph" transform="scale(1 1) rotate(0) translate(4 102)">
<title>pyclustering.gcolor.sync.syncgcolor_analyser</title>
<polygon fill="white" stroke="transparent" points="-4,4 -4,-102 194,-102 194,4 -4,4"/>
<!-- Node1 -->
<g id="node1" class="node">
<title>Node1</title>
<g id="a_node1"><a xlink:title="Analyser of output dynamic of the oscillatory network syncgcolor.">
<polygon fill="#bfbfbf" stroke="black" points="0,-0.5 0,-30.5 190,-30.5 190,-0.5 0,-0.5"/>
<text text-anchor="start" x="8" y="-18.5" font-family="Helvetica,sans-Serif" font-size="10.00">pyclustering.gcolor.sync.syncgcolor</text>
<text text-anchor="middle" x="95" y="-7.5" font-family="Helvetica,sans-Serif" font-size="10.00">_analyser</text>
</a>
</g>
</g>
<!-- Node2 -->
<g id="node2" class="node">
<title>Node2</title>
<g id="a_node2"><a xlink:href="../../dc/d2d/classpyclustering_1_1nnet_1_1sync_1_1sync__dynamic.html" target="_top" xlink:title="Represents output dynamic of Sync.">
<polygon fill="white" stroke="black" points="19,-67.5 19,-97.5 171,-97.5 171,-67.5 19,-67.5"/>
<text text-anchor="start" x="27" y="-85.5" font-family="Helvetica,sans-Serif" font-size="10.00">pyclustering.nnet.sync.sync</text>
<text text-anchor="middle" x="95" y="-74.5" font-family="Helvetica,sans-Serif" font-size="10.00">_dynamic</text>
</a>
</g>
</g>
<!-- Node2&#45;&gt;Node1 -->
<g id="edge1" class="edge">
<title>Node2&#45;&gt;Node1</title>
<path fill="none" stroke="midnightblue" d="M95,-57.11C95,-48.15 95,-38.32 95,-30.58"/>
<polygon fill="midnightblue" stroke="midnightblue" points="91.5,-57.4 95,-67.4 98.5,-57.4 91.5,-57.4"/>
</g>
</g>
</svg>
