<?xml version="1.0" encoding="UTF-8" standalone="no"?>
<!DOCTYPE svg PUBLIC "-//W3C//DTD SVG 1.1//EN"
 "http://www.w3.org/Graphics/SVG/1.1/DTD/svg11.dtd">
<!-- Generated by graphviz version 2.43.0 (0)
 -->
<!-- Title: pyclustering.gcolor.hysteresis.hysteresis_analyser Pages: 1 -->
<svg width="223pt" height="106pt"
 viewBox="0.00 0.00 223.00 106.00" xmlns="http://www.w3.org/2000/svg" xmlns:xlink="http://www.w3.org/1999/xlink">
<g id="graph0" class="graph" transform="scale(1 1) rotate(0) translate(4 102)">
<title>pyclustering.gcolor.hysteresis.hysteresis_analyser</title>
<polygon fill="white" stroke="transparent" points="-4,4 -4,-102 219,-102 219,4 -4,4"/>
<!-- Node1 -->
<g id="node1" class="node">
<title>Node1</title>
<g id="a_node1"><a xlink:title="Performs analysis of output dynamic of the hysteresis oscillatory network to extract information abou...">
<polygon fill="#bfbfbf" stroke="black" points="0,-0.5 0,-30.5 215,-30.5 215,-0.5 0,-0.5"/>
<text text-anchor="start" x="8" y="-18.5" font-family="Helvetica,sans-Serif" font-size="10.00">pyclustering.gcolor.hysteresis.hysteresis</text>
<text text-anchor="middle" x="107.5" y="-7.5" font-family="Helvetica,sans-Serif" font-size="10.00">_analyser</text>
</a>
</g>
</g>
<!-- Node2 -->
<g id="node2" class="node">
<title>Node2</title>
<g id="a_node2"><a xlink:href="../../d8/d15/classpyclustering_1_1nnet_1_1hysteresis_1_1hysteresis__dynamic.html" target="_top" xlink:title="Represents output dynamic of hysteresis oscillatory network.">
<polygon fill="white" stroke="black" points="3.5,-67.5 3.5,-97.5 211.5,-97.5 211.5,-67.5 3.5,-67.5"/>
<text text-anchor="start" x="11.5" y="-85.5" font-family="Helvetica,sans-Serif" font-size="10.00">pyclustering.nnet.hysteresis.hysteresis</text>
<text text-anchor="middle" x="107.5" y="-74.5" font-family="Helvetica,sans-Serif" font-size="10.00">_dynamic</text>
</a>
</g>
</g>
<!-- Node2&#45;&gt;Node1 -->
<g id="edge1" class="edge">
<title>Node2&#45;&gt;Node1</title>
<path fill="none" stroke="midnightblue" d="M107.5,-57.11C107.5,-48.15 107.5,-38.32 107.5,-30.58"/>
<polygon fill="midnightblue" stroke="midnightblue" points="104,-57.4 107.5,-67.4 111,-57.4 104,-57.4"/>
</g>
</g>
</svg>
