<?xml version="1.0" encoding="UTF-8" standalone="no"?>
<!DOCTYPE svg PUBLIC "-//W3C//DTD SVG 1.1//EN"
 "http://www.w3.org/Graphics/SVG/1.1/DTD/svg11.dtd">
<!-- Generated by graphviz version 2.43.0 (0)
 -->
<!-- Title: pyclustering.cluster.syncnet.syncnet Pages: 1 -->
<svg width="214pt" height="207pt"
 viewBox="0.00 0.00 214.00 207.00" xmlns="http://www.w3.org/2000/svg" xmlns:xlink="http://www.w3.org/1999/xlink">
<g id="graph0" class="graph" transform="scale(1 1) rotate(0) translate(4 203)">
<title>pyclustering.cluster.syncnet.syncnet</title>
<polygon fill="white" stroke="transparent" points="-4,4 -4,-203 210,-203 210,4 -4,4"/>
<!-- Node1 -->
<g id="node1" class="node">
<title>Node1</title>
<g id="a_node1"><a xlink:title="Class represents clustering algorithm SyncNet.">
<polygon fill="#bfbfbf" stroke="black" points="6,-56.5 6,-75.5 200,-75.5 200,-56.5 6,-56.5"/>
<text text-anchor="middle" x="103" y="-63.5" font-family="Helvetica,sans-Serif" font-size="10.00">pyclustering.cluster.syncnet.syncnet</text>
</a>
</g>
</g>
<!-- Node4 -->
<g id="node4" class="node">
<title>Node4</title>
<g id="a_node4"><a xlink:href="../../d5/d0a/classpyclustering_1_1cluster_1_1hsyncnet_1_1hsyncnet.html" target="_top" xlink:title="Class represents clustering algorithm HSyncNet.">
<polygon fill="white" stroke="black" points="0,-0.5 0,-19.5 206,-19.5 206,-0.5 0,-0.5"/>
<text text-anchor="middle" x="103" y="-7.5" font-family="Helvetica,sans-Serif" font-size="10.00">pyclustering.cluster.hsyncnet.hsyncnet</text>
</a>
</g>
</g>
<!-- Node1&#45;&gt;Node4 -->
<g id="edge3" class="edge">
<title>Node1&#45;&gt;Node4</title>
<path fill="none" stroke="midnightblue" d="M103,-45.8C103,-36.91 103,-26.78 103,-19.75"/>
<polygon fill="midnightblue" stroke="midnightblue" points="99.5,-46.08 103,-56.08 106.5,-46.08 99.5,-46.08"/>
</g>
<!-- Node2 -->
<g id="node2" class="node">
<title>Node2</title>
<g id="a_node2"><a xlink:href="../../db/de3/classpyclustering_1_1nnet_1_1sync_1_1sync__network.html" target="_top" xlink:title="Model of oscillatory network that is based on the Kuramoto model of synchronization.">
<polygon fill="white" stroke="black" points="27,-112.5 27,-142.5 179,-142.5 179,-112.5 27,-112.5"/>
<text text-anchor="start" x="35" y="-130.5" font-family="Helvetica,sans-Serif" font-size="10.00">pyclustering.nnet.sync.sync</text>
<text text-anchor="middle" x="103" y="-119.5" font-family="Helvetica,sans-Serif" font-size="10.00">_network</text>
</a>
</g>
</g>
<!-- Node2&#45;&gt;Node1 -->
<g id="edge1" class="edge">
<title>Node2&#45;&gt;Node1</title>
<path fill="none" stroke="midnightblue" d="M103,-102.29C103,-92.86 103,-82.65 103,-75.66"/>
<polygon fill="midnightblue" stroke="midnightblue" points="99.5,-102.4 103,-112.4 106.5,-102.4 99.5,-102.4"/>
</g>
<!-- Node3 -->
<g id="node3" class="node">
<title>Node3</title>
<g id="a_node3"><a xlink:href="../../d5/d9f/classpyclustering_1_1nnet_1_1network.html" target="_top" xlink:title="Common network description that consists of information about oscillators and connection between them...">
<polygon fill="white" stroke="black" points="31,-179.5 31,-198.5 175,-198.5 175,-179.5 31,-179.5"/>
<text text-anchor="middle" x="103" y="-186.5" font-family="Helvetica,sans-Serif" font-size="10.00">pyclustering.nnet.network</text>
</a>
</g>
</g>
<!-- Node3&#45;&gt;Node2 -->
<g id="edge2" class="edge">
<title>Node3&#45;&gt;Node2</title>
<path fill="none" stroke="midnightblue" d="M103,-169.23C103,-160.59 103,-150.5 103,-142.52"/>
<polygon fill="midnightblue" stroke="midnightblue" points="99.5,-169.48 103,-179.48 106.5,-169.48 99.5,-169.48"/>
</g>
</g>
</svg>
